<?xml version="1.0" encoding="utf-8"?>
<!-- Generator: Adobe Illustrator 22.0.0, SVG Export Plug-In . SVG Version: 6.00 Build 0)  -->
<svg version="1.1" id="Capa_1" xmlns="http://www.w3.org/2000/svg" xmlns:xlink="http://www.w3.org/1999/xlink" x="0px" y="0px"
	 viewBox="0 0 77 77.4" style="enable-background:new 0 0 77 77.4;" xml:space="preserve">
<style type="text/css">
	.st0{fill:#030930;}
	.st1{fill:#4AB19A;}
	.st2{fill:none;stroke:#1D0A03;stroke-width:0.1012;stroke-miterlimit:10;}
	.st3{fill:#E69560;}
	.st4{fill:none;stroke:#121C36;stroke-width:0.1338;stroke-linecap:round;stroke-linejoin:round;stroke-miterlimit:10;}
	.st5{fill:#121C36;}
	.st6{fill:#FB577F;}
	.st7{fill:#FFFFFF;}
	.st8{fill:#F6939D;}
	.st9{fill:none;stroke:#121C36;stroke-width:0.1316;stroke-linecap:round;stroke-linejoin:round;stroke-miterlimit:10;}
	.st10{opacity:0.22;fill:#FFFFFF;stroke:#292929;stroke-width:9.400310e-02;stroke-miterlimit:10;enable-background:new    ;}
	.st11{fill:#003C82;}
</style>
<g>
	<g>
		<g>
			<g>
				<g>
					<g>
						<g>
							<path class="st0" d="M20.8,15.8c-0.5-2-0.7-6-2.3-9.9c-1-2.4-1.7-3.3-2.2-3.7l0,0c0,0-1.7-1.9-4.6-1.9
								c-2.8,0-4.5,1.8-4.5,1.8l0,0C6.8,2.4,6,3.3,4.9,5.9c-1.6,3.9-1.8,7.9-2.3,9.9s0.1,5.6,3.9,6.3c0,0-0.5-0.5-0.7-1.4
								c0,0,1.6,2.3,3.8,2.2h4.1c2.2,0.1,3.8-2.2,3.8-2.2c-0.2,0.9-0.7,1.4-0.7,1.4C20.6,21.4,21.3,17.8,20.8,15.8z"/>
							<path class="st0" d="M8.9,20.4"/>
							<g>
								<path class="st0" d="M17.8,6.5c0,3.4-2.6,6.1-5.8,6.1S6.1,9.9,6.1,6.5c0-3.4,2.6-5.7,5.8-5.7C15.2,0.8,17.8,3.1,17.8,6.5z"
									/>
							</g>
						</g>
						<g>
							<path class="st1" d="M20.1,20.4c0,0,4,1.1,7.1,11l-7.9,4.3l-1.7-5.8L20.1,20.4z"/>
							<path class="st1" d="M3,20.4c0,0-3.2,1-6.4,10.9l7.2,4.3l1.7-5.8L3,20.4z"/>
							<g>
								<path class="st1" d="M8.9,18.2l-5.6,2.1c-1.1,0.4-1.6,1.5-1.4,2.6l4.1,16.3h11l3.8-17.1c0.2-0.8-0.2-1.5-0.9-1.8l-5.4-2.2
									L8.9,18.2z"/>
								<line class="st2" x1="4.3" y1="32" x2="3" y2="26.9"/>
								<line class="st2" x1="18.5" y1="33" x2="19.8" y2="27.1"/>
							</g>
						</g>
					</g>
				</g>
			</g>
		</g>
	</g>
	<g>
		<path class="st3" d="M14.5,20.3l-0.7-5.9c0,0-0.7,0.7-1.6,0.9c-0.9,0.2-1.8-0.4-1.8-0.4c0,0-0.8-0.6-0.8-0.6l-0.7,6.1
			c0,0.1,0.5,0,0.5,0C9.4,20.4,14.5,20.3,14.5,20.3z"/>
		<path class="st0" d="M9.2,14.4c0,0,1.4,2.8,3.1,2.4c1.8-0.4,1.8-2.7,1.8-2.7L9.2,14.4z"/>
		<path class="st3" d="M17,6.8c0,2.1-0.3,3.9-0.6,5.2c-0.3,1.3-1.1,2.1-2.3,2.9L13.9,15c-1.3,0.8-2.9,0.8-4.2,0l0,0
			c-1.3-0.7-2.2-1.7-2.5-3.1C6.7,9.5,6.6,6.8,6.6,6.8s-0.5-5.3,5.1-5.2S17,6.8,17,6.8z"/>
		<g>
			<path class="st3" d="M7.3,11.8c-0.9,0.8-2.9-2.4-2-3.3c0.9-0.9,1.6,0.5,1.6,0.5l0.2,1l0.3,1.4L7.3,11.8L7.3,11.8z"/>
			<g>
				<g>
					<path class="st4" d="M5.7,9.6c0,0,0.4-0.8,1.3,0.6"/>
				</g>
			</g>
		</g>
		<g>
			<path class="st3" d="M16.4,11.8c0.9,0.8,2.9-2.5,1.9-3.3c-0.9-0.9-1.5,0.6-1.5,0.6l-0.2,1l-0.3,1.4L16.4,11.8L16.4,11.8z"/>
			<g>
				<g>
					<path class="st4" d="M17.9,9.6c0,0-0.4-0.8-1.3,0.6"/>
				</g>
			</g>
		</g>
		<path class="st0" d="M17.8,6.5c0,0-0.9-3.5-1.7-4.2C15.7,2,10.1-2.6,6.5,5.1C6.5,5.3,6.4,5.5,6.4,5.7c-0.4,2.1,0.4,3,0.4,3
			s0.7-1.2,1.1-2.8c2.5,0.5,4.7-0.7,6.3-1.8c0.4,0.7,0.9,1.4,1.6,1.8C16.2,7.4,17,8.5,17,8.5s0.3-0.7,0.2-2.1
			C17.4,6.5,17.6,6.5,17.8,6.5z"/>
		<g>
			<g>
				<path class="st5" d="M10.9,7.3l-3,0.4c0,0,0.2-0.8,1.5-0.9C10.6,6.6,10.9,7.3,10.9,7.3z"/>
				<path class="st5" d="M12.6,7.3l3,0.4c0,0-0.2-0.8-1.5-0.9C12.9,6.6,12.6,7.3,12.6,7.3z"/>
				<g>
					<g>
						<path class="st6" d="M10.1,12l0.9-0.4c0.1,0,0.3,0,0.4,0l0.4,0.1l0.3-0.1c0.2,0,0.3,0,0.5,0l0.8,0.4L10.1,12z"/>
					</g>
					<path class="st6" d="M10.1,12c0,0,0.4,1.1,1.7,1.1s1.6-1.2,1.6-1.2L10.1,12z"/>
					<path class="st7" d="M10.3,12.1c0,0,0.2,0.5,1.4,0.5c1.1,0,1.4-0.5,1.4-0.5L10.3,12.1z"/>
					<ellipse class="st8" cx="11" cy="12.8" rx="0.1" ry="0.1"/>
				</g>
				<polyline class="st9" points="11.5,10 11.5,10.9 12,10.9 				"/>
				<path class="st4" d="M10.1,9c0,0-0.7-0.5-1.4,0"/>
				<path class="st4" d="M13.4,9c0,0,0.7-0.5,1.4,0"/>
			</g>
		</g>
		<g>
			<path class="st10" d="M16,10.5h-3c-0.2,0-0.4-0.2-0.4-0.4V8.5c0-0.2,0.2-0.4,0.4-0.4h3c0.2,0,0.4,0.2,0.4,0.4v1.6
				C16.4,10.3,16.2,10.5,16,10.5z"/>
			<g>
				<path class="st11" d="M15.7,10.7h-2.3c-0.5,0-1-0.4-1-1V8.9c0-0.5,0.4-1,1-1h2.3c0.5,0,1,0.4,1,1v0.8
					C16.6,10.2,16.2,10.7,15.7,10.7z M13.4,8.2c-0.3,0-0.6,0.3-0.6,0.6v0.8c0,0.3,0.3,0.6,0.6,0.6h2.3c0.3,0,0.6-0.3,0.6-0.6V8.9
					c0-0.3-0.3-0.6-0.6-0.6H13.4z"/>
			</g>
			<path class="st10" d="M10.6,10.5h-3c-0.2,0-0.4-0.2-0.4-0.4V8.5c0-0.2,0.2-0.4,0.4-0.4h3c0.2,0,0.4,0.2,0.4,0.4v1.6
				C11,10.3,10.8,10.5,10.6,10.5z"/>
			<g>
				<path class="st11" d="M10.2,10.7H7.9c-0.5,0-1-0.4-1-1V8.9c0-0.5,0.4-1,1-1h2.3c0.5,0,1,0.4,1,1v0.8
					C11.2,10.2,10.7,10.7,10.2,10.7z M7.9,8.2c-0.3,0-0.6,0.3-0.6,0.6v0.8c0,0.3,0.3,0.6,0.6,0.6h2.3c0.3,0,0.6-0.3,0.6-0.6V8.9
					c0-0.3-0.3-0.6-0.6-0.6H7.9z"/>
			</g>
			<g>
				<g>
					<path class="st11" d="M12.5,9.5C12.2,9.2,12,9,11.8,9.1c-0.4,0-0.6,0.4-0.6,0.4l-0.3-0.2c0,0,0.3-0.5,0.9-0.6
						c0.4,0,0.7,0.2,1.1,0.5L12.5,9.5z"/>
				</g>
			</g>
		</g>
	</g>
	<polygon class="st3" points="8.9,18.2 6.5,19.1 11.8,22.5 16.8,19 14.5,18.1 	"/>
	<path class="st0" d="M9.9,22.5c-3.3-4.2-3.3-6.8-3.3-8.7H2.9c-0.1,0.8-0.2,1.4-0.3,1.9c-0.5,2,0.1,5.6,3.9,6.3c0,0-0.5-0.5-0.7-1.4
		c0,0,1.6,2.3,3.8,2.2h0.6C10.1,22.8,10,22.6,9.9,22.5z"/>
</g>
</svg>
