<?xml version="1.0" encoding="utf-8"?>
<!-- Generator: Adobe Illustrator 22.0.0, SVG Export Plug-In . SVG Version: 6.00 Build 0)  -->
<svg version="1.1" id="Capa_1" xmlns="http://www.w3.org/2000/svg" xmlns:xlink="http://www.w3.org/1999/xlink" x="0px" y="0px"
	 viewBox="0 0 432.8 160.8" style="enable-background:new 0 0 432.8 160.8;" xml:space="preserve">
<style type="text/css">
	.st0{display:none;}
	.st1{display:inline;fill:#4AB19A;}
	.st2{fill:#39A488;}
	.st3{fill:#4AB19A;}
</style>
<g id="wEKLeO_1_">
</g>
<g id="group" class="st0">
	<path id="bezier" class="st1" d="M108.9,58.2c0-3.5-0.5-7.3-1.8-10.7c-1.1-3.1-2.8-6.1-5-8.7c-5-5.5-13.2-9-20.8-9
		c-12.8-0.1-25.8,5.8-35.8,13.7c-3.8,3-7.3,6.5-9.8,10.7c-1.6,2.6-2.7,5.5-2.7,8.6c0,2.8,0.5,5.9,2.2,8.4c1.5,2.6,3.9,4.9,6.6,6.4
		c3.7,2,7.9,3.1,12.1,3.6c6.1,0.9,12.5,0.7,18.6-0.3c3.4-0.5,6.6-1.1,9.8-2.3c2.2-0.9,4.7-2,5.7-4.1c0.1-0.3,0.1-0.7,0-0.9
		c-0.3-0.3-0.7-0.3-0.9-0.4c-1.2-0.1-2.6-0.3-3.8-0.1c-2,0.4-3.9,1.2-5.8,1.6c-3.9,0.8-7.9,1.4-11.9,1.6c-4.3,0.1-8.8,0-13.3-0.9
		c-2.6-0.4-5.3-1.2-7.7-2.7c-1.8-1.1-3.5-2.4-4.6-4.3c-0.9-1.6-1.4-3.6-1.4-5.5c0-2.8,1.5-5.5,3.1-7.8c2.3-3.2,5.4-6.1,8.6-8.5
		c9-6.6,20.1-11.6,31.2-11.8c6.2,0,13,2.7,17.4,7.3c3.8,4.3,5.7,10.5,5.7,16.2c0,6.2-2,12.4-4.7,17.8c-5.5,10.6-14,20.5-24.6,25.9
		c-5.4,2.8-11.8,4.5-18,4.6c-6.1,0-12.5-1.8-17.9-4.9c-3.1-1.8-6.2-5-6.4-8.5c0-0.8,0.3-1.6,0.5-2.3c0.3-0.5,0.5-1.1,0.9-1.6
		l0.4-0.8c0.3-0.5,0.9-1.4,0.4-1.5c-0.3-0.3-0.7-0.1-1.1,0c-0.7,0.3-1.2,0.5-1.8,1.1c-1.4,1.1-2.2,3.2-2.2,5.1
		c0,1.5,0.4,3.1,1.1,4.6c1.2,2.3,3.4,4.3,5.6,5.8c5.8,4.1,13.3,6.1,20.4,6.2c7.2,0,14.7-1.9,20.9-5.3c11.5-6.2,20.8-17,26.3-28.8
		C107,70.4,108.8,64.3,108.9,58.2z"/>
	<path id="bezier2" class="st1" d="M123.5,33.1c-0.1-0.4-0.4-0.5-0.8-0.7c-0.4,0-0.7-0.1-1.1-0.1c-0.7,0-1.4-0.1-1.8,0.3
		c-0.7,0.7-0.7,1.8-0.8,2.7c-0.3,1.5-0.4,3.1-0.5,4.7c-0.5,4.7-1.2,9.6-1.4,14.3c0.1,0.5,0.9,0.5,1.4,0.5c0.3,0,0.5,0,0.7-0.1
		c0-0.1,0-0.4,0-0.5l0.4-1.4l0.8-3.8c0.9-3.6,1.6-7.4,2.3-11.1c0.3-1.1,0.4-2.2,0.5-3.1C123.3,34.2,123.6,33.6,123.5,33.1z"/>
	<path id="bezier3" class="st1" d="M172,102.4c0.1-0.3,0.3-1.1-0.1-1.1c-0.4-0.1-0.8,0.4-1.2,0.7c-0.8,0.5-1.5,1.4-2.2,2.2
		c-1.5,1.6-3.9,2.8-6.1,2.8c-1.8,0-3.7-0.8-4.6-2.3c-1.5-2.3-1.6-5.3-1.6-8c0.1-2.7,0.5-5.3,0.4-8c0-1.9-0.3-4.2-1.8-5.4
		c-0.7-0.5-1.9-0.5-2.6,0c-1.4,0.9-1.9,2.7-2.6,4.2c-1.6,3.5-2.8,7-4.2,10.5c-0.5,1.4-1.1,2.6-1.8,3.9c-0.3,0.5-0.5,1.1-0.8,1.6
		l-0.3,0.4c0-0.1,0-0.3-0.1-0.4c-0.1-0.9-0.1-2-0.1-3c0.1-2.7,0.5-5.3,0.4-8c0-2.7-0.4-5.7-2.2-7.7c-0.5-0.7-2-0.8-2.8-0.4
		c-1.5,0.9-2.2,2.7-3.1,4.2c-2,3.9-3.7,8.1-5.4,12.3c-0.4,0.9-0.8,1.8-1.2,2.7c-0.4,0.5-0.7,1.1-1.1,1.5c-0.1,0.1-0.1,0.1-0.3,0.3
		c-0.3-1.1-0.1-2.4-0.1-3.7c0.1-3.4,0.5-6.9,0.5-10.3c0.1-2.2-0.3-4.3-1.2-6.1c-0.7-0.9-1.6-1.8-2.8-1.8c-0.9,0-0.7,0.9-0.9,1.9
		c1.4,1.8,1.5,2,1.5,2c0.4,1.2,0.5,2.6,0.5,3.9c-0.1,3.8-0.8,7.6-0.8,11.3c0,1.6,0,3.2,0.5,4.7c0.4,0.8,1.2,1.6,2,1.8
		c1.4,0.1,2.7-0.9,3.7-1.9c1.2-1.5,2.2-3.4,3-5.1c1.4-3.3,2.7-6.6,4.3-9.7c0.5-1.4,1.2-2.6,1.9-3.8c0.4,1.2,0.5,2.6,0.5,3.9
		c0,3.4-0.5,6.8-0.3,10.1c0.1,1.5,0.3,3,1.1,4.1c0.5,0.7,1.5,1.2,2.3,1.2c1.5,0,2.7-1.6,3.5-2.8c1.1-1.9,1.9-4.1,2.7-6.1
		c1.2-3.1,2.2-6.3,3.4-9.5c0.4-0.9,0.8-1.9,1.4-2.8l0.1-0.3c0,0.1,0,0.3,0.1,0.4c0.1,0.9,0.1,1.8,0.1,2.7c0,2.3-0.3,4.6-0.1,6.9
		c0,3.4,0.4,7,2.4,9.7c1.5,1.9,4.1,2.8,6.4,2.7c3.3,0,6.6-2.2,8.6-4.9c0.3-0.4,0.5-0.8,0.8-1.2C171.8,102.8,171.9,102.7,172,102.4z"
		/>
	<path id="bezier4" class="st1" d="M273.1,44.7c0-1.9-0.7-3.9-1.6-5.5c-1.5-2.3-3.9-4.2-6.4-5.4c-6.5-3.4-14.2-4.2-21.6-4.2
		c-13.8,0-28,2.4-40.7,7.7c-5.3,2.2-10.9,4.7-14.8,8.9c-2.3,2.3-4.2,5.7-4.2,9.1c0,3.7,2.4,7,5.2,9.5c4.1,3.5,9,5.9,13.8,8.1
		c12.8,5.5,26.2,9.5,39.4,14.1c4.6,1.6,9.2,3.4,13.7,5.7c1.4,0.8,2.8,1.6,4.1,2.7c0.8,0.7,1.8,1.5,1.8,2.4c0,1.4-1.1,2.4-2.2,3.2
		c-1.6,1.2-3.5,2.2-5.6,3c-5.4,2.3-11.4,3.5-17.2,3.5c-13.3,0-26.6-4.6-38-11.3c-0.7-0.4-1.4-0.8-2.2-1.2c-0.3-0.1-0.7-0.3-1-0.4
		c-0.4-0.1-0.7-0.4-1.1-0.4c-0.3,0-0.7,0-0.7,0.1c-0.1,0.7,0.5,1.4,0.9,1.9c0.8,1.1,2,2,3.3,2.7c2.8,1.8,5.7,3.2,8.8,4.7
		c9.2,4.3,19.5,7.2,29.9,7.2c6.9,0.1,14-1.4,20.2-4.1c2.6-1.1,5.1-2.6,6.9-4.7c0.9-1.1,1.6-2.6,1.6-4.2c0-3-3.1-5.5-5.7-7.3
		c-3.5-2.3-7.6-3.9-11.5-5.5c-13-5.3-26.7-9.2-39.8-14.6c-4.6-2-9.2-4.2-13.4-6.9c-1.8-1.2-3.4-2.4-4.6-4.1
		c-0.9-1.1-1.8-2.6-1.8-4.1c0.1-3,2.7-5.7,5.1-7.6c3.8-2.8,8.4-4.9,12.9-6.3c11.8-4.2,24.4-6.4,36.8-6.4c5.6,0,11.4,0.5,16.6,2.6
		c2.2,0.7,4.2,1.8,5.8,3.4c0.9,1.1,1.8,2.4,1.8,3.8c0,1.1-0.7,2.2-1.4,3c-1.1,1.5-2.6,2.6-4.2,3.5c-2,1.2-4.2,1.9-6.5,2.4
		c-1.4,0.3-2.8,0.3-4.2,0.7c-0.3,0.1-0.7,0.3-0.7,0.7c-0.1,0.3,0,0.7,0.1,0.9c0.7,1.2,2,2.2,3.5,2.4c1.6,0.4,3.5-0.1,5.2-0.5
		c4.2-1.1,8.4-3.4,11.1-6.8C272.1,49.3,273.1,47,273.1,44.7z"/>
	<path id="bezier5" class="st1" d="M297.7,90.8c0-0.3,0-0.7-0.1-0.8c-0.1-0.1-0.3-0.3-0.5-0.1c-1.1,0.1-1.8,1.4-2.3,2.3
		c-0.7,1.2-1.4,2.4-2,3.6c-1.8,2.7-3.9,5.1-6.5,7c-1.9,1.4-3.8,1.9-6.2,1.8c-2.7,0-5.7-0.9-7.6-2.8c2.6-2.2,4.9-4.6,6.8-7.3
		c2.3-3.4,4.5-7,5.3-11.1c0.1-1.2-0.3-2.7-1.1-3.7c-1.2-1.6-3.5-2.7-5.6-2.7c-2.6,0-5,1.8-6.8,3.7c-3.1,3.5-5.1,8.4-5.1,13.1
		c0,8.4,5.6,14.3,14.1,14.2c3.7-0.1,7.2-1.9,9.9-4.3c3.3-3.2,5.6-7.6,7.5-11.8C297.4,91.5,297.6,91.2,297.7,90.8z M280.6,82.7
		c-0.5,3.9-2.7,7.6-5,10.8c-1.4,2.2-3,4.1-4.7,5.8c-0.8-1.6-1.2-3.6-1.1-5.5c0-3.2,1.4-6.5,3.1-9.2c1.2-1.6,2.8-3.6,4.9-3.8
		c0.8,0,1.6,0.4,2.2,0.8C280.3,81.9,280.7,82.3,280.6,82.7z"/>
	<path id="bezier6" class="st1" d="M330.1,93.1c-0.7-0.5-1.4,0-2.2,1.4c-2.2,3.7-6.6,9.6-11.7,9.3c-1.4-0.1-2.7-0.7-3.5-1.6
		c-1.2-1.5-1.5-3.7-1.5-5.5c-0.1-1.4,0-2.8,0.3-4.2c0-0.5,0.3-1.2,0.1-1.9c0-0.3-0.4-0.4-0.7-0.5l0,0c0-0.3-0.1-0.4-0.4-0.5
		c-0.1,0-0.5,0-0.8,0.1c-0.5-0.1-1.4-0.3-1.8,0.3c-0.5,0.8-0.7,1.8-0.8,2.8c-0.3,1.2-0.3,2.4-0.3,3.8c-0.9,2-2.3,3.9-3.8,5.5
		c-1.2,1.4-2.8,3.1-4.7,3c-1.2,0-2-1.4-2.4-2.4c-0.7-1.8-0.8-3.6-0.8-5.5c0.1-3.9,1.6-7.8,3.9-10.9c1.4-1.9,3.3-4.2,5.6-4.1
		c0.9,0,2.3,0,2.7,0.7c0.5,0.9-0.1,2.3,0.7,3c0.3,0.3,0.8,0.4,1.2,0.4c0.5,0,1.4,0,1.8-0.4c1.1-1.4,0.8-3.5,0.1-5
		c-1.2-2-4.1-3-6.5-3c-2.8,0-5.8,1.9-7.6,4.2c-3.4,4.2-5.6,9.7-5.6,15.1c0,3,0.5,6.3,2.3,8.6c1.1,1.5,2.8,2.6,4.6,2.6
		c3-0.1,5.7-2.6,7.5-5c0.5-0.8,1.2-1.8,1.8-2.6c0.4,1.6,1.4,3.2,2.6,4.5c1.5,1.6,3.9,2.3,6.1,2.3C324.3,107.3,331.9,94.3,330.1,93.1
		z"/>
	<path id="bezier7" class="st1" d="M358.6,100.9c-0.5-0.1-1.2,0.1-1.8,0.4c-0.8,0.5-1.4,1.4-2,1.9c-1.6,1.1-3.7,1.6-5.6,1.6
		c-1.6,0-3.5-1.1-4.5-2.4c-1.2-1.9-1.6-4.2-1.6-6.5c0.1-2.8,0.4-5.7,0.7-8.6c0.1-1.2,0.4-2.6-0.1-3.6c-0.3-0.7-1.2-1.4-2-1.4
		c-0.9,0-1.8,0.7-2.3,1.4c-0.9,0.9-1.5,2.2-2,3.2c-1.5,2.8-2.7,5.8-4.1,8.8c-0.7,1.5-1.4,2.8-2,4.3c-0.4,0.7-0.8,1.2-1.2,1.9
		l-0.3,0.4c-0.1-1.2,0-2.4,0-3.7c0-3,0.4-5.8,0.4-8.8c0-2,0.1-4.2-0.8-5.9c-0.5-0.9-1.8-1.8-2.8-1.8c-1.4,0-0.8,0.7-1.2,2
		c1.5,0.5,1.5,2,1.5,2c0,1.5,0.1,2.6,0,3.6c0,3.7-0.7,7.4-0.5,11.2c0,1.4,0,3,0.8,4.2c0.4,0.8,1.2,1.4,2.2,1.4
		c2.3-0.1,4.1-2.8,5.2-5c1.5-2.7,2.7-5.7,3.9-8.6c0.7-1.5,1.2-2.8,1.9-4.2l0.4-0.9c0,0.3,0,0.5,0,0.8c-0.3,2.4-0.4,4.9-0.3,7.3
		c0,3,0.7,6.2,2.7,8.4c1.5,1.8,3.9,3,6.2,2.8c1.5,0,3.1-0.3,4.5-0.8c1.6-0.8,3-2,4.2-3.4c0.1-0.1,0.3-0.3,0.3-0.4l0.1-0.1
		C358.6,102,359.2,101.1,358.6,100.9z"/>
	<path id="bezier8" class="st1" d="M378.9,104.2c0-2.3-1.4-4.1-3-4.1s-2.8,1.8-2.8,4.1c0,2.3,1.2,4.1,2.8,4.1
		C377.5,108.2,378.9,106.5,378.9,104.2z"/>
</g>
<g>
	<path class="st2" d="M62.3,32.1c0,0.8-0.9,1.8-2.7,1.8c-0.5,0-0.9-0.5-1.4-1.5c-0.6-2.8-2.6-5.8-6.1-8.7c-3.6-2.9-8.6-4.4-15-4.4
		c-8.6,0-15.1,3.3-19.8,11.5c-2.3,4.1-3.5,7.7-3.5,10.8c0.1,1.1,0.5,1.7,1.5,1.8c22.2,0.8,36.2,1.8,41.9,3.1S66.7,50,68.9,53
		c2.2,3,3.3,6.5,3.3,10.6c-0.1,5.4-1.8,11.3-5.3,17.8c-3.5,6.5-8.7,12.3-15.7,17.5c-7.1,5.1-15.7,7.7-26,7.7c-5.2,0-8.9-0.8-11-2.5
		s-3.1-4-3.1-7c0-4.4,2.8-9.7,8.3-16.1S35,68.2,49.6,61.8c0.4-0.1,0.8-0.2,1.3-0.2c1.2,0,1.8,1.8,1.8,2.8c0,0.4-0.3,0.9-1,1.3
		c-13,5.5-22.2,11.1-27.8,16.9S15.5,93.2,15.5,97c0,3.2,3.3,5,9.9,5.3c12.3,0,22.2-5.2,32-17.9c4.9-6.3,7.3-13.3,7.3-21
		c-0.1-6.5-4.4-10.7-11.9-13c-3.7-1.1-17.3-2-40.7-2.7c-3.7,0-5.6-1.9-5.8-5.7C6.4,37.8,8,33.3,11,28.6c3-4.6,6.8-8.1,11.3-10.3
		S31.6,15,36.9,15c14.3,0,22.8,6.1,25.3,15.5C62.3,31.1,62.3,31.6,62.3,32.1z"/>
	<path class="st2" d="M77.5,85.7c0-10.2,4.1-20.9,16.3-20.8c2.2,0,4,0.5,5.6,1.6c1.5,1.1,2.2,2.2,2.2,3.4c-0.1,1.1-0.6,1.8-1.6,2
		c-0.6,0-1.1-0.3-1.6-0.9c-1.3-1.5-2.7-1.8-4.6-1.8c-4.1,0-6.8,3.7-8,8.5c-0.6,2.3-0.9,5.1-0.9,8.1c0,6.1,1.2,9.2,4,9.2
		c2.1,0,4.1-1.3,5.9-4s3.1-5.4,3.9-8.2c0.8-2.8,1.2-5.4,1.2-7.7c0-1.2,0.9-1.8,2.8-2c1.8,0,2.7,0.6,2.7,1.9c0,3.7-0.8,7.4-2.2,11.1
		c-1.5,3.7-3.7,6.9-6.5,9.4c-2.9,2.5-5.6,3.8-7.9,3.8C81.1,99.2,77.5,94.1,77.5,85.7z"/>
	<path class="st2" d="M138.3,127.3c-1.1,9.3-3.3,17.1-6.8,23.6s-7.8,9.7-13,9.7c-5.1,0-8.2-4-8.2-9.7c0-6.1,1.2-12.6,3.7-19.5
		c2.4-7,5.3-13.3,8.8-18.9c3.5-5.7,7-10.4,10.4-14.3c0.2-2,0.3-3.5,0.5-4.6c-2.5,3.2-5.4,5.7-8.8,5.7c-8.7,0.3-11.4-7.3-11.8-16.4
		c0-5.8,2-11.8,4.2-16.2c0.2-0.3,0.3-0.5,0.4-0.6c0.4-0.4,1.6-0.6,3.4-0.6c2.8,0,3.4,0.9,3.4,2.2c0,0.2,0,0.4-0.1,0.6
		c-2.7,5-4.1,9.9-4.1,14.7c0,3.5,0.4,6.4,1.3,8.8c0.8,2.5,1.8,3.7,3.2,3.7c1.8,0,3.9-1.4,6.1-4.1s3.7-5.7,4.5-8.9
		c1.7-6.6,3.2-11.6,4.2-15.2c0.3-1.2,1.3-1.8,3-1.8c3.7,0,4.6,0.6,4.6,1.6s-1.1,3.7-2.6,9.7c-0.8,3-1.3,5.2-1.6,6.4
		c-1.1,4-1.7,7-1.9,9.2c2.6-2,5.6-4.5,9.2-7.6s6.8-6.4,9.7-9.8c0.3-0.3,0.8-0.5,1.3-0.5c0.9,0,1.7,0.7,1.7,1.7
		c0,0.4-0.2,0.8-0.6,1.3c-5.4,6.6-13.7,13.3-21.4,20.1C140.2,108.1,139.3,118,138.3,127.3z M125.5,115.2c-3.3,5.4-5.9,11.4-8,18.1
		c-2.1,6.7-3.2,12.5-3.2,17.5c0,3.5,1.3,5.6,4.1,5.6c2.3,0,4.7-2.7,7.3-8.2c2.5-5.5,4.4-12.6,5.4-21.4c1.1-8.8,1.7-16.3,1.9-22.4
		C131.4,106.2,128.8,109.8,125.5,115.2z"/>
	<path class="st2" d="M246.8,94.6c1.3,0,2,0.6,2,1.8c0,2-0.8,2.3-1.8,2.3c-16.9,1.2-32,1.8-45.4,1.8c-1.2-0.1-1.8-1-1.9-1.8
		c0-0.9,0.4-3.2,1.1-7c0.7-3.7,1.1-10.2,1.3-19.8c-1.2-44.2-1.8-66.7-2-67.4c0-0.8,0.2-1.5,0.6-1.8c0.3-0.4,1.5-0.6,3.4-0.6
		c3.1,0,3.5,0.5,3.7,2l2.1,67.1c-0.1,12.7-0.7,21.1-2,25.1C217.8,96.4,230.8,95.8,246.8,94.6z"/>
	<path class="st2" d="M252.9,92.1c-1.3-2.2-2-4.7-2-7.3c0-8.3,3.4-14.2,7.4-16.8c2-1.3,4.3-2,7-2c5.6,0,8.7,3.1,8.7,7.9
		c0,3.2-2,6.5-5.9,10c-4,3.5-6.6,5.6-7.6,6.4c0.9,2.8,2.5,4.3,4.8,4.5c2.7,0,6.4-2.5,11.4-7.6c4.9-5.1,9-9.5,12.3-13.2
		c0.3-0.3,0.8-0.5,1.3-0.5c0.9,0,1.5,0.6,1.5,1.6c0,0.4-0.2,0.8-0.6,1.3c-2.9,3.8-5.8,7.3-8.8,10.6c-3.1,3.4-6.3,6.4-9.6,8.9
		c-2.7,2-5.2,3-7.5,3C259.1,99.1,255.5,96.7,252.9,92.1z M265.3,80.5c2.1-2.6,3.1-4.7,3.1-6.4c0-2-1.4-3.9-3.3-3.9
		c-2.7,0-4.9,2.4-5.9,6.9c-0.6,2.2-0.8,4.1-0.8,5.6c0,1.4,0.3,2.8,0.7,4.4C261.1,85.3,263.2,83.1,265.3,80.5z"/>
	<path class="st2" d="M293,69c2-2.2,3.9-5,5.5-8.2c0.4-0.4,0.9-0.6,1.7-0.6c1.3,0.1,2.1,0.8,2.3,2.3c-0.5,1-0.8,1.9-0.8,2.7
		c0,3.9,2,7,4.2,12.1c1.1,2.6,1.6,5.2,1.6,8c0,7.9-4,13.6-12.5,13.6c-3,0-6.2-0.7-8.9-3.2c-0.4-0.6-0.7-1.1-0.7-1.7
		c0-1.2,0.9-2.1,2.1-2.1c0.4,0,0.9,0.2,1.3,0.5c2,1.5,4,2.3,6.2,2.3c3,0,5.1-3,5.1-9.5c0-2.7-0.6-5.2-1.8-7.5c-1.3-2.3-2-4.5-2-6.6
		c-2.7,2.8-6.6,7-9.7,10.6c-0.3,0.3-0.7,0.4-1.1,0.4c-0.9,0-1.8-1-1.8-2c0-0.4,0.1-0.8,0.4-1.1C288,74.6,290.9,71.2,293,69z"/>
	<path class="st2" d="M321.7,94.1c-2.7-2.8-4.5-6.1-5.5-9.9c-0.1-0.4-0.3-0.8-0.3-1.3c-0.5,0.6-1,1.1-1.5,1.6
		c-0.4,0.3-0.8,0.4-1.4,0.4c-0.9-0.1-1.6-0.8-1.6-1.8c0.1-0.4,0.3-0.8,0.7-1.3c1-1.1,2-2.1,3-3.2c-0.2-1.6-0.3-3.1-0.3-4.5
		c0-7.3,0.4-13.9,1.1-19.9c0.7-5.9,2.1-12.5,4.3-19.6c2.1-7.1,5.1-13.8,9-20.2c3.9-6.3,8-9.5,12.1-9.5c3.3,0,5.3,3.2,5.3,7.7
		c-0.1,5.4-1.1,11.2-2.8,17.4s-3.8,12.1-6,17.7c-2.3,5.6-4.9,10.9-7.8,15.9c-3,5-5.6,9.2-8.1,12.7c0.9,6.4,2.4,11,4.3,13.7
		c1.8,2.7,3.7,4,5.5,4c5.1,0,8.9-4,14.2-10.4c2.7-3.2,5.6-6.6,8.8-10.4c0.3-0.3,0.8-0.5,1.3-0.5c0.9,0,1.7,0.7,1.7,1.7
		c0,0.4-0.2,0.8-0.6,1.3c-2.5,3.2-4.7,5.9-6.5,8.2c-1.9,2.3-4.5,5.2-7.8,8.8s-7.2,5.4-11.7,5.4C327.5,98.4,324.3,96.9,321.7,94.1z
		 M334.5,17.4c-3.2,5.4-5.9,11.5-8,18.3s-3.5,13.2-4,19.2c-0.6,6-0.9,11.3-1.1,15.7c6.1-9.7,10.3-17.4,12.5-23.1
		c2.1-5.7,4.1-11.7,5.9-18s2.7-11.8,2.7-16.5c0-2.5-0.5-3.7-1.5-3.7C339.9,9.3,337.7,12.1,334.5,17.4z"/>
	<path class="st2" d="M355.5,68.5c0.4-0.4,1.6-0.6,3.5-0.6c3,0,3.5,0.9,3.5,2.1c0,0.7-1.3,3.9-3.3,11.8c-1,4-1.5,7.1-1.5,9.4
		s0.3,4,2.5,4c1.7,0,4.9-2.5,9.7-7.6c4.7-5,8.7-9.4,11.9-13.2c0.3-0.3,0.8-0.5,1.3-0.5c0.9,0,1.7,0.7,1.7,1.7c0,0.4-0.2,0.8-0.6,1.3
		c-6.1,7.5-12.3,14.5-17.6,19.1c-2.6,2.3-4.8,3.4-6.6,3.4c-6.4,0-9.8-3.2-9.8-8.1c0-3.1,0.6-6.8,1.8-11.3c1.1-4.4,2.1-7.8,2.8-10.2
		C354.9,69.3,355.1,68.8,355.5,68.5z M367,53.5c0,2.3-1.6,4.1-5,4.1c-2.3,0-3.5-1.3-3.5-3.8c0.1-2.7,1.6-4.4,4.4-4.7
		C365.8,49.4,366.6,51.1,367,53.5z"/>
	<path class="st2" d="M379.1,84.9c0-8.3,3.4-14.2,7.4-16.8c2-1.3,4.3-2,7-2c1.9,0,3.6,0.7,5.1,2.1c1.5,1.5,2.2,3.3,2.2,5.8
		c0,3.2-1.3,6.2-4,8.9c-2.7,2.7-5.4,5.2-8,7.3c1.3,2.7,2.9,4.7,6.2,4.7c4.5,0,9.5-3.9,14.5-10.2c0.3-0.3,0.8-0.5,1.3-0.5
		c0.9,0,1.5,0.6,1.5,1.6c0,0.4-0.2,0.8-0.6,1.3c-2.2,3.5-4.7,6.3-7.6,8.5c-2.8,2.3-6.3,3.4-10.4,3.4C385.7,99.4,379,92.8,379.1,84.9
		z M392.9,80.7c2.4-2.7,3.6-4.9,3.6-6.6c0-2-1.4-3.9-3.3-3.9c-2.7,0-5.3,2.9-6.3,6c-0.6,1.6-0.8,3.7-0.8,6.5c0,1.4,0.3,2.7,0.9,3.9
		C388.5,85.4,390.5,83.5,392.9,80.7z M425.4,93.4c0,2.5-1.7,4.4-5.2,4.4c-2.4,0-3.6-1.3-3.7-4c0.1-2.8,1.7-4.7,4.6-4.9
		C424.3,89.1,425.2,90.9,425.4,93.4z"/>
</g>
<text transform="matrix(1 0 0 1 -497.875 399.7617)" class="st3" style="font-family:'Gwidon'; font-size:129.4271px;">Soy Leslie.</text>
<text transform="matrix(1 0 0 1 2.125 -136.2604)" class="st3" style="font-family:'Gwidon'; font-size:129.328px;">Soy</text>
<text transform="matrix(1 0 0 1 156.125 -136.2604)" class="st3" style="font-family:'GLYPHICONSHalflings-Regular'; font-size:129.328px;"> </text>
<text transform="matrix(1 0 0 1 285.425 -136.2604)" class="st3" style="font-family:'Gwidon'; font-size:129.328px;">Leslie.</text>
<g>
	<path class="st3" d="M39.7,284.5c-5.4,5.6-17.6,9.4-27,6.9c-13.8-3.8-13.8-19.9-1.8-26.3c7.2-3.9,18.4-4.1,25.2-3.8
		c-0.8-6.6-3.8-11.7-6.9-17.3c-5.6-9.5-12.3-20.7-8.9-32.1c3-9.2,10.4-14.6,19.7-15.5c6.9-0.7,14,1.6,17.4,8.2
		c2.8,5.3,2.6,11.7,1.3,17.1c-0.5,1.8-3.1,1.2-2.6-0.7c1-4.8,1.3-10.5-1-15c-3.8-7.2-13.5-8.7-20.2-4.6c-5.4,3.5-8.1,10.2-7.6,16.6
		c0.5,7.9,5.9,15.8,10.4,22.2c4.4,6.7,8.7,13,9.9,21.2c9.9,0.2,16.1-4.3,21.5-11.4c1.2-1.5,3.3,0,2.3,1.5
		c-5.8,8.1-14.3,12.8-23.7,12.5C48.1,271.7,44.8,279.2,39.7,284.5z M12.2,267.4c-9.9,5.3-9.5,18.4,1.5,21.4
		c6.6,1.8,14.1-1.8,18.3-7.1c3.6-5.1,4.8-11.7,4.4-17.8C29.5,263.8,19.8,263.3,12.2,267.4z"/>
	<path class="st3" d="M77.9,272.7c-5.1,0-9.9-3-11.5-7.6c-1.6-4.4-1.6-13,5.3-17.4c-1.2-3.8-1.2-7.1,0.2-10
		c3.5-7.9,13.7-7.7,17.9-1.2c4.8,7.2,5.1,17.8,1.8,25.5c8.9,1.6,16.6-4.6,21.4-11.7c1-1.5,3.3,0,2.3,1.5
		c-5.6,8.2-14.5,14.8-24.8,12.8C88.1,268.9,83.5,272.7,77.9,272.7z M75.6,255.2c-1.3,2.1-3,5.8-2,10c0.5,2,2.1,3.8,4.3,4.3
		c4.3,0.8,6.7-2.5,8.7-6.1C82.3,262,77.5,258.7,75.6,255.2z M79.7,247c1.6,1.3,2,2.8,0.7,3.8c-0.8,0.7-2,1.3-2.8,2.3
		c1.5,3.3,7.1,7.2,10,7.9c2.8-7.1,3.5-17.3-0.5-23.2c-3.3-4.9-10.2-4.4-12.3,0.3c-1.2,2.5-1.3,5.9-0.3,8.2
		C75.1,246,77.5,245.2,79.7,247z"/>
	<path class="st3" d="M114.1,321.9c-14.8,7.9-24.5-1-18.4-16.8c5.3-13.7,21.6-24,33.4-29.4c1.3-5.4,1.8-10,2.8-15.5
		c-3,5.1-5.8,9.9-10.2,11.4c-2.8,1-6.1,0.7-8.4-1.2c-5.3-4.1-2.6-17.6,0.2-22.7c2-3.5,10.4-2.6,9.2,2.5c-0.5,2.8-3,10.7-3.3,14.6
		c-0.5,5.4,3.5,3.6,5.4,1.3c5.3-6.3,7.6-12.8,9.4-19.6c0.8-3.1,9.5-2.8,9.2,0.8c-0.3,7.4-1.2,15.5-2.1,22.9c9.7-4.6,16.9-11,23-19.9
		c1-1.5,3.3,0,2.3,1.5c-6.4,9.5-14.5,16.5-25.8,21.5C137.7,290.8,130.5,313.1,114.1,321.9z M98.1,306.2
		c-4.4,11.8,1.5,21.5,12.8,11.5c10-8.9,14.3-25.8,17.4-38.8C117.8,284,102.9,293.9,98.1,306.2z"/>
	<path class="st3" d="M272.8,282.2c1.2-1.5,3.3,0.2,2.3,1.6c-15.1,21.4-37-1.2-55.1-8.1c-2.1,3.3-4.8,6.9-7.9,9
		c-10.5,7.2-18.1-4.9-9.9-11.7c4.1-3.3,10.2-3,15-1.8c6.6-16.6,5.4-32.7,16.3-77.5c0.8-3.1,8.7-2.6,9,0.2c1.2,9-6.6,51.3-20.9,78.6
		C235.5,277.1,261.3,297.2,272.8,282.2z M216,274.3c-3.9-1.2-8.7-1.8-12,1c-5.3,4.3-1.2,13.2,6.4,7.2
		C212.9,280.6,214.7,277.3,216,274.3z"/>
	<path class="st3" d="M259.8,266.6c3.8,3.3,11.4-0.3,14.6-2.5c5.6-3.6,10.4-8.6,14-13.8c1-1.5,3.3,0,2.3,1.5
		c-3.6,5.3-8.6,10.5-14,14.1c-6.3,4.1-13.7,6.3-19.7,4.3c-6.1-2.1-7.6-7.9-6.3-14c1.2-4.9,4.9-8.6,9.7-9.7c2.6-0.7,9.7-0.7,9.2,3.5
		c-0.5,3.8-6.6,5.1-10,4.8C257.3,260.3,257.8,264.8,259.8,266.6z M266.2,250.8c1-0.8,1-1.6-0.3-1.6c-1.8,0-3.6,1.5-4.6,3
		C262.9,252.1,264.9,251.8,266.2,250.8z"/>
	<path class="st3" d="M293.7,245c0.8,6.6,4.1,11.4,6.4,18.6c7.4-2.5,14.5-6.7,19.1-13.3c1-1.5,3.3,0,2.3,1.5
		c-4.6,6.7-12.8,12.2-20.6,14.5c2.6,11-3.8,20.6-13.5,20.6c-5.8,0-8.9-3.6-8.4-8.6c0.7-7.1,6.6-9.7,13-11.8c-1-5.1-2.6-9.2-3.9-13.7
		c-1.3-4.4-1.3-13,4.3-15.1c2.8-1.2,6.9-0.5,7.2,2.8c0.2,1.8-2.1,1.8-2.5,0.8C296.3,238.9,293.2,241.1,293.7,245z M283.2,274.6
		c-2.6,4.6-1.3,9.9,3.6,9c5.6-1,6.7-8.9,5.8-14.8C289.1,270,285.1,271.3,283.2,274.6z"/>
	<path class="st3" d="M343.2,271.5c6.7-4.4,12.8-11.7,19.7-21.2c1.2-1.5,3.3,0,2.3,1.5c-6.9,10.2-14,17.9-21.9,22.9
		c-5.6,3.5-11.4,3.9-16.6,0.2c-8.9-6.3-9.5-18.3-9-27.8c1-16.9,9.7-43.6,26.8-52.3c13.2-6.7,24.2-1,21.6,14
		c-3.1,17.9-23.2,33.6-38.3,41.9C325.8,263.8,328.7,281.2,343.2,271.5z M363.3,208.2c2.1-11.8-5.4-17.6-14-9.5
		c-11.5,10.7-18.6,36.7-20.9,48.5C342.4,239.3,360.3,225,363.3,208.2z"/>
	<path class="st3" d="M393.7,251.8c-4.9,7.2-13.2,18.6-20.4,22.5c-8.1,4.4-13.3,1-13.3-9.5c0-6.3,1.5-12.3,2.8-15.8
		c1.8-4.9,10.9-3.1,9.7,1.3c-1.2,4.3-3.5,11.8-4.1,16.3c-0.3,2.8-1,7.7,3.1,5.6c6.7-3.5,15.5-15.5,19.9-21.9
		C392.4,248.8,394.7,250.3,393.7,251.8z M372.8,243.7c-1.5,1.5-3.9,1.5-5.4,0s-1.5-4.1,0-5.6s3.9-1.5,5.4,0
		C374.3,239.6,374.3,242.2,372.8,243.7z"/>
	<path class="st3" d="M396.8,266.6c3.8,3.3,11.4-0.3,14.6-2.5c5.6-3.6,10.4-8.6,14-13.8c1-1.5,3.3,0,2.3,1.5
		c-3.6,5.3-8.6,10.5-14,14.1c-6.3,4.1-13.7,6.3-19.7,4.3c-6.1-2.1-7.6-7.9-6.3-14c1.2-4.9,4.9-8.6,9.7-9.7c2.6-0.7,9.7-0.7,9.2,3.5
		c-0.5,3.8-6.6,5.1-10,4.8C394.4,260.3,394.9,264.8,396.8,266.6z M403.2,250.8c1-0.8,1-1.6-0.3-1.6c-1.8,0-3.6,1.5-4.6,3
		C400,252.1,401.9,251.8,403.2,250.8z"/>
</g>
<text transform="matrix(0.9571 0 0 1 591.3232 544.5664)" class="st3" style="font-family:'Candire'; font-size:131.4031px;">Soy Leslie.</text>
<g>
	<path class="st3" d="M-367.2,52.4c0,1.9-0.7,3.7-2,5.4c-3.1,3.9-7.2,7.3-12.2,10.2c-5,2.9-10.2,5.1-15.6,6.6s-10.4,2.3-14.9,2.3
		c-4.2,0-7.5-0.6-9.9-1.9c-3.5-2-5.9-4-7.3-6.2c-1.4-2.1-2.1-4.7-2.2-7.7c0-1,0.2-1.9,0.6-2.5s1-0.9,1.6-0.9s1,0.2,1.3,0.7
		s0.4,1.1,0.3,1.8c-0.1,2.2,0.5,4.3,1.6,6.3s2.9,3.6,5.4,4.8c2.5,1.3,5.6,1.9,9.3,1.9c6.2,0,13-1.5,20.2-4.5c7.3-3,13-6.8,17.3-11.3
		c1.2-1.2,1.7-2.4,1.7-3.7c0-1.6-0.9-3-2.7-4.2c-1.8-1.3-4.3-2.1-7.5-2.6c-1.7-0.3-3.5-0.5-5.4-0.6s-4.5-0.3-7.6-0.4
		c-3.2-0.2-5.5-0.4-7.1-0.5c-9.6-0.9-17-2.5-22.3-5c-2.5-1.2-4.4-2.5-5.8-3.9s-2-2.9-2-4.4c0-1.9,0.9-3.7,2.6-5.3
		c1.7-1.6,3.9-2.9,6.6-4c4.4-1.7,9.1-2.9,14.1-3.7c5-0.8,9.8-1.2,14.7-1.2c2.8,0,5.5,0.1,8,0.4s4.8,0.7,6.9,1.3s3.9,1.3,5.3,2.1
		c3.3,1.9,5,3.9,5,6.1c0,1.7-1.1,3.2-3.3,4.6c-0.6,0.3-1.1,0.5-1.7,0.5c-0.5,0-1-0.2-1.4-0.5s-0.6-0.8-0.6-1.4c0-0.7,0.3-1.4,1-2.2
		s1-1.2,1-1.3c0-0.2-0.3-0.6-0.9-1.2c-1-1.1-2.5-2-4.6-2.8s-4.5-1.4-7.2-1.8c-2.8-0.4-5.7-0.6-8.9-0.6c-3.4,0-6.8,0.2-10.3,0.7
		S-413,23-416.2,24s-6,2-8.2,3.3c-1.1,0.6-1.9,1.2-2.6,2c-0.7,0.8-1,1.5-1,2.3c0,1.8,1.6,3.6,4.9,5.2c3.6,1.8,7.4,3,11.5,3.8
		c4,0.8,8.4,1.3,13.1,1.6s9.2,0.5,13.5,0.7c5.8,0.3,10.2,1.3,13.2,3C-368.8,47.6-367.2,49.8-367.2,52.4z"/>
	<path class="st3" d="M-326.2,58.7c-0.7,1.8-2,3.3-3.9,4.3c-1.9,1.1-4.1,1.6-6.5,1.6c-0.2,0-0.5-0.1-0.7-0.1s-0.5,0-0.8,0
		c-1.3,2.6-3.5,4.8-6.4,6.6c-2.9,1.8-5.9,2.7-8.9,2.7c-2,0-3.9-0.5-5.6-1.5s-2.9-2.4-3.8-4.1s-1.4-3.6-1.4-5.6c0-2.6,0.7-5,2.2-7.3
		s3.5-4.1,5.9-5.5c2.5-1.4,5.2-2.1,8.1-2.1c3,0,4.8,0.4,5.3,1.3v0.2c0.2,0.1,0.5,0.1,0.9,0.1c1.6,0,2.9,1,3.8,3s1.4,3.9,1.4,5.7
		c0,1.1-0.2,2.2-0.5,3.3c0.2,0.1,0.5,0.1,1,0.1c2.8,0,5.4-1.3,7.6-3.9c0.2-0.4,0.6-0.6,1.1-0.6s0.8,0.2,1,0.6
		C-326,57.8-326,58.2-326.2,58.7z M-341.7,63.3c-4.5-2.5-6.7-5.6-6.7-9.2c0-1.3,0.3-2.4,0.8-3.4c-2.7,0-5,0.5-6.9,1.6
		s-3.2,2.6-4.1,4.3c-0.9,1.8-1.4,3.6-1.4,5.5c0,2.3,0.7,4.3,2.2,6c1.4,1.7,3.3,2.6,5.5,2.6c2,0,4-0.8,6.1-2.3
		C-344.2,67-342.7,65.3-341.7,63.3z M-340.2,57.8c0-1.2-0.3-2.1-0.8-3c-0.5-0.8-1.2-1.4-1.9-1.8c-0.1,0-0.2,0-0.3-0.1h-0.3
		c-0.9,0-1.3,0.7-1.3,2c0,0.9,0.4,1.9,1.1,2.9s1.7,1.8,3.1,2.6C-340.3,59.4-340.2,58.6-340.2,57.8z"/>
	<path class="st3" d="M-291.3,57.8V58c0,1.6-1.9,3.9-5.6,7c-3.7,3-7,5.4-9.8,7.3c-0.1,0-0.2,0.1-0.2,0.1v0.1
		c2.8,8.8,4.3,15.7,4.3,20.7c0,3.3-0.6,6-1.8,8.1c-1.2,2.1-2.9,3.6-5.1,4.6s-4.9,1.4-8.2,1.4c-4.3,0-7.9-0.9-10.9-2.8
		s-4.5-4.8-4.5-8.8c0-2.4,0.7-4.9,2.2-7.5s3.8-5.4,7.1-8.3c3.3-2.9,7.3-5.7,12.2-8.4l0.1-0.1v-0.1l-0.2-0.6
		c-0.2-0.7-0.5-1.8-0.9-3.5c-2.3,2-4.6,3.5-6.8,4.5c-2.2,1-4,1.5-5.6,1.5c-1.8,0-3.3-0.6-4.5-1.7s-1.9-2.6-1.9-4.4
		c0-1.3,0.4-3.4,1.3-6.2s2-5.3,3.2-7.4c1.3-2.1,2.5-3.2,3.7-3.2c0.9,0,1.4,0.4,1.4,1.3c0.1,0.8-0.4,1.6-1.3,2.2
		c-3.1,4.9-4.7,8.9-4.7,12.1c0,2.4,1.3,3.6,4,3.6c1.8,0,3.7-0.6,5.7-1.9s3.6-2.8,4.9-4.6c-0.1-0.5-0.1-1.2-0.1-2.1
		c0-5,1.1-8.7,3.3-11.3c0.5-0.6,1.1-0.9,1.7-0.9c1.2,0,1.8,1.2,1.8,3.7c0,1.3-0.2,2.9-0.7,4.9s-1,3.5-1.6,4.5
		c-0.5,1-0.2,3.4,0.8,7.3V69c2.3-1.4,4.3-2.7,6.1-4.1c1.8-1.4,3.4-2.7,4.7-4.1c1.4-1.4,2.4-2.6,2.9-3.6c0.4-0.8,0.9-1.1,1.5-1.1
		c0.5,0,0.8,0.2,1,0.5S-291.3,57.3-291.3,57.8z M-306.1,94.2c0-5-1.5-11.6-4.4-19.9c-6.3,3.4-11,7-14,10.7s-4.6,7.2-4.6,10.4
		c0,2.2,0.6,3.9,1.9,5.2c1.3,1.3,2.9,2.2,4.8,2.7s4,0.8,6.1,0.8c3.5,0,6.1-0.8,7.8-2.3S-306.1,97.7-306.1,94.2z"/>
	<path class="st3" d="M-193,70c0,0.4-0.2,0.9-0.6,1.4c-4.3,4.3-10.7,6.5-19.3,6.5c-6.4,0-13.3-1.1-20.8-3.3c-3,5.7-7.5,8.5-13.5,8.5
		c-3.8,0-7.7-1.1-11.5-3.4c-3.8-2.2-6.8-5-9-8.2c-1.2-1.6-1.7-3.3-1.7-5.1c0-1.8,0.6-3.2,1.7-4.1c1.2-1,2.6-1.5,4.5-1.5
		c1.6,0,3.5,0.3,5.8,0.9c2.2,0.6,4.6,1.4,7.2,2.4c2.6,1,5.1,2,7.5,2.9c2.4,1,4.6,1.8,6.5,2.5c0.1,0.1,0.2,0.1,0.3,0.1l0.1-0.1
		c0.7-1.8,1.5-5.4,2.3-10.6c0-0.1,0.2-1.3,0.5-3.5s0.7-4.4,1-6.5s0.4-3.4,0.4-3.7c-4.6-1.3-8.2-2.4-10.9-3.3c-2.6-0.9-5.4-2.2-8.4-4
		c-2.9-1.8-5.4-4-7.2-6.8c-1.9-2.8-2.8-6-2.7-9.7c0-1.9,0.6-3.4,1.7-4.3s2.6-1.4,4.5-1.4c1.3,0,2.8,0.3,4.8,0.8
		c1.9,0.5,2.9,1.3,2.9,2.3s-0.7,1.4-2.2,1.4c-0.4,0-1.1-0.1-2.3-0.4c-1.1-0.3-2-0.4-2.7-0.4c-1,0-1.7,0.3-1.9,0.8
		c-0.3,0.6-0.4,1.4-0.4,2.6c0,2.7,1.1,5.5,3.3,8.2s5.2,5,9.2,6.9c3.9,1.9,8.2,3.2,12.9,3.8h0.1v-0.1c0.8-2.6,1.7-5.5,2.8-8.7
		s2.3-6.3,3.8-9.3c1.5-2.9,3.5-5.5,5.9-7.6s5.3-3.1,8.6-3.1c2.3,0,4.5,0.6,6.5,1.8c2,1.2,3.7,2.8,5,4.8s1.9,4.1,1.9,6.3
		c0,2.7-0.9,5.4-2.7,8.2c-1.8,2.7-4.3,5-7.5,6.9c-2.7,1.6-5.7,2.7-8.9,3.5c-3.3,0.8-7.1,1.2-11.3,1.2h-0.6l-0.1,0.1V46
		c-0.3,1.9-0.8,4.5-1.4,7.8c-0.6,3.4-1.2,6.6-1.8,9.6c-0.6,3-1.2,5.4-1.7,7.1v0.1h0.2c3.9,1.4,7.5,2.4,10.7,3
		c3.3,0.6,6.3,0.9,9.2,0.9c6.6,0,12-1.8,16.4-5.5c0.4-0.4,0.9-0.6,1.5-0.6c0.4,0,0.8,0.1,1,0.4C-193.1,69.2-193,69.5-193,70z
		 M-237.1,73.3c-4.3-1.5-8.8-3-13.4-4.6c-4.6-1.6-8.8-2.7-12.6-3.3c-0.9-0.1-1.5,0-1.9,0.3c-0.4,0.4-0.6,0.8-0.6,1.2
		c0,0.3,0.1,0.5,0.2,0.8c1,1.9,2.5,3.9,4.6,5.8s4.4,3.6,7,4.8c2.6,1.3,5,1.9,7.3,1.9c4,0,7.1-2.2,9.3-6.7L-237.1,73.3z M-200.7,25.9
		c0-1.6-0.4-3.1-1.2-4.6s-1.9-2.7-3.3-3.5c-1.4-0.9-2.9-1.3-4.5-1.3c-3.3,0-6.5,2.1-9.7,6.2s-5.6,10.6-7.3,19.5c0.7,0,1.2,0,1.6,0
		c0.4,0,0.9,0,1.3,0.1c6.1,0,11.4-1.5,15.8-4.4c2.4-1.6,4.3-3.5,5.5-5.6C-201.3,30.2-200.7,28.1-200.7,25.9z"/>
	<path class="st3" d="M-168.2,58.6c-1,1.9-2.3,3.8-4.1,5.6c-1.7,1.8-3.6,3.2-5.7,4.3c-2.1,1.1-4.1,1.6-6.1,1.6
		c-3.2,0-5.7-1.2-7.5-3.5s-2.8-5.1-2.8-8.3c0-2.2,0.5-4.5,1.4-6.9s2.3-4.4,4-6s3.7-2.4,5.9-2.4c1.6,0,2.7,0.5,3.5,1.4
		c0.8,1,1.2,2.2,1.2,3.8c0,2.6-1.2,5.3-3.6,7.9c-2.4,2.6-5.3,3.8-8.6,3.6c0.3,2,1.1,3.6,2.3,4.8c1.2,1.2,2.8,1.8,4.7,1.8
		c2.2,0,4.5-0.9,7-2.6s4.5-3.9,6-6.6c0.1-0.1,0.2-0.3,0.4-0.5c0.3-0.2,0.6-0.3,0.8-0.3c0.5,0,0.9,0.2,1.2,0.7
		C-167.9,57.5-167.9,58-168.2,58.6z M-181.6,49.5c0-0.8-0.2-1.6-0.6-2.3c-0.4-0.7-1-1.1-1.6-1.1h-0.4l-0.6,0.2
		c-1.4,0.3-2.7,1.4-3.8,3.3c-1.1,1.9-1.7,3.9-1.8,6.1c0.5,0.3,1.2,0.4,2,0.4c1.1,0,2.2-0.3,3.3-1s2-1.5,2.7-2.6
		C-181.9,51.4-181.6,50.4-181.6,49.5z"/>
	<path class="st3" d="M-144.6,56.7L-144.6,56.7c0,1.8-0.5,3.3-1.5,4.6c-1,1.4-2.5,2.9-4.4,4.7c-1.9,1.8-3.2,3-3.8,3.7
		c-0.8,1.5-2,2.6-3.6,3.4s-3.2,1.2-4.9,1.2c-1.5,0-3.1-0.4-4.9-1.2c-1.8-0.8-2.7-1.9-2.7-3.3c0-0.6,0.2-1,0.7-1.3s0.9-0.3,1.4,0
		c1.6,1,3.2,1.4,4.8,1.4c2.3,0,4.4-0.7,6.3-2c0.2-0.2,0.4-0.7,0.6-1.4c0.2-0.7,0.2-1.2,0.2-1.5c0-1.8-0.9-3.6-2.7-5.4
		c-1.8-1.8-3.9-3.7-6.4-5.6c-1.7,3.9-3.1,5.9-4.1,5.9c-0.5,0-0.9-0.3-1-0.9c-0.1-0.6-0.1-1.1,0.1-1.5c0.4-1,0.7-1.8,1-2.4
		c0.3-0.6,0.5-1.2,0.8-1.7c0.2-0.5,0.5-1.2,0.9-2c-0.5-1.1-0.8-2.3-0.8-3.6c0-1.5,0.3-2.9,1-4.4s1.6-2.6,2.8-3.3
		c0.4-0.3,0.8-0.5,1.2-0.5c1,0,1.5,0.5,1.7,1.5c0.1,1,0.1,2.1-0.2,3.3s-0.6,2.4-1,3.6c-0.4,1.2-0.6,1.9-0.7,2.2c0,0,1,1,3.1,2.9
		c2,1.9,3.2,3,3.4,3.3c3,3.3,4.4,6.1,4.2,8.5c1-0.9,2.2-2.1,3.5-3.7s2.3-3.1,2.9-4.4c0.3-0.5,0.6-0.8,0.9-0.9
		c0.3-0.1,0.7-0.1,0.9,0.1C-144.7,56.1-144.5,56.4-144.6,56.7z"/>
	<path class="st3" d="M-125,59.5c-0.6,2.4-1.6,4.6-2.9,6.5c-1.3,1.9-2.8,3.4-4.5,4.4s-3.4,1.5-5.1,1.5c-2.6,0-4.7-1-6.3-2.9
		c-1.5-1.9-2.6-4.3-3.1-7s-0.8-5.4-0.8-8c0-2.9,0.2-5.9,0.6-9c0.4-3.1,1.1-6.3,2-9.6s1.9-6.1,3-8.5s2.3-4.2,3.5-5.5
		c1.1-1.2,2.3-1.7,3.6-1.7c1.5,0,2.7,0.7,3.5,2.2s1.2,2.9,1.2,4.5c0,3.3-1.1,7.7-3.4,13.2c-2.3,5.5-5.4,11.3-9.5,17.3l-0.2,0.3
		c-0.6,0.9-0.6,2.2,0.1,4s1.6,3.4,3,4.8c1.3,1.4,2.7,2.2,3.9,2.2c1.9,0,3.3-0.7,4.4-2c1-1.4,2.1-3.3,3.3-5.7
		c1.2-2.4,2.1-3.7,2.8-3.7C-124.9,56.9-124.5,57.8-125,59.5z M-133.7,27.5c0-0.3,0-0.8-0.1-1.4s-0.3-1.2-0.5-1.7
		c-0.3-0.5-0.6-0.7-1-0.7c-0.5,0-1,0.3-1.4,0.8c-1.3,1.3-2.6,3.4-3.7,6.2c-1.1,2.8-2,6.1-2.6,9.7c-0.6,3.7-0.9,7.6-0.9,11.8v0.5
		c2.9-4.1,5.3-8.5,7.3-13.3C-134.7,34.6-133.7,30.6-133.7,27.5z"/>
	<path class="st3" d="M-107.3,57.8c0,0.4-0.1,0.7-0.3,1c-1.2,3.1-3.1,6.1-5.9,9s-5.7,4.4-8.6,4.4c-4,0-6-2.9-6-8.7
		c0-2.6,0.4-6.2,1.2-10.7c0.1-0.2,0.1-0.5,0.2-0.9s0.1-0.8,0.2-1c0.1-0.3,0.2-0.5,0.4-0.8c0.2-0.3,0.4-0.5,0.7-0.7
		c0.4-0.3,0.9-0.5,1.3-0.5c0.6,0,1,0.2,1.3,0.7c0.3,0.4,0.4,1.1,0.2,2c-1.2,5.5-1.8,9.4-1.8,11.7c0,3.6,1.1,5.4,3.4,5.4
		c1.4,0,3.1-1,5.2-3c2-2,4-4.7,5.8-8.1c0.2-0.7,0.7-1,1.4-1c0.4,0,0.7,0.1,0.9,0.4C-107.4,57.1-107.3,57.4-107.3,57.8z M-119.8,41.5
		c0,0.9-0.2,1.7-0.6,2.5s-0.9,1.4-1.6,2c-0.7,0.5-1.5,0.8-2.4,0.8c-1,0-1.8-0.4-2.3-1.2c-0.3-0.6-0.3-1.5,0.1-2.9s0.7-2.3,1.2-2.9
		c0.9-1.2,1.9-1.7,3-1.7c0.9,0,1.5,0.4,2,1.1C-120,39.8-119.8,40.6-119.8,41.5z"/>
	<path class="st3" d="M-84.2,58.6c-1,1.9-2.3,3.8-4.1,5.6c-1.7,1.8-3.6,3.2-5.7,4.3c-2.1,1.1-4.1,1.6-6.1,1.6
		c-3.2,0-5.7-1.2-7.5-3.5s-2.8-5.1-2.8-8.3c0-2.2,0.5-4.5,1.4-6.9s2.3-4.4,4-6s3.7-2.4,5.9-2.4c1.6,0,2.7,0.5,3.5,1.4
		c0.8,1,1.2,2.2,1.2,3.8c0,2.6-1.2,5.3-3.6,7.9c-2.4,2.6-5.3,3.8-8.6,3.6c0.3,2,1.1,3.6,2.3,4.8c1.2,1.2,2.8,1.8,4.7,1.8
		c2.2,0,4.5-0.9,7-2.6s4.5-3.9,6-6.6c0.1-0.1,0.2-0.3,0.4-0.5c0.3-0.2,0.6-0.3,0.8-0.3c0.5,0,0.9,0.2,1.2,0.7
		C-83.8,57.5-83.9,58-84.2,58.6z M-97.5,49.5c0-0.8-0.2-1.6-0.6-2.3s-1-1.1-1.6-1.1h-0.4l-0.6,0.2c-1.4,0.3-2.7,1.4-3.8,3.3
		c-1.1,1.9-1.7,3.9-1.8,6.1c0.5,0.3,1.2,0.4,2,0.4c1.1,0,2.2-0.3,3.3-1c1.1-0.7,2-1.5,2.7-2.6C-97.9,51.4-97.5,50.4-97.5,49.5z"/>
</g>
<text transform="matrix(1 0 0 1 6.3285 478.0865)" class="st3" style="font-family:'Allura-Regular'; font-size:112.2778px;">Soy</text>
<text transform="matrix(1 0 0 1 158.9285 478.0865)" class="st3" style="font-family:'GLYPHICONSHalflings-Regular'; font-size:112.2778px;"> </text>
<text transform="matrix(1 0 0 1 271.2285 478.0865)" class="st3" style="font-family:'Allura-Regular'; font-size:112.2778px;">Leslie</text>
</svg>
