<?xml version="1.0" encoding="utf-8"?>
<!-- Generator: Adobe Illustrator 22.0.0, SVG Export Plug-In . SVG Version: 6.00 Build 0)  -->
<svg version="1.1" id="Capa_1" xmlns="http://www.w3.org/2000/svg" xmlns:xlink="http://www.w3.org/1999/xlink" x="0px" y="0px"
	 viewBox="0 0 347 158" style="enable-background:new 0 0 347 158;" xml:space="preserve">
<style type="text/css">
	.st0{fill:#39A488;}
</style>
<path id="bezier" class="st0" d="M115.9,228.5c0-1.4-0.3-3.4-1.7-4.2c-0.8-0.6-2.2-0.6-3.4-0.6c-1.4,0.3-3.4,0-4.5,1.4
	c-0.6,0.6-0.8,1.7-1.1,2.5c-0.6,2-1.1,3.9-1.4,5.6c-1.1,5.3-2.2,10.4-2.8,15.7c-2.8,16.8-4.5,33.9-5.3,51
	c-1.1,23.5-1.7,47.3-0.8,71.1c-0.8-0.8-1.4-1.4-2.2-2.2c-2.5-2.2-5-4.8-7.3-7.6c-9.2-9.8-17.4-20.4-24.9-31.6
	c-12-17.1-22.7-35.6-30.2-55.4c-2.2-6.4-4.2-12.9-5.6-19.6c-0.3-2.2-0.6-4.2-0.8-6.4c-0.3-2-0.8-4.5-2.8-5h-0.3l1.4-8.4
	c0.3-2,0.8-3.9,0.8-6.2c0.3-1.4-0.3-3.4-1.4-4.2c-1.1-0.6-2.2-0.6-3.4-0.6c-1.7,0.3-3.6,0-4.5,1.4c-0.8,0.6-1.1,1.7-1.4,2.5
	c-0.6,2-0.8,3.9-1.4,5.6c-1.1,5.3-2,10.4-2.8,15.7c-2.5,16.8-4.2,33.9-5,51c-1.4,24.9-2,49.6-0.8,74.5c0,1.1,0.6,2.5,1.4,2.8
	c1.4,0.3,3.6-0.8,3.9-2.2c0.6-2.5,0.3-5.3,0.6-7.8c0-4.8,0.3-9.5,0.6-14.3c1.1-17.4,2.2-35,3.9-52.4c1.1-10.6,2.5-21,3.9-31.6
	c2.8,9.2,7,18.2,11.5,26.9c9,17.1,20.2,33.3,32.5,48.2c9.8,11.8,19.9,23.2,32.2,32.5c0.8,0.3,2.2,1.1,3.1,0.3l0,0
	c0.3,0.3,0.6,0.3,0.8,0.6c1.4,0.3,3.6-0.8,3.9-2.2c0.6-2.5,0.3-5.3,0.3-7.8c0.3-4.8,0.6-9.5,0.8-14.3c0.8-17.4,2.2-35,3.9-52.4
	c1.4-16.5,3.9-33,6.4-49.6c1.1-5.3,2-10.9,2.8-16.2C115.3,232.7,115.6,230.7,115.9,228.5z"/>
<path id="bezier2" class="st0" d="M188.9,344.4c-1.7-0.6-3.6,0.3-5,0.8c-3.9,2.5-15.1,4.5-22.4,3.6c1.4-4.5,1.7-8.1,1.7-12.6
	c0-5.3-1.1-11.2-5.3-15.4c-2.8-3.1-8.1-5.3-12.9-5c-3.4,0-7,1.7-8.7,3.9c-1.4,2-2.2,4.2-2.5,6.4c0,0.3-0.3,0.3-0.3,0.3
	c-3.4,1.4-5.3,4.2-7.6,6.7c-4.5,5.9-7.8,12.9-7.8,19.6c0,5.6,1.7,12,6.2,16.5c2.8,2.8,7.8,4.8,12.3,4.8c7,0,13.7-5,17.4-9.8
	c2.5-3.4,4.5-6.7,5.9-10.6c1.7,0.3,3.4,0.6,5,0.6c7.8,0,16-2.8,22.1-6.4c0.3-0.3,0.6-0.6,1.1-0.8
	C188.7,346.1,190.1,344.7,188.9,344.4z M155.9,336c0,3.6-0.8,7.6-2,11.2c-1.7-0.8-3.1-1.4-4.5-2.5c-3.9-2.8-5.6-7.3-7.3-11.5
	c-1.1-2.5-1.1-5.3-0.3-7.8c0.3-1.7,2-3.4,3.9-3.1c2.8,0,5.6,1.1,7,2.8C155.6,328.2,155.9,332.4,155.9,336z M152.8,352.2
	c-1.1,2.2-2.2,4.5-3.6,6.7c-2.8,3.9-7.3,8.7-12.6,8.7c-2.8,0-5.3-1.7-7-3.4c-2.5-3.4-3.4-7.6-3.4-11.5c0.3-5.6,3.1-11.5,6.7-16.2
	c0.8-0.8,1.4-1.7,2.2-2.5c0,0.3,0,0.6,0.3,0.8c2.5,5,5,10.6,10.1,14.3C147.5,350.6,150,351.7,152.8,352.2z"/>
<path id="bezier3" class="st0" d="M246.1,289.5c0.3-0.8-0.3-2.2-1.4-2.8c-0.6-0.6-1.7-0.3-2.5-0.3l-3.9-0.3l-21.8-1.1l-16-0.8
	l0.8-4.5c0.3-2,0.6-4.2,1.1-6.2c0.3-1.7,0.3-3.6-1.1-4.8c-0.6-0.6-1.7-0.6-2.5-0.3c-1.4,0.3-3.1,0.3-3.6,1.4
	c-0.8,1.1-1.1,2.8-1.4,3.9c-0.6,2.2-1.1,4.5-1.7,6.7l-0.6,3.4l-23.2-1.1c-5.3-0.3-10.6-0.6-16-0.8c-2,0-3.6,0-5.6,0
	c-1.4-0.3-3.1,0.3-3.6,1.7c-0.3,0.8-0.3,1.7,0,2.5c0.3,1.1,0.3,2.8,1.4,3.4c0.8,0.8,2.2,0.8,3.6,0.8c2.5,0.3,5,0.6,7.6,0.6
	c7.6,0.6,15.4,0.6,23,0.6l11.2,0.3c-0.6,3.6-1.4,7.6-2,11.2c-1.7,10.1-3.4,20.2-3.9,30.2c-0.6,8.4-0.8,16.8,0.6,24.9
	c1.1,5.6,3.1,11.5,7.3,15.4c3.4,3.4,8.4,4.8,13.2,4.8c5.6,0,11.2-3.4,15.7-7c7.3-6.2,12.3-14.8,16-23.5c0.3-1.1,0.6-2.5-0.3-3.4
	c-0.8-0.6-2.2,0-3.4,0.8c-0.8,0.6-0.8,1.7-1.4,2.5c-1.1,2.2-2.2,4.2-3.4,6.2c-3.4,5.3-7.3,10.1-12.3,14c-3.1,2.2-7,4.2-10.9,4.2
	c-3.6,0-7.8-2-9.8-5c-3.9-5.6-3.9-13.2-3.9-20.2c0-16.2,3.4-32.8,6.4-48.7l1.1-6.4c15.4,0,30.5-0.3,45.6-0.8
	C244.9,290.6,245.8,290.4,246.1,289.5z"/>
<path id="bezier4" class="st0" d="M292.5,341.3c0-0.6,0-1.4-0.3-1.7c-0.3-0.3-0.6-0.6-1.1-0.3c-2.2,0.3-3.6,2.8-4.8,4.8
	c-1.4,2.5-2.8,5-4.2,7.6c-3.6,5.6-8.1,10.6-13.4,14.6c-3.9,2.8-7.8,3.9-12.9,3.6c-5.6,0-11.8-2-15.7-5.9c5.3-4.5,10.1-9.5,14-15.1
	c4.8-7,9.2-14.6,10.9-23c0.3-2.5-0.6-5.6-2.2-7.6c-2.5-3.4-7.3-5.6-11.5-5.6c-5.3,0-10.4,3.6-14,7.6c-6.4,7.3-10.6,17.4-10.6,27.2
	c0,17.4,11.5,29.7,29.1,29.4c7.6-0.3,14.8-3.9,20.4-9c6.7-6.7,11.5-15.7,15.4-24.4C292,342.7,292.3,342.2,292.5,341.3z M257.3,324.5
	c-1.1,8.1-5.6,15.7-10.4,22.4c-2.8,4.5-6.2,8.4-9.8,12c-1.7-3.4-2.5-7.6-2.2-11.5c0-6.7,2.8-13.4,6.4-19c2.5-3.4,5.9-7.6,10.1-7.8
	c1.7,0,3.4,0.8,4.5,1.7C256.7,322.8,257.5,323.7,257.3,324.5z"/>
<path id="bezier5" class="st0" d="M344.9,359c-0.3-0.8-1.7-1.4-2.5-1.4s-1.4,1.1-2,1.7c-1.4,1.1-2.5,2.2-3.9,3.1
	c-5.3,3.6-11.5,6.2-17.6,7.3c-0.8,0-1.7,0.3-2.5,0.3c2.5-3.6,3.6-8.1,3.9-12.6c0.3-8.1-3.1-16.2-7-23.2c-1.1-2.5-2.8-5-4.2-7.3
	c-0.6-0.6-1.1-1.4-1.7-2c0.6-1.4,1.7-3.1,2-4.8c0-0.8-0.6-2-1.4-2.5c-0.6-0.3-1.4-0.6-2.2-0.6c-1.1-0.3-2.8-0.8-3.9-0.3
	c-2,1.7-2.2,4.8-3.4,7.3c-1.7,4.2-10.6,27.7-14.3,34.4c-0.6,0-0.8,0-1.1,0c-0.8,0.8-1.4,2-1.4,3.1c0,0.8,1.1,1.4,2,2.2
	c1.1,1.1,1.1,1.4,2.2,2.5c2.8,3.1,5.3,5.6,9,7.6c3.1,1.4,6.4,2.2,9.5,2.5c0.3,0,0.6,0,0.8,0c6.2,0.6,12.3,0,18.2-2
	c8.1-2.5,16-7.6,21.3-14.3C344.9,359.8,345.2,359.2,344.9,359z M312.1,357.3c0,3.4-0.6,6.7-2.5,9.5c-1.1,1.7-3.4,2.8-5.3,2.8
	c-3.1,0-6.2-0.6-8.7-2.2c-3.1-1.4-5.6-3.9-7.8-6.2c5.6-8.1,10.6-16.5,14.6-25.5l0.8-1.7c0.8,1.4,1.7,2.8,2.2,4.2
	C308.8,344.1,311.9,350.6,312.1,357.3z"/>
<g>
	<path class="st0" d="M43.3,36.4c1.7,0.1,3.3,0.3,4.9,0.7c1.8,0.5,3.4,1.4,4.7,2.8c0.5,0.6,0.7,1.2,0.7,1.8c0,1.3-0.9,2.3-2.1,2.3
		c-0.5,0-0.9-0.2-1.4-0.5c-1-0.7-2.2-1.4-3.4-1.8c-1.2-0.5-2.7-0.7-4.2-0.7c-4.5,0-8.6,1.9-12.3,5.6c-3.7,3.8-6.9,8.4-9.7,13.8
		s-5.1,12.1-7,19.9c-1.9,7.9-3.1,14.2-3.6,19c-0.5,4.8-0.7,8.8-0.7,12c0,10.9,2.5,17,7.1,21.4c2.3,2.2,5.1,3.3,8.3,3.3
		c6.9-0.1,12.9-2.4,17.9-7.1c5-4.6,8.7-9.7,11-15.3c0.6-0.5,1.1-0.7,1.7-0.7c1,0.1,1.6,1,1.6,2c0,0.3-0.1,0.8-0.4,1.3
		c-1.9,5.8-5.7,11.3-11.4,16.6c-5.6,5.2-12.5,7.9-20.5,7.9c-5.9,0-10.6-1.4-13.9-4.3c-3.4-2.9-5.7-6.3-7.1-10.2
		c-1.4-3.9-2.1-8.7-2.1-14.5c0-11.3,1.5-21.6,4.5-30.9c2.9-9.4,6-16.9,9.2-22.6c3.1-5.7,6.9-10.7,11.5-14.9s9.8-6.5,15.7-6.7H43.3z"
		/>
	<path class="st0" d="M64.3,118.4c0-10.9,4.2-22.4,16.8-22.3c2.3,0,4.2,0.5,5.7,1.7c1.5,1.2,2.3,2.4,2.3,3.6
		c-0.1,1.2-0.6,1.9-1.7,2.2c-0.6,0-1.2-0.3-1.7-1c-1.3-1.6-2.8-1.9-4.7-1.9c-4.2,0-6.9,4-8.2,9.1c-0.6,2.5-0.9,5.4-0.9,8.7
		c0,6.6,1.2,9.8,4.1,9.8c2.2,0,4.2-1.4,6.1-4.3c1.8-2.8,3.2-5.8,4-8.8c0.8-3.1,1.2-5.8,1.2-8.3c0-1.3,1-2,2.9-2.1
		c1.8,0,2.7,0.7,2.7,2c0,3.9-0.8,7.9-2.3,11.9c-1.5,4-3.8,7.4-6.7,10.1c-3,2.7-5.7,4.1-8.1,4.1C68,132.9,64.3,127.4,64.3,118.4z"/>
	<path class="st0" d="M105.6,133.4c-2.3,0-4.2-0.9-5.7-2.6c0.3-4.4,0.8-8.6,1.3-12.8c0.5-4.1,1.4-9.4,2.7-16c0.5-1.4,2-2.2,4.7-2.2
		c1.9,0.3,3,1.2,3.1,2.6c-0.6,1.4-2,6.9-4,16.6c6.3-12.7,11.4-19,15.3-19c3,0,4.7,1.2,5,3.7c0.2,1.4,0.4,4.1,0.6,8.3
		c0.2,4.1,0.5,7.6,1,10.4c0.5,2.8,1.4,4.3,2.7,4.3c1.7,0,4.9-2.7,9.5-8.1c4.7-5.4,8.1-9.4,10.2-11.9c0.3-0.3,0.8-0.5,1.4-0.5
		c1,0,1.8,0.7,1.8,1.8c0,0.4-0.2,0.9-0.6,1.4c-1.9,2.5-4.5,5.5-7.5,9.1c-3.1,3.6-5.8,6.6-8.2,9.1c-2.3,2.5-4.5,3.7-6.7,3.7
		c-6.4,0-9.1-5-10.1-12.6c-0.5-3.9-0.8-7.6-0.9-11.3C119,107.7,114,116.3,105.6,133.4z"/>
	<path class="st0" d="M171.8,77.8c-4.7,12.1-9.6,20.5-15.4,28.8c0.3,6.2,1.5,11.3,3.7,15.1c2.2,3.9,4.2,5.8,6.1,5.8
		c4.4,0,9.3-4.8,14.3-11.3c2.5-3.3,5.4-6.9,8.7-11c0.3-0.3,0.8-0.5,1.4-0.5c1,0,1.8,0.7,1.8,1.8c0,0.4-0.2,0.9-0.6,1.4
		c-2.5,3.5-4.8,6.5-6.8,9.2c-2,2.8-4.7,5.9-8.3,9.5c-3.6,3.6-7,5.4-10.3,5.4c-4.7,0-8.4-1.6-11-4.6c-2.8-3.1-4.7-6.6-5.6-10.6
		c-0.1-0.5-0.3-0.9-0.3-1.4c-0.5,0.6-1,1.2-1.6,1.8c-0.4,0.3-0.8,0.5-1.4,0.5c-1-0.1-1.6-0.9-1.6-2c0.1-0.4,0.3-0.9,0.7-1.4
		c1-1.2,2.1-2.3,3.1-3.4c-0.2-1.7-0.3-3.3-0.3-4.9c0-7.8,0.4-14.9,1.2-21.4c0.5-3.7,1.1-7.7,1.9-11.8l-2.9,0.3
		c-7.9,1.2-13.1,2.2-15.7,3.3c-2.5,1-4.2,1.6-4.7,1.6c-1.6,0-2.5-0.7-2.5-2.3c0.1-1.3,0.8-2.1,2-2.5c2.5-1.2,6.3-2.2,11.5-3.1
		c2.4-0.5,5.9-0.9,10.5-1.4l2.9-0.3c0.4-1.6,0.8-3.1,1.3-4.7c2.1-7.6,5.2-14.8,9.3-21.6c4.1-6.8,8.3-10.2,12.6-10.2
		c3.4,0,5.5,3.4,5.5,8.3c-0.1,5.8-1.1,12-2.9,18.7c-0.7,2.6-1.5,5.3-2.3,7.8c2.3-0.1,4.9-0.1,7.9-0.1c3.8,0,7.6,0.1,11.2,0.4
		c1.1,0.1,1.8,0.7,1.9,2c-0.1,1.4-0.7,2.1-1.9,2.1c-3.7-0.2-7.5-0.3-11.2-0.3c-3,0-6,0.1-9.2,0.2C173.4,73.3,172.6,75.6,171.8,77.8z
		 M158.9,72.5c-1.1,4.4-1.9,8.6-2.3,12.6c-0.6,6.3-1,11.5-1,15.6c1.2-1.7,3.1-4.6,5.3-8.9c2.3-4.3,4.5-9.2,6.8-15
		c0.7-1.8,1.4-3.7,2.1-5.6C165.4,71.6,161.8,72,158.9,72.5z M168.8,67c0.7-0.1,1.6-0.1,2.5-0.1c0.8-2.8,1.7-5.7,2.5-8.8
		c1.8-6.7,2.7-12.6,2.7-17.7c0-2.6-0.5-3.9-1.5-3.9c-1.2,0-3.3,2.7-6.4,8.1c-3.2,5.4-5.3,10.1-6.4,14.1c-1.2,4.1-1.9,7.2-2.4,9.4
		C162.3,67.6,165.3,67.3,168.8,67z"/>
	<path class="st0" d="M222.1,129.4c-2.7,2.4-5.1,3.7-7.4,3.7c-2.4,0-5.1-0.9-7.9-2.7c-2.3,2.2-5.1,3.3-8.3,3.3
		c-9.2,0.1-14.2-6.4-13.8-14.5c0-7.3,2.2-13.7,7.2-18.6c2.5-2.4,5.6-3.6,9.2-3.6c3.8,0,6.9,1.5,9,4.3c0.1-0.5,0.3-1,0.7-1.4
		c0.5-0.4,1.4-0.6,2.9-0.6c3.9,0,4.2,0.9,4.2,2.2c0,0.3-0.5,1.9-1.3,4.7c-0.8,2.8-1.7,5.8-2.4,9c-0.8,3.2-1.2,6.2-1.2,9.1
		c0,2.5,0.6,4.3,1.9,4.3c2.1,0,5.7-2.7,10.6-8.1c4.9-5.4,9-10.1,12.3-14.2c0.3-0.3,0.8-0.5,1.4-0.5c1,0,1.8,0.7,1.8,1.8
		c0,0.4-0.2,0.9-0.6,1.4C233.9,117,227.5,124.6,222.1,129.4z M208.5,106.7c-1.8-3.5-4.7-5.2-7.7-5.2c-1.8,0-3.3,0.9-4.6,2.8
		c-1.4,1.9-2.3,4.1-3,6.6c-0.7,2.5-1,5.3-1,8.2c0,5.4,1.9,8.3,3.3,9.2c0.7,0.5,1.7,0.7,3.1,0.7c2.1,0,4.3-1.2,6.4-3.5
		C205.2,120.1,206.3,113.8,208.5,106.7z"/>
	<path class="st0" d="M267.9,126.9c-6.8,4.8-13.2,7.2-19,7.2c-9.5-0.1-16-5.1-15.6-15c-0.3-11.1,7.4-20.2,19.2-20.2
		c2.3,0,4.2,0.5,5.8,1.6s2.6,2.1,3.1,3.1c0.1,0.3,0.2,0.6,0.2,0.9c0,1.2-1,2.2-2.2,2.2c-0.6,0-1.2-0.3-1.8-0.9
		c-1.1-1.6-2.9-2.4-5.3-2.4c-6,0.3-11.9,6.5-11.6,15.7c-0.3,8.8,4.8,10.4,8.3,10.4c4.4,0,8.2-0.9,11.7-2.9c3.4-1.9,7.1-4.7,11.2-8.3
		c4-3.6,7.2-7,9.6-10.2c0.3-0.3,0.8-0.5,1.3-0.5c1,0,1.8,0.8,1.8,1.8c0,0.5-0.2,1-0.5,1.4C280,116.9,274.6,122.2,267.9,126.9z"/>
	<path class="st0" d="M302.5,77.8c-4.7,12.1-9.6,20.5-15.4,28.8c0.3,6.2,1.5,11.3,3.7,15.1c2.2,3.9,4.2,5.8,6.1,5.8
		c4.3,0,9.3-4.8,14.3-11.3c2.5-3.3,5.4-6.9,8.7-11c0.3-0.3,0.8-0.5,1.4-0.5c1,0,1.8,0.7,1.8,1.8c0,0.4-0.2,0.9-0.6,1.4
		c-2.5,3.5-4.8,6.5-6.8,9.2c-2,2.8-4.7,5.9-8.3,9.5c-3.6,3.6-7,5.4-10.3,5.4c-4.7,0-8.4-1.6-11-4.6c-2.8-3.1-4.7-6.6-5.6-10.6
		c-0.1-0.5-0.3-0.9-0.3-1.4c-0.5,0.6-1,1.2-1.6,1.8c-0.4,0.3-0.8,0.5-1.4,0.5c-1-0.1-1.6-0.9-1.6-2c0.1-0.4,0.3-0.9,0.7-1.4
		c1-1.2,2.1-2.3,3.1-3.4c-0.2-1.7-0.3-3.3-0.3-4.9c0-7.8,0.4-14.9,1.2-21.4c0.5-3.7,1.1-7.7,1.9-11.8l-2.9,0.3
		c-7.9,1.2-13.1,2.2-15.7,3.3c-2.5,1-4.2,1.6-4.7,1.6c-1.6,0-2.5-0.7-2.5-2.3c0.1-1.3,0.8-2.1,2-2.5c2.5-1.2,6.3-2.2,11.5-3.1
		c2.4-0.5,5.9-0.9,10.5-1.4l2.9-0.3c0.4-1.6,0.8-3.1,1.3-4.7c2.1-7.6,5.2-14.8,9.3-21.6c4.1-6.8,8.3-10.2,12.6-10.2
		c3.4,0,5.5,3.4,5.5,8.3c-0.1,5.8-1.1,12-2.9,18.7c-0.7,2.6-1.5,5.3-2.3,7.8c2.3-0.1,4.9-0.1,7.9-0.1c3.8,0,7.6,0.1,11.2,0.4
		c1.1,0.1,1.8,0.7,1.9,2c-0.1,1.4-0.7,2.1-1.9,2.1c-3.7-0.2-7.5-0.3-11.2-0.3c-3,0-6,0.1-9.2,0.2C304.1,73.3,303.3,75.6,302.5,77.8z
		 M289.6,72.5c-1.1,4.4-1.9,8.6-2.3,12.6c-0.6,6.3-1,11.5-1,15.6c1.2-1.7,3.1-4.6,5.3-8.9c2.3-4.3,4.5-9.2,6.8-15
		c0.7-1.8,1.4-3.7,2.1-5.6C296.1,71.6,292.5,72,289.6,72.5z M299.5,67c0.7-0.1,1.6-0.1,2.5-0.1c0.8-2.8,1.7-5.7,2.5-8.8
		c1.8-6.7,2.7-12.6,2.7-17.7c0-2.6-0.5-3.9-1.5-3.9c-1.2,0-3.3,2.7-6.4,8.1c-3.2,5.4-5.3,10.1-6.4,14.1c-1.2,4.1-1.9,7.2-2.4,9.4
		C293,67.6,296,67.3,299.5,67z"/>
	<path class="st0" d="M316.5,118.4c0-10.9,4.2-22.4,16.8-22.3c2.3,0,4.2,0.5,5.7,1.7c1.5,1.2,2.3,2.4,2.3,3.6
		c-0.1,1.2-0.6,1.9-1.7,2.2c-0.6,0-1.2-0.3-1.7-1c-1.3-1.6-2.8-1.9-4.7-1.9c-4.2,0-6.9,4-8.2,9.1c-0.6,2.5-0.9,5.4-0.9,8.7
		c0,6.6,1.2,9.8,4.1,9.8c2.2,0,4.2-1.4,6.1-4.3c1.8-2.8,3.2-5.8,4-8.8s1.2-5.8,1.2-8.3c0-1.3,1-2,2.9-2.1c1.8,0,2.7,0.7,2.7,2
		c0,3.9-0.8,7.9-2.3,11.9c-1.5,4-3.8,7.4-6.7,10.1c-3,2.7-5.7,4.1-8.1,4.1C320.1,132.9,316.5,127.4,316.5,118.4z"/>
</g>
</svg>
