<?xml version="1.0" encoding="utf-8"?>
<!-- Generator: Adobe Illustrator 22.0.0, SVG Export Plug-In . SVG Version: 6.00 Build 0)  -->
<svg version="1.1" id="Capa_1" xmlns="http://www.w3.org/2000/svg" xmlns:xlink="http://www.w3.org/1999/xlink" x="0px" y="0px"
	 viewBox="0 0 1478.6 583.3" style="enable-background:new 0 0 1478.6 583.3;" xml:space="preserve">
<style type="text/css">
	.st0{display:none;}
	.st1{display:inline;fill:#39A488;}
	.st2{fill:#39A488;}
</style>
<g id="group" class="st0">
	<path id="bezier" class="st1" d="M638.2,197.1c0-2.8,0.6-6.7-1.7-8.7c-0.8-0.8-2.5-0.6-3.4,0c-2,1.1-3.9,2-4.5,3.9
		c-2,4.5-2,9.5-2.8,14.3c-1.7,9.2-3.6,18.5-5.9,27.4c-5.6,23.5-12.3,46.8-23.5,68c-4.5,9-10.1,17.9-17.6,24.6
		c-4.8,4.2-11.2,7.6-17.6,7.6c-3.4,0.3-7.3-0.8-10.1-2.8c-3.9-2.8-6.7-7.3-8.7-11.5c-1.4-3.6-2.5-7.3-3.4-10.9
		c0.3-1.1,0.8-2.2,1.4-3.1c6.4-16.5,10.4-33.9,12.9-51.2c1.7-12.9,2.8-26,0-38.6c-0.3-1.1-0.6-2-0.8-3.1c-0.6-1.1-2.2-3.1-3.4-2.2
		c-0.3,0.6-0.6,1.1-0.8,2c-1.4,0-2.8,1.1-3.6,2c-1.1,1.4-1.7,3.1-2.2,4.8c-1.7,3.6-3.4,7.3-4.8,11.2c-5.3,14.8-8.7,30.5-9.2,46.5
		c-0.3,10.1,0.3,20.7,2,30.8c-0.6,1.4-1.1,2.8-2,3.9c-4.2,8.1-9.5,16-16.8,21.3c-3.9,2.8-9.2,5-14.3,4.8c-3.9,0-8.4-1.4-11.5-3.9
		c-5.6-4.2-9.2-10.6-11.8-17.1c-6.4-16-8.1-33.9-7.8-51.2c0-14.6,1.1-29.1,4.5-43.1c0.8-4.8,2.5-9.2,3.9-13.7c1.1-3.1,3.1-7,1.4-9.8
		c-0.6-1.1-2-1.4-3.1-1.4c-2,0.3-3.6,0.8-5.3,2c-0.6,0.3-1.1,1.4-1.4,2.2c-0.8,1.4-1.4,2.8-2,4.2c-2,4.5-3.6,9.5-4.8,14.3
		c-3.6,14.8-4.5,30.2-4.5,45.4c0,13.4,1.4,26.9,4.5,40c2,7.6,4.8,15.4,8.7,22.4c3.4,6.2,8.1,11.8,14.3,15.4
		c4.5,2.5,9.8,3.9,14.8,3.9c7.8,0,16-3.6,21.8-8.7c5.9-5,10.6-11.5,14.3-18.5c1.1,2.8,2.2,5.6,3.6,8.1c2.5,4.5,6.2,9,10.6,11.5
		c3.9,2.5,9,3.6,13.4,3.9c6.4,0,12.6-2,17.9-5.3c8.7-5,15.4-13.4,21-22.1c13.2-19.9,21-43.1,27.4-66.1c3.6-13.2,6.7-26.3,8.7-39.5
		C637,206.4,637.9,201.9,638.2,197.1z M548.8,225.4c0.3,8.7-0.6,17.6-2,26c-2,14.3-5.3,28.8-10.4,42.3c-0.6-5.6-0.6-11.2-0.8-16.5
		c0-19.6,4.8-39.5,12.6-57.4C548.6,221.8,548.8,223.4,548.8,225.4z"/>
	<path id="bezier2" class="st1" d="M693.6,313.3c-1.7-0.6-3.6,0.3-5,0.8c-3.9,2.5-15.1,4.5-22.4,3.6c1.4-4.5,1.7-8.1,1.7-12.6
		c0-5.3-1.1-11.2-5.3-15.4c-2.8-3.1-8.1-5.3-12.9-5c-3.4,0-7,1.7-8.7,3.9c-1.4,2-2.2,4.2-2.5,6.4c0,0.3-0.3,0.3-0.3,0.3
		c-3.4,1.4-5.3,4.2-7.6,6.7c-4.5,5.9-7.8,12.9-7.8,19.6c0,5.6,1.7,12,6.2,16.5c2.8,2.8,7.8,4.8,12.3,4.8c7,0,13.7-5,17.4-9.8
		c2.5-3.4,4.5-6.7,5.9-10.6c1.7,0.3,3.4,0.6,5,0.6c7.8,0,16-2.8,22.1-6.4c0.3-0.3,0.6-0.6,1.1-0.8
		C693.3,315,694.7,313.6,693.6,313.3z M660.6,304.9c0,3.6-0.8,7.6-2,11.2c-1.7-0.8-3.1-1.4-4.5-2.5c-3.9-2.8-5.6-7.3-7.3-11.5
		c-1.1-2.5-1.1-5.3-0.3-7.8c0.3-1.7,2-3.4,3.9-3.1c2.8,0,5.6,1.1,7,2.8C660.3,297.1,660.6,301.3,660.6,304.9z M657.5,321.2
		c-1.1,2.2-2.2,4.5-3.6,6.7c-2.8,3.9-7.3,8.7-12.6,8.7c-2.8,0-5.3-1.7-7-3.4c-2.5-3.4-3.4-7.6-3.4-11.5c0.3-5.6,3.1-11.5,6.7-16.2
		c0.8-0.8,1.4-1.7,2.2-2.5c0,0.3,0,0.6,0.3,0.8c2.5,5,5,10.6,10.1,14.3C652.2,319.5,654.7,320.6,657.5,321.2z"/>
	<path id="bezier3" class="st1" d="M755.5,329.3c0.3-0.6,0.3-1.7-0.3-2c-1.1-0.6-2.5,0-3.6,0.8c-1.7,1.1-2.8,3.4-4.2,4.8
		c-3.9,3.4-9,7-14.3,7c-3.6-0.3-7.6-2-9.8-4.8c-2.5-3.4-3.1-8.1-3.1-12.6c0.3-9,1.4-17.9,4.8-26.3c0.6-2,0-3.9-1.7-5
		c-1.7-1.1-3.6-0.8-5.3,0.3c-3.6,3.1-9.5,4.5-14.3,3.6c0.3,0,0-0.3,0-0.6c0.6-1.7,1.1-3.4,1.4-5.3c0.8-2.2,1.4-4.8,1.1-7.3
		c-0.3-1.4-1.4-2.8-2.8-3.4c-2.2-0.8-5.3,0.8-6.4,2.8c-2.5,4.2-2.8,9.8-1.4,14.6c-1.1,3.4-2.2,6.7-3.4,10.1
		c-3.1,7.6-6.2,15.4-10.6,22.4c-1.4,2-2.5,3.9-4.2,5.6c-0.8,1.1-2,1.7-2.5,3.1c-0.3,0.6,0.3,1.1,0.8,1.4s1.4,0.3,2,0.3
		c0.6,0.3,0.8-0.3,1.4-0.6c0.8-0.6,1.4-1.4,2.2-2c2-2,3.9-4.5,5.6-7c5.3-7,9-15.1,12.3-23.2c0.6-1.1,1.1-2.2,1.7-3.4
		c0.3,0,0.6,0.3,1.1,0.3c3.9,0.8,8.4,0.6,12.6-0.8c-1.4,6.7-2,13.7-1.7,20.4c0,6.2,1.7,13.2,5.9,17.6c3.6,3.6,9.2,5.6,14.3,5.6
		c8.7-0.3,17.1-7.3,21.6-14.6C754.9,330.7,755.2,329.8,755.5,329.3z"/>
	<path id="bezier4" class="st1" d="M823.5,322.3c0-0.3,0-1.1-0.6-1.1c-1.4-0.3-2.8,0.6-3.6,1.7c-5.9,7-12.6,14.8-22.7,14.8
		c-10.6,0-17.6-5.9-20.7-15.7c7-2.2,13.4-6.7,18.8-11.8c3.9-4.2,7.6-9.8,7.6-15.4c0-3.4-1.1-7.3-3.4-9.8c-1.4-1.7-3.9-3.1-6.2-3.1
		c-3.9,0-8.1,1.7-11.2,3.6c-5.9,3.9-10.1,9.5-14,15.1c-4.2,5.9-7.6,12.3-10.6,18.8c2-20.4,5.3-40.6,8.7-60.8
		c1.7-10.1,3.6-20.2,5.6-30.2c0.6-3.1,1.1-6.4,1.7-9.8c0.3-2,0.8-4.5-0.3-6.4c-0.6-0.8-1.7-0.8-2.5-0.6c-1.7,0.6-2.8,1.7-3.9,3.1
		c-1.4,1.4-1.4,3.4-2,5.3c-0.8,3.1-1.4,6.4-2.2,9.8c-2,9.5-3.9,19.3-5.6,29.1c-4.8,28.3-8.7,56.6-9.2,85.1c0,2.2,1.7,4.2,3.9,4.5
		s4.5-1.1,5-3.4c3.6-14,9.2-27.4,17.1-39.5c2.5-4.2,5.6-8.4,9.5-11.8c2.5-2.8,6.2-5,10.1-5.3c0.8,0,1.4,1.1,1.7,1.7
		c0.8,1.4,1.4,3.1,1.4,4.5c0,4.5-3.4,8.7-6.7,11.8c-4.5,4.5-10.1,8.7-16.2,10.1c-1.1,0.3-2,0.8-2.5,2c-0.6,0.8-0.8,1.7-0.6,2.8
		c3.6,13.2,12.6,21.6,26.6,21.6c9.8-0.3,18.5-7,24.6-16c0.6-0.6,1.1-1.4,1.4-2.2C823,324,823.2,323.1,823.5,322.3z"/>
</g>
<g>
	<path class="st2" d="M124.7,134.8c-20.5,22.8-46.8,48.4-79.1,76.6c1.8,45.9,6.5,117.1,13.5,214.2c-0.5,6.8-5.5,10.3-14.6,10.9
		c-10.4-0.3-15.9-3.5-16.6-9.5C16.2,251.1,9.2,117.9,6.6,27.4c0.3-6,2.9-9,8.1-9.2c18.7,0,41.1,1.6,67.4,5.2
		c26.3,3.5,45,9.5,56.2,17.7c11.2,8.2,16.9,18.8,16.9,32.1C155.1,91.3,145,111.9,124.7,134.8z M43.3,185.9
		c9.6-5.4,25.8-21.7,48.4-48.7c22.6-26.9,33.8-48.1,33.8-63.3c0-14.1-9.1-23.9-27.1-29.1s-38.2-8.2-60.6-8.4L43.3,185.9z"/>
	<path class="st2" d="M149.4,362.5c0-43.8,16.9-89.7,67.1-89.4c9.1,0,16.6,2.2,22.9,6.8c6,4.6,9.1,9.5,9.1,14.4
		c-0.3,4.6-2.6,7.6-6.8,8.7c-2.3,0-4.7-1.4-6.8-4.1c-5.2-6.5-11.2-7.6-18.7-7.6c-16.9,0-27.8,16-32.8,36.4
		c-2.3,10.1-3.6,21.7-3.6,34.8c0,26.4,4.9,39.4,16.4,39.4c8.8,0,16.9-5.7,24.5-17.1c7.3-11.4,12.7-23.1,16.1-35.3
		c3.4-12.2,4.9-23.1,4.9-33.2c0-5.2,3.9-7.9,11.7-8.4c7.3,0,10.9,2.7,10.9,8.2c0,15.8-3.1,31.8-9.1,47.8c-6,16-15.1,29.6-26.8,40.5
		c-12,10.9-22.9,16.3-32.5,16.3C164,420.7,149.4,398.7,149.4,362.5z"/>
	<path class="st2" d="M353.6,312.8c0.3,6.5,0.5,13.3,0.5,20.4c-0.3,6.3-0.5,14.1-1,23.4c1.8-5.7,7.3-16,15.9-31.3
		c8.6-14.9,17.7-22.6,27.6-22.6c8.6,0,12.7,4.3,12.7,13c0.8,14.9,2.9,32.1,14,40.5c5.5,4.1,11.7,6.3,18.5,6.3
		c10.4,0,20.3-3.3,29.9-9.8c9.4-6.3,17.4-12.2,23.9-17.9c6.5-5.7,11.4-10.1,14.8-13.6c1.8-1.9,3.9-3,6-3c4.4,0,7,2.4,7,6.8
		c0,2.4-1,4.6-3.1,6.5c-11.2,13.3-26,28-46.3,40c-10.1,6.3-21.1,9.2-32.3,9.2c-12.2,0-22.9-3.8-32.3-11.7
		c-9.6-7.6-15.3-20.9-17.7-40.2c-3.9,0-9.9,8.4-18.2,25.6c-8.6,17.1-16.6,38.3-24.7,63.9c-1.8,3-5.2,4.6-10.4,4.6
		c-15.6-0.8-23.4-4.1-23.4-10.1c8.8-23.6,13.3-43.5,13.3-59.5c0-23.9,0.3-39.1-3.1-39.1c-1.8,0-4.4,2.4-7.3,7.3
		c-3.1,5.2-5.7,8.7-7.8,11.1c-1.6,1.6-3.4,2.4-5.5,2.4c-4.2,0-7.3-3.5-7.3-7.9c0-1.9,0.3-3.3,1-4.6c3.1-4.3,7.8-10.9,14-19.8
		c6.2-8.7,13.5-13,22.1-13.3C344.7,289.4,352.6,300,353.6,312.8z"/>
	<path class="st2" d="M593.2,200c-18.7,48.7-38.5,82.1-61.7,115.5c1,25,6,45.1,14.8,60.3c8.8,15.5,16.9,23.1,24.5,23.1
		c17.4,0,37.5-19.3,57.5-45.4c9.9-13,21.6-27.7,34.9-44c1.3-1.4,3.1-2.2,5.5-2.2c3.9,0,7,3,7,7.3c0,1.6-0.8,3.5-2.6,5.7
		c-10.1,13.9-19.2,26.1-27.3,37c-8.1,11.1-19,23.6-33.3,38.1c-14.3,14.4-28.1,21.7-41.4,21.7c-19,0-33.6-6.3-44.2-18.5
		c-11.2-12.2-18.7-26.4-22.6-42.4c-0.5-1.9-1-3.5-1.3-5.4c-2.1,2.4-4.2,4.9-6.2,7.1c-1.6,1.4-3.4,1.9-5.7,1.9
		c-3.9-0.3-6.5-3.5-6.5-7.9c0.3-1.6,1-3.5,2.9-5.4c4.2-4.6,8.3-9.2,12.2-13.6c-0.8-6.8-1.3-13.3-1.3-19.6c0-31.3,1.6-59.8,4.7-85.6
		c1.8-14.9,4.4-30.7,7.8-47.3l-11.7,1.1c-31.5,4.6-52.5,9-62.9,13c-10.1,4.1-16.6,6.3-19,6.5c-6.2,0-9.9-3-9.9-9.2
		c0.5-5.2,3.1-8.4,8.1-10.1c9.9-4.6,25.2-8.7,46-12.5c9.6-1.9,23.7-3.8,41.9-5.7l11.7-1.1c1.6-6.3,3.4-12.5,5.2-19
		c8.3-30.4,20.8-59.3,37.2-86.7C573.7,29.6,590.6,16,607.7,16c13.8,0,21.9,13.6,21.9,33.2c-0.5,23.1-4.4,48.1-11.7,74.7
		c-2.9,10.6-6,21.2-9.1,31.3c9.1-0.3,19.8-0.3,31.7-0.3c15.3,0,30.4,0.5,44.7,1.6c4.4,0.3,7,2.7,7.5,7.9c-0.3,5.7-2.9,8.4-7.8,8.4
		c-14.8-0.8-29.9-1.1-45-1.1c-12,0-24.2,0.3-36.9,0.8C599.7,182.1,596.6,191,593.2,200z M541.7,178.8c-4.4,17.7-7.5,34.5-9.1,50.6
		c-2.6,25.3-3.9,46.2-3.9,62.5c4.9-6.8,12.2-18.5,21.3-35.6c9.1-17.1,18.2-37,27.1-60.1c2.9-7.3,5.5-14.7,8.3-22.6
		C567.7,175,553.1,176.6,541.7,178.8z M580.9,156.5c2.9-0.3,6.2-0.3,10.1-0.5c3.4-11.1,6.8-22.8,10.1-35.1
		c7.3-26.9,10.9-50.6,10.9-70.9c0-10.6-2.1-15.8-6-15.8c-4.7,0-13.3,10.9-25.8,32.3c-12.7,21.5-21.3,40.5-25.8,56.5
		c-4.7,16.3-7.8,28.8-9.6,37.5C555.2,159.2,567.2,157.9,580.9,156.5z"/>
	<path class="st2" d="M794.8,406.8c-10.7,9.8-20.5,14.7-29.7,14.7c-9.6,0-20.3-3.5-31.7-10.9c-9.1,8.7-20.3,13-33.3,13
		c-36.9,0.5-56.7-25.6-55.4-57.9c0-29.4,8.8-54.9,28.9-74.5c10.1-9.5,22.4-14.4,36.7-14.4c15.3,0,27.6,6,35.9,17.1
		c0.3-2.2,1.3-4.1,2.9-5.4c1.8-1.6,5.7-2.4,11.7-2.4c15.6,0,16.9,3.8,16.9,9c0,1.4-1.8,7.6-5.2,18.8c-3.4,11.1-6.8,23.1-9.6,35.9
		c-3.1,12.8-4.7,24.7-4.9,36.4c0,10.1,2.3,17.1,7.8,17.1c8.6,0,22.9-10.9,42.4-32.6c19.5-21.5,35.9-40.5,49.2-56.8
		c1.3-1.4,3.1-2.2,5.5-2.2c3.9,0,7,3,7,7.3c0,1.6-0.8,3.5-2.6,5.7C841.9,357.1,816.4,387.3,794.8,406.8z M740.1,315.8
		c-7.3-13.9-19-20.9-30.7-20.9c-7,0-13.3,3.8-18.5,11.4c-5.5,7.6-9.4,16.3-12,26.4c-2.9,10.1-4.2,21.2-4.2,32.9
		c0,21.7,7.5,33.2,13.3,37c2.9,1.9,6.8,3,12.2,3c8.6,0,17.2-4.6,25.8-14.1C726.9,369.6,731.6,344.3,740.1,315.8z"/>
	<path class="st2" d="M851,210.6c4.2-36.1,12.5-69,25-98.7s28.4-44.3,47.9-44.3c9.1,0,16.4,4.3,22.1,13.3c5.5,9,8.3,18.8,8.3,29.4
		c0,26.4-7.5,59-22.6,98.1c-15.3,38.9-35.1,79.4-59.3,121.5c-0.5,16.9-1,29.9-1.8,38.9c11.7,0,27.1-5.2,46.3-15.2
		s35.6-23.9,49.2-42.1c1.8-1.9,3.9-3,6-3c4.4,0,7,2.4,7,6.8c0,2.4-1,4.6-3.1,6.5c-14.3,22.6-32.8,39.1-55.9,50
		c-23.2,11.1-40.1,16.6-50.5,16.6c-3.2,0.8-4.7-2.6-6.8,10.2c-3.7,23-6.2,15.9-10.9,38.5s-11.2,46.7-19.8,73.1
		c-8.6,26.1-16.9,40-25.2,62c-0.8,2.4-1.6,6.3-13.3,6.3c-14.8,0-16.4-4.3-16.4-9.8c0-0.8,0-1.9,0.3-2.7
		c25.9-73.7,35.5-84.4,47.1-124c6.2-21.2,16.6-81.5,19-133.2C844.2,279.6,846.5,247,851,210.6z M919.4,189.4
		c11.4-34.5,17.2-60.9,17.2-78.5c0-14.1-4.4-25-12.5-25c-7.8,0-16.4,12.8-25.5,38.3c-9.4,25.5-15.9,56-19.2,91.1
		c-3.4,35.1-5.2,61.7-5.2,79.9C892.6,259.5,907.7,224.2,919.4,189.4z"/>
	<path class="st2" d="M953.5,362.5c0-43.8,16.9-89.7,67.1-89.4c9.1,0,16.6,2.2,22.9,6.8c6,4.6,9.1,9.5,9.1,14.4
		c-0.3,4.6-2.6,7.6-6.8,8.7c-2.3,0-4.7-1.4-6.8-4.1c-5.2-6.5-11.2-7.6-18.7-7.6c-16.9,0-27.8,16-32.8,36.4
		c-2.3,10.1-3.6,21.7-3.6,34.8c0,26.4,4.9,39.4,16.4,39.4c8.8,0,16.9-5.7,24.5-17.1c7.3-11.4,12.7-23.1,16.1-35.3
		c3.4-12.2,4.9-23.1,4.9-33.2c0-5.2,3.9-7.9,11.7-8.4c7.3,0,10.9,2.7,10.9,8.2c0,15.8-3.1,31.8-9.1,47.8c-6,16-15.1,29.6-26.8,40.5
		c-12,10.9-22.9,16.3-32.5,16.3C968,420.7,953.5,398.7,953.5,362.5z"/>
	<path class="st2" d="M1121.5,398.7c-11.2-12.2-18.7-26.4-22.6-42.4c-0.5-1.9-1-3.5-1.3-5.4c-2.1,2.4-4.2,4.9-6.2,7.1
		c-1.6,1.4-3.4,1.9-5.7,1.9c-3.9-0.3-6.5-3.5-6.5-7.9c0.3-1.6,1-3.5,2.9-5.4c4.2-4.6,8.3-9.2,12.2-13.6c-0.8-6.8-1.3-13.3-1.3-19.6
		c0-31.3,1.6-59.8,4.7-85.6c2.9-25.5,8.8-53.5,17.7-84.3c8.6-30.4,21.1-59.3,37.2-86.7c16.1-27.2,32.8-40.8,49.9-40.8
		c13.8,0,21.8,13.6,21.8,33.2c-0.5,23.1-4.4,48.1-11.7,74.7c-7.3,26.6-15.6,51.9-24.7,76.1c-9.4,24.2-20,47-32,68.5
		c-12.2,21.5-23.2,39.7-33.3,54.6c3.9,27.7,9.9,47.3,17.7,58.7c7.5,11.4,15.1,17.1,22.6,17.1c20.8,0,36.7-17.4,58.5-44.6
		c10.9-13.6,23.2-28.5,36.4-44.8c1.3-1.4,3.1-2.2,5.5-2.2c3.9,0,7,3,7,7.3c0,1.6-0.8,3.5-2.6,5.7c-10.1,13.9-19.2,25.5-26.8,35.3
		c-7.8,10.1-18.5,22.6-32.3,38.1c-13.8,15.5-29.7,23.4-48.1,23.4C1145.2,417.2,1132.2,410.9,1121.5,398.7z M1174.3,69
		c-13.3,23.1-24.2,49.5-32.8,78.5c-8.8,29.4-14.3,56.8-16.4,82.6c-2.3,25.8-3.9,48.4-4.7,67.7c25.2-41.6,42.4-74.7,51.2-99.5
		c8.8-24.5,16.9-50.3,24.2-77.5c7.3-26.9,10.9-50.6,10.9-70.9c0-10.6-2.1-15.8-6-15.8C1196.2,34.2,1187.3,45.9,1174.3,69z"/>
	<path class="st2" d="M1260.7,288.6c1.8-1.6,6.5-2.4,14.3-2.4c12.2,0,14.3,3.8,14.3,9c0,3-5.5,16.9-13.5,50.8
		c-4.2,17.1-6.2,30.4-6.2,40.2c0,10.1,1.3,17.1,10.4,17.1c7,0,20.3-10.9,39.8-32.6c19.5-21.5,35.9-40.5,49.2-56.8
		c1.3-1.4,3.1-2.2,5.5-2.2c3.9,0,7,3,7,7.3c0,1.6-0.8,3.5-2.6,5.7c-25.2,32.3-50.7,62.5-72.3,82.1c-10.7,9.8-19.8,14.7-27.1,14.7
		c-26.3,0-40.3-13.9-40.3-34.8c0-13.3,2.3-29.4,7.3-48.7c4.7-19,8.6-33.7,11.4-44C1258.1,291.9,1259.1,290,1260.7,288.6z
		 M1307.8,224.2c0,9.8-6.8,17.7-20.5,17.7c-9.6,0-14.3-5.4-14.6-16.3c0.3-11.7,6.8-19,17.9-20.4
		C1303.1,206.5,1306.5,213.6,1307.8,224.2z"/>
	<path class="st2" d="M1358.5,362.5c0-43.8,16.9-89.7,67.1-89.4c9.1,0,16.6,2.2,22.9,6.8c6,4.6,9.1,9.5,9.1,14.4
		c-0.3,4.6-2.6,7.6-6.8,8.7c-2.3,0-4.7-1.4-6.8-4.1c-5.2-6.5-11.2-7.6-18.7-7.6c-16.9,0-27.8,16-32.8,36.4
		c-2.3,10.1-3.6,21.7-3.6,34.8c0,26.4,4.9,39.4,16.4,39.4c8.8,0,16.9-5.7,24.5-17.1c7.3-11.4,12.7-23.1,16.1-35.3
		c3.4-12.2,4.9-23.1,4.9-33.2c0-5.2,3.9-7.9,11.7-8.4c7.3,0,10.9,2.7,10.9,8.2c0,15.8-3.1,31.8-9.1,47.8c-6,16-15.1,29.6-26.8,40.5
		c-12,10.9-22.9,16.3-32.5,16.3C1373,420.7,1358.5,398.7,1358.5,362.5z"/>
</g>
<text transform="matrix(0.9571 0 0 1 343.1248 -687.9487)" style="fill:#4AB19A; font-family:'Gwidon'; font-size:289.675px;">Portafolio</text>
<path id="bezier_1_" class="st2" d="M917.9-224.8c0-1.4-0.3-3.4-1.7-4.2c-0.8-0.6-2.2-0.6-3.4-0.6c-1.4,0.3-3.4,0-4.5,1.4
	c-0.6,0.6-0.8,1.7-1.1,2.5c-0.6,2-1.1,3.9-1.4,5.6c-1.1,5.3-2.2,10.4-2.8,15.7c-2.8,16.8-4.5,33.9-5.3,51
	c-1.1,23.5-1.7,47.3-0.8,71.1c-0.8-0.8-1.4-1.4-2.2-2.2c-2.5-2.2-5-4.8-7.3-7.6c-9.2-9.8-17.4-20.4-24.9-31.6
	c-12-17.1-22.7-35.6-30.2-55.4c-2.2-6.4-4.2-12.9-5.6-19.6c-0.3-2.2-0.6-4.2-0.8-6.4c-0.3-2-0.8-4.5-2.8-5h-0.3l1.4-8.4
	c0.3-2,0.8-3.9,0.8-6.2c0.3-1.4-0.3-3.4-1.4-4.2c-1.1-0.6-2.2-0.6-3.4-0.6c-1.7,0.3-3.6,0-4.5,1.4c-0.8,0.6-1.1,1.7-1.4,2.5
	c-0.6,2-0.8,3.9-1.4,5.6c-1.1,5.3-2,10.4-2.8,15.7c-2.5,16.8-4.2,33.9-5,51c-1.4,24.9-2,49.6-0.8,74.5c0,1.1,0.6,2.5,1.4,2.8
	c1.4,0.3,3.6-0.8,3.9-2.2c0.6-2.5,0.3-5.3,0.6-7.8c0-4.8,0.3-9.5,0.6-14.3c1.1-17.4,2.2-35,3.9-52.4c1.1-10.6,2.5-21,3.9-31.6
	c2.8,9.2,7,18.2,11.5,26.9c9,17.1,20.2,33.3,32.5,48.2c9.8,11.8,19.9,23.2,32.2,32.5c0.8,0.3,2.2,1.1,3.1,0.3l0,0
	c0.3,0.3,0.6,0.3,0.8,0.6c1.4,0.3,3.6-0.8,3.9-2.2c0.6-2.5,0.3-5.3,0.3-7.8c0.3-4.8,0.6-9.5,0.8-14.3c0.8-17.4,2.2-35,3.9-52.4
	c1.4-16.5,3.9-33,6.4-49.6c1.1-5.3,2-10.9,2.8-16.2C917.3-220.6,917.6-222.6,917.9-224.8z"/>
</svg>
