<?xml version="1.0" encoding="utf-8"?>
<!-- Generator: Adobe Illustrator 22.0.0, SVG Export Plug-In . SVG Version: 6.00 Build 0)  -->
<svg version="1.1" id="Capa_1" xmlns="http://www.w3.org/2000/svg" xmlns:xlink="http://www.w3.org/1999/xlink" x="0px" y="0px"
	 viewBox="0 0 284 284" style="enable-background:new 0 0 284 284;" xml:space="preserve">
<style type="text/css">
	.st0{display:none;fill:#F3F2F1;}
	.st1{display:none;}
	.st2{display:inline;}
	.st3{clip-path:url(#SVGID_2_);}
	.st4{fill:#F3C5AD;}
	.st5{fill:#1A1718;fill-opacity:0.3;}
	.st6{fill:#3AA488;}
	.st7{fill:#FFFFFF;}
	.st8{fill:#D5A691;}
	.st9{fill:#1A1718;fill-opacity:0.38;}
	.st10{fill:#ECA042;}
	.st11{fill:#2C2723;}
	.st12{fill:#F6AC2C;fill-opacity:0.5;}
	.st13{fill:#070706;fill-opacity:5.000000e-02;}
	.st14{fill:#1A1718;fill-opacity:5.000000e-02;}
	.st15{fill:#F1B89C;}
	.st16{fill:none;stroke:#A48677;stroke-width:3;}
	.st17{fill:#F3F2F1;}
	.st18{clip-path:url(#SVGID_4_);}
	.st19{clip-path:url(#SVGID_7_);}
	.st20{clip-path:url(#SVGID_8_);fill:#030930;}
	.st21{clip-path:url(#SVGID_10_);fill:#E69560;}
	.st22{clip-path:url(#SVGID_12_);fill:#030930;}
	.st23{clip-path:url(#SVGID_14_);fill:#E69560;}
	.st24{clip-path:url(#SVGID_16_);fill:#E69560;}
	
		.st25{clip-path:url(#SVGID_18_);fill:none;stroke:#121C36;stroke-width:1.4232;stroke-linecap:round;stroke-linejoin:round;stroke-miterlimit:10;}
	.st26{clip-path:url(#SVGID_20_);fill:#030930;}
	.st27{clip-path:url(#SVGID_22_);fill:#030930;}
	.st28{clip-path:url(#SVGID_24_);fill:#121C36;}
	.st29{clip-path:url(#SVGID_26_);fill:#FB577F;}
	.st30{clip-path:url(#SVGID_28_);fill:#FB577F;}
	.st31{clip-path:url(#SVGID_30_);fill:#F6939D;}
	.st32{clip-path:url(#SVGID_32_);fill:#EA3D6F;}
	
		.st33{clip-path:url(#SVGID_34_);fill:none;stroke:#121C36;stroke-width:1.4001;stroke-linecap:round;stroke-linejoin:round;stroke-miterlimit:10;}
	.st34{clip-path:url(#SVGID_36_);fill:#121C36;}
	.st35{clip-path:url(#SVGID_38_);}
	.st36{clip-path:url(#SVGID_40_);fill:#EBAC83;}
	.st37{clip-path:url(#SVGID_42_);fill:#464E62;}
	.st38{clip-path:url(#SVGID_44_);fill:#BC7D54;}
	.st39{clip-path:url(#SVGID_46_);fill:#003C82;}
	.st40{clip-path:url(#SVGID_48_);fill:#003C82;}
	.st41{clip-path:url(#SVGID_50_);fill:#030930;}
	.st42{clip-path:url(#SVGID_38_);fill:#F4A0A0;}
	.st43{clip-path:url(#SVGID_38_);fill:#58D6B9;}
	.st44{clip-path:url(#SVGID_38_);fill:#F3F2F1;}
	.st45{clip-path:url(#SVGID_38_);fill:#ECA043;}
	.st46{clip-path:url(#SVGID_38_);fill:#F6AE60;}
	.st47{clip-path:url(#SVGID_38_);fill:#F4D0BD;}
	.st48{clip-path:url(#SVGID_38_);fill:#45B29A;}
</style>
<circle id="oval2" class="st0" cx="141" cy="141" r="141"/>
<g class="st1">
	<g class="st2">
		<g>
			<g>
				<defs>
					<circle id="SVGID_1_" cx="141" cy="141" r="141"/>
				</defs>
				<clipPath id="SVGID_2_">
					<use xlink:href="#SVGID_1_"  style="overflow:visible;"/>
				</clipPath>
				<g id="group" class="st3">
					<g id="page1">
						<g id="layer_1">
							<g id="layer_1_1_">
								<path id="bezier2" class="st4" d="M106.2,234.3c11.1,4.1,13.2,25.6,4.8,48s-24.1,37.2-35.2,33c-11.1-4.1-13.2-25.6-4.8-48
									S95.1,230.2,106.2,234.3z"/>
								<path id="bezier" d="M85.4,313.6v17.1h113.3v-17.1H85.4z"/>
								<path id="bezier3" class="st5" d="M69.5,287.4c-1.7-1.1-1.7-5.5-0.2-10.2c-0.2,0.4-0.3,0.8-0.5,1.2
									c-1.9,5.1-2,10.2-0.2,11.4c1.8,1.2,4.9-1.9,6.8-7c0.1-0.4,0.3-0.8,0.4-1.2C73.9,286,71.2,288.5,69.5,287.4L69.5,287.4z"/>
								<path id="bezier4" class="st4" d="M171.8,222.3c-11.1,4.1-13.2,25.6-4.8,48s24.2,37.2,35.2,33c11.1-4.1,13.2-25.6,4.8-48
									S182.9,218.2,171.8,222.3z"/>
								<path id="bezier5" class="st5" d="M195.6,296.3c-3.3,0-5.9-5-6.4-11.5c0,0.6-0.1,1.1-0.1,1.7c0,7.3,2.9,13.3,6.4,13.3
									s6.4-5.9,6.4-13.3c0-0.6,0-1.1-0.1-1.7C201.5,291.2,198.8,296.3,195.6,296.3L195.6,296.3z"/>
								<path id="bezier6" class="st6" d="M209.4,248.4l-19.6-27.8l-15.8,7.2l-1.4-4.6h-62.9l-1.1,4l-14.4-6.6l-19.6,27.8l25,11.5
									l-15.4,55.8H201l-17-55.6L209.4,248.4z"/>
								<path id="bezier7" class="st7" d="M142.1,252.7c10,0,18.2-8.1,18.2-18.2s-8.1-18.2-18.2-18.2c-10,0-18.2,8.1-18.2,18.2
									S132.1,252.7,142.1,252.7z"/>
								<path id="bezier8" class="st8" d="M142.1,249.4c8.3,0,14.9-6.2,14.9-13.9s-6.7-13.9-14.9-13.9s-14.9,6.2-14.9,13.9
									S133.8,249.4,142.1,249.4z"/>
								<path id="bezier9" class="st4" d="M46.4,168.3c8,0,14.4-6.5,14.4-14.4c0-8-6.5-14.4-14.4-14.4S32,145.9,32,153.9
									C32,161.8,38.5,168.3,46.4,168.3z"/>
								<path id="bezier10" class="st4" d="M234.6,168.3c8,0,14.4-6.5,14.4-14.4c0-8-6.5-14.4-14.4-14.4c-8,0-14.4,6.5-14.4,14.4
									C220.1,161.8,226.6,168.3,234.6,168.3z"/>
								<path id="bezier11" class="st4" d="M141.6,235.6c52.8,0,95.7-33.5,95.7-74.8S194.4,86,141.6,86s-95.7,33.5-95.7,74.8
									S88.7,235.6,141.6,235.6z"/>
								<path id="bezier12" class="st9" d="M97.2,163.8c0,9.3-7.4-12-16.6-12S64,173.1,64,163.8s7.4-16.9,16.6-16.9
									S97.2,154.5,97.2,163.8L97.2,163.8z"/>
								<path id="bezier13" class="st9" d="M224.4,163.8c0,9.3-7.4-12-16.6-12c-9.1,0-16.6,21.3-16.6,12s7.4-16.9,16.6-16.9
									C217,146.9,224.4,154.5,224.4,163.8L224.4,163.8z"/>
								<path id="bezier14" class="st5" d="M206.2,134.8c11.8,0,21.5,8.1,22.4,18.5c0-0.5,0.1-0.9,0.1-1.4c0-11-10.1-19.9-22.4-19.9
									c-12.4,0-22.5,8.9-22.5,19.9c0,0.5,0,1,0.1,1.4C184.7,143,194.4,134.8,206.2,134.8L206.2,134.8z"/>
								<path id="bezier15" class="st5" d="M80.1,134.8c11.9,0,21.6,8.1,22.4,18.5c0-0.5,0.1-0.9,0.1-1.4c0-11-10.1-19.9-22.5-19.9
									s-22.4,8.9-22.4,19.9c0,0.5,0,1,0.1,1.4C58.5,143,68.3,134.8,80.1,134.8L80.1,134.8z"/>
								<path id="bezier16" class="st10" d="M237.1,105.2c0.1-1,0.1-2.1,0.1-3.1c0-13.3-7.6-25.6-20.2-35.4
									c-1.5-1.2,5.2-15,3.5-16.1c-1.4-0.9-11.2,10.8-12.7,9.9c-0.7-0.4-1.5-0.8-2.2-1.2c-2.8-1.5,0.4-17.9-2.7-19.2
									c-2.7-1.1-11.5,12.8-14.4,11.8c-13.9-4.7-29.9-7.4-46.9-7.4c-51.9,0-94.1,24.8-95.7,55.8h191.2L237.1,105.2L237.1,105.2
									L237.1,105.2z"/>
								<path id="bezier17" class="st10" d="M237.2,98.8H46h-0.1v59.8c0,0,62.5-19.7,83.3-26.3c13-4.1,52.1-16.5,52.1-16.5
									l55.9,42.8v-54.9L237.2,98.8L237.2,98.8z"/>
								<path id="bezier18" class="st11" d="M141,317.8v13.9h1.1v-13.9H141z"/>
								<path id="bezier19" class="st5" d="M142.1,171.5c2.6,0,4.8,1.8,5.2,4.3c0.1-0.4,0.1-0.7,0.1-1.1c0-2.9-2.4-5.3-5.3-5.3
									c-3,0-5.3,2.4-5.3,5.3c0,0.4,0,0.7,0.1,1.1C137.4,173.3,139.5,171.5,142.1,171.5L142.1,171.5z"/>
								<path id="bezier20" class="st12" d="M203.6,196.1c2.1,0,3.7-1.7,3.7-3.7c0-2.1-1.7-3.7-3.7-3.7c-2.1,0-3.7,1.7-3.7,3.7
									C199.8,194.4,201.5,196.1,203.6,196.1z"/>
								<path id="bezier21" class="st12" d="M210,200.3c0.9,0,1.6-0.7,1.6-1.6c0-0.9-0.7-1.6-1.6-1.6c-0.9,0-1.6,0.7-1.6,1.6
									S209.1,200.3,210,200.3z"/>
								<path id="bezier22" class="st12" d="M195.6,200.3c1.2,0,2.1-1,2.1-2.1c0-1.2-1-2.1-2.1-2.1c-1.2,0-2.1,0.9-2.1,2.1
									C193.4,199.4,194.4,200.3,195.6,200.3z"/>
								<path id="bezier23" class="st12" d="M200.4,199.3c0.3,0,0.5-0.2,0.5-0.5s-0.2-0.5-0.5-0.5s-0.5,0.2-0.5,0.5
									C199.8,199,200.1,199.3,200.4,199.3z"/>
								<path id="bezier24" class="st12" d="M86,196.1c2.1,0,3.7-1.7,3.7-3.7c0-2.1-1.7-3.7-3.7-3.7c-2.1,0-3.7,1.7-3.7,3.7
									C82.2,194.4,83.9,196.1,86,196.1z"/>
								<path id="bezier25" class="st12" d="M92.4,200.3c0.9,0,1.6-0.7,1.6-1.6c0-0.9-0.7-1.6-1.6-1.6s-1.6,0.7-1.6,1.6
									S91.5,200.3,92.4,200.3z"/>
								<path id="bezier26" class="st12" d="M76.9,200.3c1.2,0,2.1-1,2.1-2.1c0-1.2-0.9-2.1-2.1-2.1s-2.1,0.9-2.1,2.1
									C74.8,199.4,75.7,200.3,76.9,200.3z"/>
								<path id="bezier27" class="st12" d="M81.7,199.3c0.3,0,0.5-0.2,0.5-0.5s-0.2-0.5-0.5-0.5s-0.5,0.2-0.5,0.5
									C81.2,199,81.4,199.3,81.7,199.3z"/>
								<path id="bezier28" class="st13" d="M75.6,182.2c-8.4,0-15.9,3.6-21.2,9.2c9.1,16,25.1,29,45,36.7
									c3.3-4.7,5.2-10.5,5.2-16.7C104.7,195.2,91.7,182.2,75.6,182.2L75.6,182.2z"/>
								<path id="bezier29" class="st13" d="M207.5,182.2c8.4,0,15.9,3.6,21.2,9.2c-9.1,16-25.1,29-45,36.7
									c-3.3-4.7-5.2-10.5-5.2-16.7C178.4,195.2,191.4,182.2,207.5,182.2L207.5,182.2z"/>
								<path id="bezier30" class="st11" d="M74.2,336c2.7,0,4.8-1.7,4.8-3.7c0-2.1-2.2-3.7-4.8-3.7c-2.7,0-4.8,1.7-4.8,3.7
									C69.4,334.3,71.6,336,74.2,336z"/>
								<path id="bezier31" class="st11" d="M81.7,336c2.7,0,4.8-1.7,4.8-3.7c0-2.1-2.2-3.7-4.8-3.7c-2.7,0-4.8,1.7-4.8,3.7
									C76.9,334.3,79.1,336,81.7,336z"/>
								<path id="bezier32" class="st11" d="M89.2,336c2.7,0,4.8-1.7,4.8-3.7c0-2.1-2.2-3.7-4.8-3.7c-2.7,0-4.8,1.7-4.8,3.7
									C84.4,334.3,86.5,336,89.2,336z"/>
								<path id="bezier33" class="st11" d="M97.7,336c2.7,0,4.8-1.7,4.8-3.7c0-2.1-2.2-3.7-4.8-3.7c-2.7,0-4.8,1.7-4.8,3.7
									C92.9,334.3,95.1,336,97.7,336z"/>
								<path id="bezier34" class="st11" d="M105.2,336c2.7,0,4.8-1.7,4.8-3.7c0-2.1-2.2-3.7-4.8-3.7c-2.7,0-4.8,1.7-4.8,3.7
									C100.4,334.3,102.6,336,105.2,336z"/>
								<path id="bezier35" class="st11" d="M112.7,336c2.7,0,4.8-1.7,4.8-3.7c0-2.1-2.2-3.7-4.8-3.7c-2.7,0-4.8,1.7-4.8,3.7
									C107.9,334.3,110.1,336,112.7,336z"/>
								<path id="bezier36" class="st11" d="M121.3,336c2.7,0,4.8-1.7,4.8-3.7c0-2.1-2.2-3.7-4.8-3.7c-2.7,0-4.8,1.7-4.8,3.7
									C116.4,334.3,118.6,336,121.3,336z"/>
								<path id="bezier37" class="st11" d="M128.7,336c2.7,0,4.8-1.7,4.8-3.7c0-2.1-2.2-3.7-4.8-3.7c-2.7,0-4.8,1.7-4.8,3.7
									C123.9,334.3,126.1,336,128.7,336z"/>
								<path id="bezier38" class="st11" d="M136.2,336c2.7,0,4.8-1.7,4.8-3.7c0-2.1-2.1-3.7-4.8-3.7c-2.6,0-4.8,1.7-4.8,3.7
									S133.6,336,136.2,336z"/>
								<path id="bezier39" class="st11" d="M146.9,336c2.7,0,4.8-1.7,4.8-3.7c0-2.1-2.1-3.7-4.8-3.7s-4.8,1.7-4.8,3.7
									C142.1,334.3,144.3,336,146.9,336z"/>
								<path id="bezier40" class="st11" d="M154.4,336c2.7,0,4.8-1.7,4.8-3.7c0-2.1-2.2-3.7-4.8-3.7c-2.7,0-4.8,1.7-4.8,3.7
									C149.6,334.3,151.7,336,154.4,336z"/>
								<path id="bezier41" class="st11" d="M161.9,336c2.7,0,4.8-1.7,4.8-3.7c0-2.1-2.2-3.7-4.8-3.7c-2.7,0-4.8,1.7-4.8,3.7
									C157.1,334.3,159.2,336,161.9,336z"/>
								<path id="bezier42" class="st11" d="M170.4,336c2.7,0,4.8-1.7,4.8-3.7c0-2.1-2.2-3.7-4.8-3.7c-2.7,0-4.8,1.7-4.8,3.7
									C165.6,334.3,167.8,336,170.4,336z"/>
								<path id="bezier43" class="st11" d="M177.9,336c2.7,0,4.8-1.7,4.8-3.7c0-2.1-2.1-3.7-4.8-3.7s-4.8,1.7-4.8,3.7
									C173.1,334.3,175.3,336,177.9,336z"/>
								<path id="bezier44" class="st11" d="M185.4,336c2.7,0,4.8-1.7,4.8-3.7c0-2.1-2.2-3.7-4.8-3.7c-2.7,0-4.8,1.7-4.8,3.7
									C180.6,334.3,182.7,336,185.4,336z"/>
								<path id="bezier45" class="st11" d="M193.9,336c2.7,0,4.8-1.7,4.8-3.7c0-2.1-2.2-3.7-4.8-3.7c-2.7,0-4.8,1.7-4.8,3.7
									C189.1,334.3,191.3,336,193.9,336z"/>
								<path id="bezier46" class="st11" d="M201.4,336c2.7,0,4.8-1.7,4.8-3.7c0-2.1-2.2-3.7-4.8-3.7c-2.7,0-4.8,1.7-4.8,3.7
									C196.6,334.3,198.8,336,201.4,336z"/>
								<path id="bezier47" class="st11" d="M208.9,336c2.7,0,4.8-1.7,4.8-3.7c0-2.1-2.1-3.7-4.8-3.7s-4.8,1.7-4.8,3.7
									C204.1,334.3,206.3,336,208.9,336z"/>
								<path id="bezier48" class="st14" d="M142.1,180c24.2,0,43.8-2.2,43.8-4.8c0-2.7-19.6-4.8-43.8-4.8s-43.8,2.1-43.8,4.8
									S117.9,180,142.1,180z"/>
								<path id="bezier49" class="st7" d="M105.8,317.8c-20.1,0-36.3,6.7-36.3,15h72.7C142.1,324.5,125.8,317.8,105.8,317.8
									L105.8,317.8z"/>
								<path id="bezier50" class="st7" d="M178.4,317.8c-20.1,0-36.3,6.7-36.3,15h72.7C214.8,324.5,198.5,317.8,178.4,317.8
									L178.4,317.8z"/>
								<path id="bezier51" class="st15" d="M69.9,269c-2.1-2.9-4.9-4.4-6.3-3.4c-1.5,1-0.9,4.2,1.1,7.1c2.1,2.9,4.9,4.4,6.3,3.4
									C72.4,275,71.9,271.9,69.9,269z"/>
							</g>
							<path id="bezier52" class="st16" d="M173.1,199.8c0,6.8-13.4,12.3-29.9,12.3s-29.9-5.5-29.9-12.3s13.4-12.3,29.9-12.3
								S173.1,193,173.1,199.8L173.1,199.8z"/>
							<path id="bezier53" class="st4" d="M110,184.3v15h65.2v-15H110z"/>
						</g>
					</g>
				</g>
			</g>
		</g>
	</g>
</g>
<g>
	<path class="st17" d="M141.3,0c77.5,0,140.3,63.1,140.3,141s-62.8,141-140.3,141S1,218.9,1,141S63.8,0,141.3,0"/>
	<g>
		<g>
			<defs>
				<path id="SVGID_3_" d="M141.3,0c77.5,0,140.3,63.1,140.3,141s-62.8,141-140.3,141S1,218.9,1,141S63.8,0,141.3,0"/>
			</defs>
			<clipPath id="SVGID_4_">
				<use xlink:href="#SVGID_3_"  style="overflow:visible;"/>
			</clipPath>
			<g class="st18">
				<g>
					<defs>
						<polyline id="SVGID_5_" points="-39.1,-46.3 559.4,-46.3 559.4,520.4 -39.1,520.4 -39.1,-46.3 						"/>
					</defs>
					<defs>
						<polyline id="SVGID_6_" points="-39.1,-46.3 559.4,-46.3 559.4,520.4 -39.1,520.4 -39.1,-46.3 						"/>
					</defs>
					<clipPath id="SVGID_7_">
						<use xlink:href="#SVGID_5_"  style="overflow:visible;"/>
					</clipPath>
					<clipPath id="SVGID_8_" class="st19">
						<use xlink:href="#SVGID_6_"  style="overflow:visible;"/>
					</clipPath>
					<path class="st20" d="M421.8,252c-8.1-32.9-11.1-99.6-38.4-165.2c-16.3-39.1-29-54.8-36.5-61.2c0,0-27.6-31.8-77-31.8
						c-47,0.2-74.4,30.4-74.4,30.4c-7.2,5.2-20.7,19.9-38.5,62.8c-27.2,65.5-30.2,132.2-38.4,165.1c-8.1,32.9,2.2,93.6,65.8,105.5
						c0,0-8.1-8.6-11.1-22.9c0,0,26.6,38.7,62.8,36.3h68.4c36.2,2.3,62.8-36.3,62.8-36.3c-3,14.3-11.1,22.9-11.1,22.9
						C419.6,345.8,429.9,285.1,421.8,252"/>
					<path class="st20" d="M371.7,97.2c0,56.4-43.5,101.9-97.4,101.9s-97.4-45.7-97.4-101.9c0-56.4,43.5-94.6,97.4-94.6
						C328.1,2.6,371.7,40.8,371.7,97.2"/>
				</g>
				<g>
					<defs>
						<path id="SVGID_9_" d="M141.3,0c77.5,0,140.3,63.1,140.3,141s-62.8,141-140.3,141S1,218.9,1,141S63.8,0,141.3,0"/>
					</defs>
					<clipPath id="SVGID_10_">
						<use xlink:href="#SVGID_9_"  style="overflow:visible;"/>
					</clipPath>
					<path class="st21" d="M317.5,326.9l-11.3-99c0,0-11.6,11.9-27.1,14.9c-15.5,2.8-30.5-6.3-30.7-6.3
						c-0.2-0.2-12.7-10.5-12.7-10.5l-11.3,102.3c0,1.1,7.7-0.3,7.5,0.8C232,328.9,317.5,327.8,317.5,326.9z"/>
				</g>
				<g>
					<defs>
						<path id="SVGID_11_" d="M141.3,0c77.5,0,140.3,63.1,140.3,141s-62.8,141-140.3,141S1,218.9,1,141S63.8,0,141.3,0"/>
					</defs>
					<clipPath id="SVGID_12_">
						<use xlink:href="#SVGID_11_"  style="overflow:visible;"/>
					</clipPath>
					<path class="st22" d="M228.5,229.3c0,0,23.6,46,52,39.5c29.4-6.9,29.3-45.7,29.3-45.7L228.5,229.3z"/>
				</g>
				<g>
					<defs>
						<path id="SVGID_13_" d="M141.3,0c77.5,0,140.3,63.1,140.3,141s-62.8,141-140.3,141S1,218.9,1,141S63.8,0,141.3,0"/>
					</defs>
					<clipPath id="SVGID_14_">
						<use xlink:href="#SVGID_13_"  style="overflow:visible;"/>
					</clipPath>
					<path class="st23" d="M359.3,102.5c0,35.1-5.2,65.5-10.2,86.9c-5,21-19.1,35.7-39,47.6l-3.6,2.2c-21.1,12.5-48.4,12.8-69.7,0.8
						c-21.6-12.2-36.6-28.2-41.3-50.9c-8.5-41-9.4-86.6-9.4-86.6s-8.1-88.6,85.3-86.9C364.9,17.3,359.3,102.5,359.3,102.5"/>
				</g>
				<g>
					<defs>
						<path id="SVGID_15_" d="M141.3,0c77.5,0,140.3,63.1,140.3,141s-62.8,141-140.3,141S1,218.9,1,141S63.8,0,141.3,0"/>
					</defs>
					<clipPath id="SVGID_16_">
						<use xlink:href="#SVGID_15_"  style="overflow:visible;"/>
					</clipPath>
					<path class="st24" d="M197.2,185.6c-15.7,13.6-48.5-40.1-33.4-54.7c15.2-14.4,25.8,9.1,25.8,9.1l3.1,16.9l4.5,22.9l1.3,5.2
						L197.2,185.6z"/>
				</g>
				<g>
					<defs>
						<path id="SVGID_17_" d="M141.3,0c77.5,0,140.3,63.1,140.3,141s-62.8,141-140.3,141S1,218.9,1,141S63.8,0,141.3,0"/>
					</defs>
					<clipPath id="SVGID_18_">
						<use xlink:href="#SVGID_17_"  style="overflow:visible;"/>
					</clipPath>
					<path class="st25" d="M170.6,149.2c0,0,6.4-13.9,21.3,10.5"/>
				</g>
				<g>
					<defs>
						<path id="SVGID_19_" d="M141.3,0c77.5,0,140.3,63.1,140.3,141s-62.8,141-140.3,141S1,218.9,1,141S63.8,0,141.3,0"/>
					</defs>
					<clipPath id="SVGID_20_">
						<use xlink:href="#SVGID_19_"  style="overflow:visible;"/>
					</clipPath>
					<path class="st26" d="M341.9,27.6c0,0-74.5,89.6-156.3,53.1c0,0-18-71.4,80.2-77.8L341.9,27.6z"/>
				</g>
				<g>
					<defs>
						<path id="SVGID_21_" d="M141.3,0c77.5,0,140.3,63.1,140.3,141s-62.8,141-140.3,141S1,218.9,1,141S63.8,0,141.3,0"/>
					</defs>
					<clipPath id="SVGID_22_">
						<use xlink:href="#SVGID_21_"  style="overflow:visible;"/>
					</clipPath>
					<path class="st27" d="M187.8,133.5c0,0,29.4-48.2,21.1-96.9c0,0-20.2,13.3-27.1,47.6C175.1,118.6,187.8,133.5,187.8,133.5z"/>
				</g>
				<g>
					<defs>
						<path id="SVGID_23_" d="M141.3,0c77.5,0,140.3,63.1,140.3,141s-62.8,141-140.3,141S1,218.9,1,141S63.8,0,141.3,0"/>
					</defs>
					<clipPath id="SVGID_24_">
						<use xlink:href="#SVGID_23_"  style="overflow:visible;"/>
					</clipPath>
					<path class="st28" d="M257.7,111.4l-49.6,6c0,0,3.9-13.2,24.3-15.5C252.5,99.7,257.7,111.4,257.7,111.4z"/>
				</g>
				<g>
					<defs>
						<path id="SVGID_25_" d="M141.3,0c77.5,0,140.3,63.1,140.3,141s-62.8,141-140.3,141S1,218.9,1,141S63.8,0,141.3,0"/>
					</defs>
					<clipPath id="SVGID_26_">
						<use xlink:href="#SVGID_25_"  style="overflow:visible;"/>
					</clipPath>
					<path class="st29" d="M243.1,189.1l14.3-6.1c2.3-0.5,4.9-0.5,7.4,0.2l6.3,1.4l5.3-1.7c2.5-0.8,5.8-0.8,8-0.2l13.5,6.3
						L243.1,189.1z"/>
				</g>
				<g>
					<defs>
						<path id="SVGID_27_" d="M141.3,0c77.5,0,140.3,63.1,140.3,141s-62.8,141-140.3,141S1,218.9,1,141S63.8,0,141.3,0"/>
					</defs>
					<clipPath id="SVGID_28_">
						<use xlink:href="#SVGID_27_"  style="overflow:visible;"/>
					</clipPath>
					<path class="st30" d="M243.1,189.1c0,0,7.8,12.5,28.7,12.5s26.2-12.7,26.2-12.7L243.1,189.1z"/>
				</g>
				<g>
					<defs>
						<path id="SVGID_29_" d="M141.3,0c77.5,0,140.3,63.1,140.3,141s-62.8,141-140.3,141S1,218.9,1,141S63.8,0,141.3,0"/>
					</defs>
					<clipPath id="SVGID_30_">
						<use xlink:href="#SVGID_29_"  style="overflow:visible;"/>
					</clipPath>
					<path class="st31" d="M259.7,183.2c1.2,0,2.1,0.6,2.1,1.4s-0.9,1.4-2.1,1.4s-2.1-0.6-2.1-1.4S258.6,183.2,259.7,183.2z"/>
				</g>
				<g>
					<defs>
						<path id="SVGID_31_" d="M141.3,0c77.5,0,140.3,63.1,140.3,141s-62.8,141-140.3,141S1,218.9,1,141S63.8,0,141.3,0"/>
					</defs>
					<clipPath id="SVGID_32_">
						<use xlink:href="#SVGID_31_"  style="overflow:visible;"/>
					</clipPath>
					<polygon class="st32" points="297.1,190.4 243.8,190.1 243.1,189.1 243.8,188.8 297.9,188.9 					"/>
				</g>
				<g>
					<defs>
						<path id="SVGID_33_" d="M141.3,0c77.5,0,140.3,63.1,140.3,141s-62.8,141-140.3,141S1,218.9,1,141S63.8,0,141.3,0"/>
					</defs>
					<clipPath id="SVGID_34_">
						<use xlink:href="#SVGID_33_"  style="overflow:visible;"/>
					</clipPath>
					<polyline class="st33" points="267.4,155.4 267.4,170.5 276.1,170.6 					"/>
				</g>
				<g>
					<defs>
						<path id="SVGID_35_" d="M141.3,0c77.5,0,140.3,63.1,140.3,141s-62.8,141-140.3,141S1,218.9,1,141S63.8,0,141.3,0"/>
					</defs>
					<clipPath id="SVGID_36_">
						<use xlink:href="#SVGID_35_"  style="overflow:visible;"/>
					</clipPath>
					<path class="st34" d="M221.2,136.1c3.8,2.9,7.8,3.9,11.4,3.9c7.1,0,12.4-3.8,12.5-3.9c0.5-0.3,0.6-0.9,0.2-1.4
						c-0.3-0.5-0.9-0.6-1.4-0.2l0,0c-0.2,0.2-5.2,3.5-11.4,3.5c-3.2,0-6.7-0.9-10.2-3.5c-0.4-0.3-1.1-0.2-1.4,0.2
						C220.7,135.1,220.8,135.7,221.2,136.1"/>
				</g>
				<g>
					<defs>
						<path id="SVGID_37_" d="M141.3,0c77.5,0,140.3,63.1,140.3,141s-62.8,141-140.3,141S1,218.9,1,141S63.8,0,141.3,0"/>
					</defs>
					<clipPath id="SVGID_38_">
						<use xlink:href="#SVGID_37_"  style="overflow:visible;"/>
					</clipPath>
					<g class="st35">
						<g>
							<defs>
								<path id="SVGID_39_" d="M232.5,140c-3.5,0-7.5-1-11.3-3.9c-0.4-0.3-0.5-1-0.2-1.4c0.2-0.3,0.5-0.4,0.8-0.4
									c0.2,0,0.4,0.1,0.6,0.2c3.5,2.6,7,3.5,10.2,3.5l0,0c6.1,0,11.1-3.3,11.3-3.5l0,0c0.2-0.1,0.4-0.2,0.6-0.2
									c0.3,0,0.6,0.1,0.8,0.4c0.3,0.5,0.2,1.1-0.2,1.4C245,136.2,239.7,140,232.5,140C232.6,140,232.5,140,232.5,140 M252.3,124
									h-50c-3.6,0-6.5,2.9-6.5,6.5v26.3c0,3.6,2.9,6.5,6.5,6.5h50c3.6,0,6.5-2.9,6.5-6.5v-26.3C258.9,126.9,256,124,252.3,124"/>
							</defs>
							<clipPath id="SVGID_40_">
								<use xlink:href="#SVGID_39_"  style="overflow:visible;"/>
							</clipPath>
							<rect x="195.8" y="124" class="st36" width="63" height="39.4"/>
						</g>
						<g>
							<defs>
								<path id="SVGID_41_" d="M141.3,0c77.5,0,140.3,63.1,140.3,141s-62.8,141-140.3,141S1,218.9,1,141S63.8,0,141.3,0"/>
							</defs>
							<clipPath id="SVGID_42_">
								<use xlink:href="#SVGID_41_"  style="overflow:visible;"/>
							</clipPath>
							<path class="st37" d="M221.8,134.3c-0.3,0-0.6,0.1-0.8,0.4c-0.3,0.4-0.2,1.1,0.2,1.4c3.8,2.9,7.8,3.9,11.3,3.9l0,0
								c7.1,0,12.4-3.8,12.5-3.9c0.5-0.3,0.6-0.9,0.2-1.4c-0.2-0.3-0.5-0.4-0.8-0.4c-0.2,0-0.4,0.1-0.6,0.2l0,0
								c-0.2,0.2-5.2,3.5-11.3,3.5l0,0c-3.2,0-6.7-0.9-10.2-3.5C222.2,134.4,222,134.3,221.8,134.3"/>
						</g>
						<g>
							<defs>
								<path id="SVGID_43_" d="M141.3,0c77.5,0,140.3,63.1,140.3,141s-62.8,141-140.3,141S1,218.9,1,141S63.8,0,141.3,0"/>
							</defs>
							<clipPath id="SVGID_44_">
								<use xlink:href="#SVGID_43_"  style="overflow:visible;"/>
							</clipPath>
							<path class="st38" d="M202.4,163.4c-3.6,0-6.5-2.9-6.5-6.5v-26.3c0-3.6,2.9-6.5,6.5-6.5h50c3.6,0,6.5,2.9,6.5,6.5v26.3
								c0,3.6-2.9,6.5-6.5,6.5l0,0H202.4 M252.3,123L252.3,123h-50c-2.1,0-4,0.8-5.3,2.2c-1.4,1.4-2.2,3.3-2.2,5.3v26.3
								c0,2.1,0.8,4,2.2,5.3c1.4,1.4,3.3,2.2,5.3,2.2l0,0h50c2.1,0,4-0.8,5.3-2.2c1.4-1.4,2.2-3.3,2.2-5.3v-26.3
								c0-2.1-0.8-4-2.2-5.3C256.3,123.8,254.4,123,252.3,123"/>
						</g>
						<g>
							<defs>
								<path id="SVGID_45_" d="M141.3,0c77.5,0,140.3,63.1,140.3,141s-62.8,141-140.3,141S1,218.9,1,141S63.8,0,141.3,0"/>
							</defs>
							<clipPath id="SVGID_46_">
								<use xlink:href="#SVGID_45_"  style="overflow:visible;"/>
							</clipPath>
							<path class="st39" d="M245,167h-37.6c-9.1,0-16.3-7.4-16.3-16.4v-13.8c0-9.1,7.4-16.4,16.3-16.4H245
								c9.1,0,16.3,7.4,16.3,16.4v13.8C261.4,159.5,254.1,167,245,167z M207.4,126.3c-5.6,0-10.3,4.7-10.3,10.3v13.8
								c0,5.8,4.7,10.3,10.3,10.3H245c5.6,0,10.3-4.7,10.3-10.3v-13.8c0-5.8-4.7-10.3-10.3-10.3H207.4z"/>
						</g>
						<g>
							<defs>
								<path id="SVGID_47_" d="M141.3,0c77.5,0,140.3,63.1,140.3,141s-62.8,141-140.3,141S1,218.9,1,141S63.8,0,141.3,0"/>
							</defs>
							<clipPath id="SVGID_48_">
								<use xlink:href="#SVGID_47_"  style="overflow:visible;"/>
							</clipPath>
							<path class="st40" d="M284,146.6c-4.4-4.9-8.6-7.2-12.5-6.9c-6,0.5-10,6.6-10.2,6.6l-5-3.3c0.2-0.3,5.8-8.6,14.7-9.4
								c6-0.5,11.9,2.5,17.5,8.9L284,146.6z"/>
						</g>
						<g>
							<defs>
								<path id="SVGID_49_" d="M141.3,0c77.5,0,140.3,63.1,140.3,141s-62.8,141-140.3,141S1,218.9,1,141S63.8,0,141.3,0"/>
							</defs>
							<clipPath id="SVGID_50_">
								<use xlink:href="#SVGID_49_"  style="overflow:visible;"/>
							</clipPath>
							<path class="st41" d="M240.6,364c-54.8-69.4-54.7-113.7-55.4-145h-60.6c-1.9,12.5-3.8,23.5-5.8,32.1
								c-8.1,32.9,2.2,93.6,65.8,105.5c0,0-8.1-8.6-11.1-22.9c0,0,26.6,38.7,62.8,36.3h9.7C244.2,368.1,242.3,366,240.6,364z"/>
						</g>
					</g>
					<ellipse class="st42" cx="71.1" cy="72.8" rx="30.8" ry="28"/>
					<path class="st43" d="M879.6,123.3c2.7,1.7,4.7,4.6,5,8c1.1,0.5,2.4,0.8,3.7,0.8c4.8,0,8.7-3.9,8.7-8.7s-3.9-8.7-8.7-8.7
						C883.5,114.7,879.7,118.6,879.6,123.3z M873.9,141.2c4.8,0,8.7-3.9,8.7-8.7s-3.9-8.7-8.7-8.7s-8.7,3.9-8.7,8.7
						C865.2,137.3,869.1,141.2,873.9,141.2z M877.6,141.8h-7.4c-6.2,0-11.2,5-11.2,11.2v9v0.1l0.6,0.2c5.9,1.8,11,2.4,15.2,2.4
						c8.2,0,13-2.3,13.2-2.5l0.6-0.3h0.1v-9C888.8,146.8,883.7,141.8,877.6,141.8z M892,132.8h-7.3c-0.1,2.9-1.3,5.6-3.3,7.5
						c5.5,1.6,9.5,6.7,9.5,12.7v2.8c7.2-0.3,11.4-2.3,11.7-2.5l0.6-0.3h0.1v-9C903.2,137.8,898.2,132.8,892,132.8z M858.6,132.2
						c1.7,0,3.3-0.5,4.6-1.3c0.4-2.8,1.9-5.2,4.1-6.9c0-0.2,0-0.3,0-0.5c0-4.8-3.9-8.7-8.7-8.7s-8.7,3.9-8.7,8.7
						C849.9,128.3,853.8,132.2,858.6,132.2z M866.4,140.2c-2-1.9-3.2-4.5-3.3-7.4c-0.3,0-0.5,0-0.8,0h-7.4c-6.2,0-11.2,5-11.2,11.2
						v9v0.1l0.6,0.2c4.7,1.5,8.9,2.1,12.6,2.4V153C857,146.9,861,141.9,866.4,140.2z"/>
					<path class="st42" d="M80.9,100.1l8.5,5.8c1.7,1.2,4-0.3,3.5-2.3l-2.6-10.8c-0.4-1.6-2.4-2.3-3.7-1.2l-5.9,4.9
						C79.6,97.6,79.7,99.3,80.9,100.1z"/>
					<path class="st44" d="M70.9,65.5c-2.3-3.8-5.6-4.9-9.6-4.3c-3.9,0.7-6.5,3.9-6.8,8c-0.2,3.6,1.4,6.5,3.6,9.2
						c3.4,4.2,7.7,7.3,12.5,9.8c0.5,0.2,1.3,0.3,1.8,0c5.3-3.3,10.1-7,13.2-12.4c2.3-4,2.7-8,0-12c-3.4-4.8-11.1-4.4-14.1,0.6
						C71.3,64.7,71.2,65,70.9,65.5z"/>
					<path class="st45" d="M111,202l-20.3-0.4l1.8-88.4l3.5,0.1c9.3,0.2,16.6,7.8,16.4,17.1L111,202z"/>
					<path class="st46" d="M90.7,201.6l-20.3-0.4l1.5-72.8c0.2-8.6,7.3-15.4,15.9-15.2l4.7,0.1L90.7,201.6z"/>
					<polygon class="st47" points="110.7,202 90.4,201.6 100.7,191.6 					"/>
					<polygon class="st47" points="91,201.6 70.7,201.2 81.1,191.2 					"/>
					<polygon class="st47" points="111,202 89.4,232 70.4,201.2 					"/>
					<polygon class="st48" points="97.5,220.7 89.4,232 82.3,220.4 					"/>
				</g>
			</g>
		</g>
	</g>
</g>
</svg>
