<?xml version="1.0" encoding="utf-8"?>
<!-- Generator: Adobe Illustrator 22.0.0, SVG Export Plug-In . SVG Version: 6.00 Build 0)  -->
<svg version="1.1" id="Capa_1" xmlns="http://www.w3.org/2000/svg" xmlns:xlink="http://www.w3.org/1999/xlink" x="0px" y="0px"
	 viewBox="0 0 284 284" style="enable-background:new 0 0 284 284;" xml:space="preserve">
<style type="text/css">
	.st0{fill:#F3F2F1;}
	.st1{display:none;fill:#F3F2F1;}
	.st2{display:none;}
	.st3{display:inline;}
	.st4{clip-path:url(#SVGID_2_);}
	.st5{fill:#F3C5AD;}
	.st6{fill:#1A1718;fill-opacity:0.3;}
	.st7{fill:#3AA488;}
	.st8{fill:#FFFFFF;}
	.st9{fill:#D5A691;}
	.st10{fill:#1A1718;fill-opacity:0.38;}
	.st11{fill:#ECA042;}
	.st12{fill:#2C2723;}
	.st13{fill:#F6AC2C;fill-opacity:0.5;}
	.st14{fill:#070706;fill-opacity:5.000000e-02;}
	.st15{fill:#1A1718;fill-opacity:5.000000e-02;}
	.st16{fill:#F1B89C;}
	.st17{fill:none;stroke:#A48677;stroke-width:3;}
	.st18{fill:#030930;}
	.st19{fill:#4AB19A;}
	.st20{fill:none;stroke:#1D0A03;stroke-width:1.0769;stroke-miterlimit:10;}
	.st21{fill:#E69560;}
	.st22{fill:none;stroke:#121C36;stroke-width:1.4232;stroke-linecap:round;stroke-linejoin:round;stroke-miterlimit:10;}
	.st23{fill:#121C36;}
	.st24{fill:#FB577F;}
	.st25{fill:#F6939D;}
	.st26{fill:none;stroke:#121C36;stroke-width:1.4001;stroke-linecap:round;stroke-linejoin:round;stroke-miterlimit:10;}
	.st27{opacity:0.22;fill:#FFFFFF;stroke:#292929;stroke-miterlimit:10;enable-background:new    ;}
	.st28{fill:#003C82;}
</style>
<ellipse class="st0" cx="141.3" cy="141" rx="140.3" ry="141"/>
<circle id="oval2" class="st1" cx="141" cy="141" r="141"/>
<g class="st2">
	<g class="st3">
		<g>
			<g>
				<g>
					<g>
						<g>
							<defs>
								<circle id="SVGID_1_" cx="141" cy="141" r="141"/>
							</defs>
							<clipPath id="SVGID_2_">
								<use xlink:href="#SVGID_1_"  style="overflow:visible;"/>
							</clipPath>
							<g id="group" class="st4">
								<g id="page1">
									<g id="layer_1">
										<g id="layer_1_1_">
											<path id="bezier2" class="st5" d="M106.2,234.3c11.1,4.1,13.2,25.6,4.8,48s-24.1,37.2-35.2,33
												c-11.1-4.1-13.2-25.6-4.8-48S95.1,230.2,106.2,234.3z"/>
											<path id="bezier" d="M85.4,313.6v17.1h113.3v-17.1H85.4z"/>
											<path id="bezier3" class="st6" d="M69.5,287.4c-1.7-1.1-1.7-5.5-0.2-10.2c-0.2,0.4-0.3,0.8-0.5,1.2
												c-1.9,5.1-2,10.2-0.2,11.4c1.8,1.2,4.9-1.9,6.8-7c0.1-0.4,0.3-0.8,0.4-1.2C73.9,286,71.2,288.5,69.5,287.4L69.5,287.4z"
												/>
											<path id="bezier4" class="st5" d="M171.8,222.3c-11.1,4.1-13.2,25.6-4.8,48s24.2,37.2,35.2,33c11.1-4.1,13.2-25.6,4.8-48
												S182.9,218.2,171.8,222.3z"/>
											<path id="bezier5" class="st6" d="M195.6,296.3c-3.3,0-5.9-5-6.4-11.5c0,0.6-0.1,1.1-0.1,1.7c0,7.3,2.9,13.3,6.4,13.3
												s6.4-5.9,6.4-13.3c0-0.6,0-1.1-0.1-1.7C201.5,291.2,198.8,296.3,195.6,296.3L195.6,296.3z"/>
											<path id="bezier6" class="st7" d="M209.4,248.4l-19.6-27.8l-15.8,7.2l-1.4-4.6h-62.9l-1.1,4l-14.4-6.6l-19.6,27.8
												l25,11.5l-15.4,55.8H201l-17-55.6L209.4,248.4z"/>
											<path id="bezier7" class="st8" d="M142.1,252.7c10,0,18.2-8.1,18.2-18.2s-8.1-18.2-18.2-18.2c-10,0-18.2,8.1-18.2,18.2
												S132.1,252.7,142.1,252.7z"/>
											<path id="bezier8" class="st9" d="M142.1,249.4c8.3,0,14.9-6.2,14.9-13.9s-6.7-13.9-14.9-13.9s-14.9,6.2-14.9,13.9
												S133.8,249.4,142.1,249.4z"/>
											<path id="bezier9" class="st5" d="M46.4,168.3c8,0,14.4-6.5,14.4-14.4c0-8-6.5-14.4-14.4-14.4S32,145.9,32,153.9
												C32,161.8,38.5,168.3,46.4,168.3z"/>
											<path id="bezier10" class="st5" d="M234.6,168.3c8,0,14.4-6.5,14.4-14.4c0-8-6.5-14.4-14.4-14.4c-8,0-14.4,6.5-14.4,14.4
												C220.1,161.8,226.6,168.3,234.6,168.3z"/>
											<path id="bezier11" class="st5" d="M141.6,235.6c52.8,0,95.7-33.5,95.7-74.8S194.4,86,141.6,86s-95.7,33.5-95.7,74.8
												S88.7,235.6,141.6,235.6z"/>
											<path id="bezier12" class="st10" d="M97.2,163.8c0,9.3-7.4-12-16.6-12S64,173.1,64,163.8s7.4-16.9,16.6-16.9
												S97.2,154.5,97.2,163.8L97.2,163.8z"/>
											<path id="bezier13" class="st10" d="M224.4,163.8c0,9.3-7.4-12-16.6-12c-9.1,0-16.6,21.3-16.6,12s7.4-16.9,16.6-16.9
												C217,146.9,224.4,154.5,224.4,163.8L224.4,163.8z"/>
											<path id="bezier14" class="st6" d="M206.2,134.8c11.8,0,21.5,8.1,22.4,18.5c0-0.5,0.1-0.9,0.1-1.4
												c0-11-10.1-19.9-22.4-19.9c-12.4,0-22.5,8.9-22.5,19.9c0,0.5,0,1,0.1,1.4C184.7,143,194.4,134.8,206.2,134.8L206.2,134.8
												z"/>
											<path id="bezier15" class="st6" d="M80.1,134.8c11.9,0,21.6,8.1,22.4,18.5c0-0.5,0.1-0.9,0.1-1.4
												c0-11-10.1-19.9-22.5-19.9s-22.4,8.9-22.4,19.9c0,0.5,0,1,0.1,1.4C58.5,143,68.3,134.8,80.1,134.8L80.1,134.8z"/>
											<path id="bezier16" class="st11" d="M237.1,105.2c0.1-1,0.1-2.1,0.1-3.1c0-13.3-7.6-25.6-20.2-35.4
												c-1.5-1.2,5.2-15,3.5-16.1c-1.4-0.9-11.2,10.8-12.7,9.9c-0.7-0.4-1.5-0.8-2.2-1.2c-2.8-1.5,0.4-17.9-2.7-19.2
												c-2.7-1.1-11.5,12.8-14.4,11.8c-13.9-4.7-29.9-7.4-46.9-7.4c-51.9,0-94.1,24.8-95.7,55.8h191.2L237.1,105.2L237.1,105.2
												L237.1,105.2z"/>
											<path id="bezier17" class="st11" d="M237.2,98.8H46h-0.1v59.8c0,0,62.5-19.7,83.3-26.3c13-4.1,52.1-16.5,52.1-16.5
												l55.9,42.8v-54.9L237.2,98.8L237.2,98.8z"/>
											<path id="bezier18" class="st12" d="M141,317.8v13.9h1.1v-13.9H141z"/>
											<path id="bezier19" class="st6" d="M142.1,171.5c2.6,0,4.8,1.8,5.2,4.3c0.1-0.4,0.1-0.7,0.1-1.1c0-2.9-2.4-5.3-5.3-5.3
												c-3,0-5.3,2.4-5.3,5.3c0,0.4,0,0.7,0.1,1.1C137.4,173.3,139.5,171.5,142.1,171.5L142.1,171.5z"/>
											<path id="bezier20" class="st13" d="M203.6,196.1c2.1,0,3.7-1.7,3.7-3.7c0-2.1-1.7-3.7-3.7-3.7c-2.1,0-3.7,1.7-3.7,3.7
												C199.8,194.4,201.5,196.1,203.6,196.1z"/>
											<path id="bezier21" class="st13" d="M210,200.3c0.9,0,1.6-0.7,1.6-1.6c0-0.9-0.7-1.6-1.6-1.6c-0.9,0-1.6,0.7-1.6,1.6
												S209.1,200.3,210,200.3z"/>
											<path id="bezier22" class="st13" d="M195.6,200.3c1.2,0,2.1-1,2.1-2.1c0-1.2-1-2.1-2.1-2.1c-1.2,0-2.1,0.9-2.1,2.1
												C193.4,199.4,194.4,200.3,195.6,200.3z"/>
											<path id="bezier23" class="st13" d="M200.4,199.3c0.3,0,0.5-0.2,0.5-0.5s-0.2-0.5-0.5-0.5s-0.5,0.2-0.5,0.5
												C199.8,199,200.1,199.3,200.4,199.3z"/>
											<path id="bezier24" class="st13" d="M86,196.1c2.1,0,3.7-1.7,3.7-3.7c0-2.1-1.7-3.7-3.7-3.7c-2.1,0-3.7,1.7-3.7,3.7
												C82.2,194.4,83.9,196.1,86,196.1z"/>
											<path id="bezier25" class="st13" d="M92.4,200.3c0.9,0,1.6-0.7,1.6-1.6c0-0.9-0.7-1.6-1.6-1.6s-1.6,0.7-1.6,1.6
												S91.5,200.3,92.4,200.3z"/>
											<path id="bezier26" class="st13" d="M76.9,200.3c1.2,0,2.1-1,2.1-2.1c0-1.2-0.9-2.1-2.1-2.1s-2.1,0.9-2.1,2.1
												C74.8,199.4,75.7,200.3,76.9,200.3z"/>
											<path id="bezier27" class="st13" d="M81.7,199.3c0.3,0,0.5-0.2,0.5-0.5s-0.2-0.5-0.5-0.5s-0.5,0.2-0.5,0.5
												C81.2,199,81.4,199.3,81.7,199.3z"/>
											<path id="bezier28" class="st14" d="M75.6,182.2c-8.4,0-15.9,3.6-21.2,9.2c9.1,16,25.1,29,45,36.7
												c3.3-4.7,5.2-10.5,5.2-16.7C104.7,195.2,91.7,182.2,75.6,182.2L75.6,182.2z"/>
											<path id="bezier29" class="st14" d="M207.5,182.2c8.4,0,15.9,3.6,21.2,9.2c-9.1,16-25.1,29-45,36.7
												c-3.3-4.7-5.2-10.5-5.2-16.7C178.4,195.2,191.4,182.2,207.5,182.2L207.5,182.2z"/>
											<path id="bezier30" class="st12" d="M74.2,336c2.7,0,4.8-1.7,4.8-3.7c0-2.1-2.2-3.7-4.8-3.7c-2.7,0-4.8,1.7-4.8,3.7
												C69.4,334.3,71.6,336,74.2,336z"/>
											<path id="bezier31" class="st12" d="M81.7,336c2.7,0,4.8-1.7,4.8-3.7c0-2.1-2.2-3.7-4.8-3.7c-2.7,0-4.8,1.7-4.8,3.7
												C76.9,334.3,79.1,336,81.7,336z"/>
											<path id="bezier32" class="st12" d="M89.2,336c2.7,0,4.8-1.7,4.8-3.7c0-2.1-2.2-3.7-4.8-3.7c-2.7,0-4.8,1.7-4.8,3.7
												C84.4,334.3,86.5,336,89.2,336z"/>
											<path id="bezier33" class="st12" d="M97.7,336c2.7,0,4.8-1.7,4.8-3.7c0-2.1-2.2-3.7-4.8-3.7c-2.7,0-4.8,1.7-4.8,3.7
												C92.9,334.3,95.1,336,97.7,336z"/>
											<path id="bezier34" class="st12" d="M105.2,336c2.7,0,4.8-1.7,4.8-3.7c0-2.1-2.2-3.7-4.8-3.7c-2.7,0-4.8,1.7-4.8,3.7
												C100.4,334.3,102.6,336,105.2,336z"/>
											<path id="bezier35" class="st12" d="M112.7,336c2.7,0,4.8-1.7,4.8-3.7c0-2.1-2.2-3.7-4.8-3.7c-2.7,0-4.8,1.7-4.8,3.7
												C107.9,334.3,110.1,336,112.7,336z"/>
											<path id="bezier36" class="st12" d="M121.3,336c2.7,0,4.8-1.7,4.8-3.7c0-2.1-2.2-3.7-4.8-3.7c-2.7,0-4.8,1.7-4.8,3.7
												C116.4,334.3,118.6,336,121.3,336z"/>
											<path id="bezier37" class="st12" d="M128.7,336c2.7,0,4.8-1.7,4.8-3.7c0-2.1-2.2-3.7-4.8-3.7c-2.7,0-4.8,1.7-4.8,3.7
												C123.9,334.3,126.1,336,128.7,336z"/>
											<path id="bezier38" class="st12" d="M136.2,336c2.7,0,4.8-1.7,4.8-3.7c0-2.1-2.1-3.7-4.8-3.7c-2.6,0-4.8,1.7-4.8,3.7
												S133.6,336,136.2,336z"/>
											<path id="bezier39" class="st12" d="M146.9,336c2.7,0,4.8-1.7,4.8-3.7c0-2.1-2.1-3.7-4.8-3.7s-4.8,1.7-4.8,3.7
												C142.1,334.3,144.3,336,146.9,336z"/>
											<path id="bezier40" class="st12" d="M154.4,336c2.7,0,4.8-1.7,4.8-3.7c0-2.1-2.2-3.7-4.8-3.7c-2.7,0-4.8,1.7-4.8,3.7
												C149.6,334.3,151.7,336,154.4,336z"/>
											<path id="bezier41" class="st12" d="M161.9,336c2.7,0,4.8-1.7,4.8-3.7c0-2.1-2.2-3.7-4.8-3.7c-2.7,0-4.8,1.7-4.8,3.7
												C157.1,334.3,159.2,336,161.9,336z"/>
											<path id="bezier42" class="st12" d="M170.4,336c2.7,0,4.8-1.7,4.8-3.7c0-2.1-2.2-3.7-4.8-3.7c-2.7,0-4.8,1.7-4.8,3.7
												C165.6,334.3,167.8,336,170.4,336z"/>
											<path id="bezier43" class="st12" d="M177.9,336c2.7,0,4.8-1.7,4.8-3.7c0-2.1-2.1-3.7-4.8-3.7s-4.8,1.7-4.8,3.7
												C173.1,334.3,175.3,336,177.9,336z"/>
											<path id="bezier44" class="st12" d="M185.4,336c2.7,0,4.8-1.7,4.8-3.7c0-2.1-2.2-3.7-4.8-3.7c-2.7,0-4.8,1.7-4.8,3.7
												C180.6,334.3,182.7,336,185.4,336z"/>
											<path id="bezier45" class="st12" d="M193.9,336c2.7,0,4.8-1.7,4.8-3.7c0-2.1-2.2-3.7-4.8-3.7c-2.7,0-4.8,1.7-4.8,3.7
												C189.1,334.3,191.3,336,193.9,336z"/>
											<path id="bezier46" class="st12" d="M201.4,336c2.7,0,4.8-1.7,4.8-3.7c0-2.1-2.2-3.7-4.8-3.7c-2.7,0-4.8,1.7-4.8,3.7
												C196.6,334.3,198.8,336,201.4,336z"/>
											<path id="bezier47" class="st12" d="M208.9,336c2.7,0,4.8-1.7,4.8-3.7c0-2.1-2.1-3.7-4.8-3.7s-4.8,1.7-4.8,3.7
												C204.1,334.3,206.3,336,208.9,336z"/>
											<path id="bezier48" class="st15" d="M142.1,180c24.2,0,43.8-2.2,43.8-4.8c0-2.7-19.6-4.8-43.8-4.8s-43.8,2.1-43.8,4.8
												S117.9,180,142.1,180z"/>
											<path id="bezier49" class="st8" d="M105.8,317.8c-20.1,0-36.3,6.7-36.3,15h72.7C142.1,324.5,125.8,317.8,105.8,317.8
												L105.8,317.8z"/>
											<path id="bezier50" class="st8" d="M178.4,317.8c-20.1,0-36.3,6.7-36.3,15h72.7C214.8,324.5,198.5,317.8,178.4,317.8
												L178.4,317.8z"/>
											<path id="bezier51" class="st16" d="M69.9,269c-2.1-2.9-4.9-4.4-6.3-3.4c-1.5,1-0.9,4.2,1.1,7.1c2.1,2.9,4.9,4.4,6.3,3.4
												C72.4,275,71.9,271.9,69.9,269z"/>
										</g>
										<path id="bezier52" class="st17" d="M173.1,199.8c0,6.8-13.4,12.3-29.9,12.3s-29.9-5.5-29.9-12.3s13.4-12.3,29.9-12.3
											S173.1,193,173.1,199.8L173.1,199.8z"/>
										<path id="bezier53" class="st5" d="M110,184.3v15h65.2v-15H110z"/>
									</g>
								</g>
							</g>
						</g>
					</g>
				</g>
			</g>
		</g>
	</g>
</g>
<g>
	<g>
		<g>
			<g>
				<g>
					<g>
						<g>
							<path class="st18" d="M241.5,182.1c-5.2-21-7.1-63.6-24.5-105.5c-10.4-25-18.5-35-23.3-39.1l0,0c0,0-17.6-20.3-49.2-20.3
								C114.5,17.3,97,36.6,97,36.6l0,0c-4.6,3.3-13.2,12.7-24.6,40.1C55,118.5,53.1,161.1,47.9,182.1s1.4,59.8,42,67.4
								c0,0-5.2-5.5-7.1-14.6c0,0,17,24.7,40.1,23.2h43.7c23.1,1.5,40.1-23.2,40.1-23.2c-1.9,9.1-7.1,14.6-7.1,14.6
								C240.1,242,246.7,203.2,241.5,182.1z"/>
							<path class="st18" d="M115.5,230.7"/>
							<g>
								<path class="st18" d="M209.5,83.2c0,36-27.8,65.1-62.2,65.1s-62.2-29.2-62.2-65.1c0-36,27.8-60.4,62.2-60.4
									C181.7,22.8,209.5,47.2,209.5,83.2z"/>
							</g>
						</g>
						<g>
							<path class="st19" d="M234,230.9c0,0,42.2,11.3,75.3,117L225,393.6l-17.8-61.4L234,230.9z"/>
							<path class="st19" d="M52.4,231.5c0,0-34.4,10.7-67.6,116.4l76.7,45.7l17.8-61.4L52.4,231.5z"/>
							<g>
								<path class="st19" d="M115.5,207.9l-59.6,22C44.7,234,38.4,246,41.4,257.6L85.1,431h117.2l40.4-181.5
									c1.8-8.1-2.5-16.2-10.1-19.3l-57.8-23.1L115.5,207.9z"/>
								<line class="st20" x1="65.8" y1="354.3" x2="52" y2="299.8"/>
								<line class="st20" x1="216.9" y1="365.7" x2="230.7" y2="301.9"/>
							</g>
						</g>
					</g>
				</g>
			</g>
		</g>
	</g>
	<g>
		<path class="st21" d="M174.9,229.9l-7.2-63.2c0,0-7.4,7.6-17.3,9.5c-9.9,1.8-19.5-4-19.6-4c-0.1-0.1-8.1-6.7-8.1-6.7l-7.2,65.3
			c0,0.7,4.9-0.2,4.8,0.5C120.3,231.2,174.9,230.5,174.9,229.9z"/>
		<path class="st18" d="M118.1,167.6c0,0,15.1,29.4,33.2,25.2c18.8-4.4,18.7-29.2,18.7-29.2L118.1,167.6z"/>
		<path class="st21" d="M201.6,86.6c0,22.4-3.3,41.8-6.5,55.5c-3.2,13.4-12.2,22.8-24.9,30.4l-2.3,1.4c-13.5,8-30.9,8.2-44.5,0.5
			l0,0c-13.8-7.8-23.4-18-26.4-32.5c-5.4-26.2-6-55.3-6-55.3S85.8,30,145.5,31.1S201.6,86.6,201.6,86.6z"/>
		<g>
			<path class="st21" d="M98.1,139.7c-10,8.7-31-25.6-21.3-34.9c9.7-9.2,16.5,5.8,16.5,5.8l2,10.8l2.9,14.6l0.8,3.3L98.1,139.7z"/>
			<g>
				<g>
					<path class="st22" d="M81.1,116.4c0,0,4.1-8.9,13.6,6.7"/>
				</g>
			</g>
		</g>
		<g>
			<path class="st21" d="M194.4,139.9c10.1,8.5,30.5-26.2,20.7-35.2c-9.8-9.1-16.4,6.1-16.4,6.1l-1.8,10.9l-2.7,14.6l-0.7,3.3
				L194.4,139.9z"/>
			<g>
				<g>
					<path class="st22" d="M211,116.3c0,0-4.2-8.8-13.5,6.9"/>
				</g>
			</g>
		</g>
		<path class="st18" d="M190.5,38.8c0,0-47.6,57.2-99.8,33.9c0,0-11.5-45.6,51.2-49.7L190.5,38.8z"/>
		<path class="st18" d="M92.1,106.4c0,0,18.8-30.8,13.5-61.9c0,0-12.9,8.5-17.3,30.4C84,96.9,92.1,106.4,92.1,106.4z"/>
		<path class="st18" d="M201.3,104.8c0,0-23.3-33.4-18.1-64.6c0,0,14.4,10.6,18.7,32.5S201.3,104.8,201.3,104.8z"/>
		<path class="st18" d="M156,30.3c9.8,2.7,11.1,52.1,53.5,53l-15.8-46.9L156,30.3z"/>
		<g>
			<g>
				<path class="st23" d="M136.7,92.3L105,96.1c0,0,2.5-8.4,15.5-9.9C133.4,84.8,136.7,92.3,136.7,92.3z"/>
				<path class="st23" d="M154.9,92.3l31.6,3.8c0,0-2.5-8.4-15.5-9.9C158.2,84.8,154.9,92.3,154.9,92.3z"/>
				<g>
					<g>
						<path class="st24" d="M127.4,141.9l9.1-3.9c1.5-0.3,3.1-0.3,4.7,0.1l4,0.9l3.4-1.1c1.6-0.5,3.7-0.5,5.1-0.1l8.6,4L127.4,141.9
							z"/>
					</g>
					<path class="st24" d="M127.4,141.9c0,0,4.5,12.2,17.8,12.2s17.2-12.3,17.2-12.3L127.4,141.9z"/>
					<path class="st8" d="M130.2,142.5c0,0,2,5.4,15,5.4c11.9,0,15.1-5.6,15.1-5.6L130.2,142.5z"/>
					<ellipse class="st25" cx="137.9" cy="149.9" rx="1.5" ry="1"/>
				</g>
				<polyline class="st26" points="142.9,120.4 142.9,130 148.5,130.1 				"/>
				<path class="st22" d="M128.3,109.9c0,0-7.5-5.3-14.5,0"/>
				<path class="st22" d="M163.5,109.9c0,0,7.5-5.3,14.5,0"/>
			</g>
		</g>
		<g>
			<path class="st27" d="M190.5,125.8h-31.9c-2.5,0-4.5-2-4.5-4.5v-16.8c0-2.5,2-4.5,4.5-4.5h31.9c2.5,0,4.5,2,4.5,4.5v16.8
				C195,123.8,193,125.8,190.5,125.8z"/>
			<g>
				<path class="st28" d="M187.1,127.8h-24c-5.8,0-10.4-4.7-10.4-10.5v-8.8c0-5.8,4.7-10.5,10.4-10.5h24c5.8,0,10.4,4.7,10.4,10.5
					v8.8C197.5,123,192.8,127.8,187.1,127.8z M163.1,101.8c-3.6,0-6.6,3-6.6,6.6v8.8c0,3.7,3,6.6,6.6,6.6h24c3.6,0,6.6-3,6.6-6.6
					v-8.8c0-3.7-3-6.6-6.6-6.6H163.1z"/>
			</g>
			<path class="st27" d="M133.3,125.8h-31.9c-2.5,0-4.5-2-4.5-4.5v-16.8c0-2.5,2-4.5,4.5-4.5h31.9c2.5,0,4.5,2,4.5,4.5v16.8
				C137.8,123.8,135.8,125.8,133.3,125.8z"/>
			<g>
				<path class="st28" d="M128.6,127.8h-24c-5.8,0-10.4-4.7-10.4-10.5v-8.8c0-5.8,4.7-10.5,10.4-10.5h24c5.8,0,10.4,4.7,10.4,10.5
					v8.8C139.1,123,134.4,127.8,128.6,127.8z M104.6,101.8c-3.6,0-6.6,3-6.6,6.6v8.8c0,3.7,3,6.6,6.6,6.6h24c3.6,0,6.6-3,6.6-6.6
					v-8.8c0-3.7-3-6.6-6.6-6.6H104.6z"/>
			</g>
			<g>
				<g>
					<path class="st28" d="M153.5,114.8c-2.8-3.1-5.5-4.6-8-4.4c-3.8,0.3-6.4,4.2-6.5,4.2l-3.2-2.1c0.1-0.2,3.7-5.5,9.4-6
						c3.8-0.3,7.6,1.6,11.2,5.7L153.5,114.8z"/>
				</g>
			</g>
		</g>
	</g>
	<path class="st18" d="M125.8,253.6c-35-44.3-34.9-72.6-35.4-92.6H51.7c-1.2,8-2.4,15-3.7,20.5c-5.2,21,1.4,59.8,42,67.4
		c0,0-5.2-5.5-7.1-14.6c0,0,17,24.7,40.1,23.2h6.2C128.1,256.2,126.9,254.9,125.8,253.6z"/>
	<polygon class="st21" points="115.5,207.9 89.4,217.5 146.2,253.7 198.8,216.7 174.9,207.1 	"/>
</g>
</svg>
