<?xml version="1.0" encoding="utf-8"?>
<!-- Generator: Adobe Illustrator 22.0.0, SVG Export Plug-In . SVG Version: 6.00 Build 0)  -->
<svg version="1.1" id="Capa_1" xmlns="http://www.w3.org/2000/svg" xmlns:xlink="http://www.w3.org/1999/xlink" x="0px" y="0px"
	 viewBox="0 0 284 284" style="enable-background:new 0 0 284 284;" xml:space="preserve">
<style type="text/css">
	.st0{display:none;fill:#F3F2F1;}
	.st1{display:none;}
	.st2{display:inline;}
	.st3{clip-path:url(#SVGID_2_);}
	.st4{fill:#F3C5AD;}
	.st5{fill:#1A1718;fill-opacity:0.3;}
	.st6{fill:#3AA488;}
	.st7{fill:#FFFFFF;}
	.st8{fill:#D5A691;}
	.st9{fill:#1A1718;fill-opacity:0.38;}
	.st10{fill:#ECA042;}
	.st11{fill:#2C2723;}
	.st12{fill:#F6AC2C;fill-opacity:0.5;}
	.st13{fill:#070706;fill-opacity:5.000000e-02;}
	.st14{fill:#1A1718;fill-opacity:5.000000e-02;}
	.st15{fill:#F1B89C;}
	.st16{fill:none;stroke:#A48677;stroke-width:3;}
	.st17{fill:#F3F2F1;}
	.st18{clip-path:url(#SVGID_4_);}
	.st19{fill:#030930;}
	.st20{fill:#4AB19A;}
	.st21{fill:none;stroke:#1D0A03;stroke-width:1.0769;stroke-miterlimit:10;}
	.st22{fill:#E69560;}
	.st23{fill:none;stroke:#121C36;stroke-width:1.4232;stroke-linecap:round;stroke-linejoin:round;stroke-miterlimit:10;}
	.st24{fill:#121C36;}
	.st25{fill:#FB577F;}
	.st26{fill:#F6939D;}
	.st27{fill:none;stroke:#121C36;stroke-width:1.4001;stroke-linecap:round;stroke-linejoin:round;stroke-miterlimit:10;}
	.st28{opacity:0.22;fill:#FFFFFF;stroke:#292929;stroke-miterlimit:10;enable-background:new    ;}
	.st29{fill:#003C82;}
</style>
<circle id="oval2" class="st0" cx="141" cy="141" r="141"/>
<g class="st1">
	<g class="st2">
		<g>
			<g>
				<g>
					<g>
						<g>
							<defs>
								<circle id="SVGID_1_" cx="141" cy="141" r="141"/>
							</defs>
							<clipPath id="SVGID_2_">
								<use xlink:href="#SVGID_1_"  style="overflow:visible;"/>
							</clipPath>
							<g id="group" class="st3">
								<g id="page1">
									<g id="layer_1">
										<g id="layer_1_1_">
											<path id="bezier2" class="st4" d="M106.2,234.3c11.1,4.1,13.2,25.6,4.8,48s-24.1,37.2-35.2,33
												c-11.1-4.1-13.2-25.6-4.8-48S95.1,230.2,106.2,234.3z"/>
											<path id="bezier" d="M85.4,313.6v17.1h113.3v-17.1H85.4z"/>
											<path id="bezier3" class="st5" d="M69.5,287.4c-1.7-1.1-1.7-5.5-0.2-10.2c-0.2,0.4-0.3,0.8-0.5,1.2
												c-1.9,5.1-2,10.2-0.2,11.4c1.8,1.2,4.9-1.9,6.8-7c0.1-0.4,0.3-0.8,0.4-1.2C73.9,286,71.2,288.5,69.5,287.4L69.5,287.4z"
												/>
											<path id="bezier4" class="st4" d="M171.8,222.3c-11.1,4.1-13.2,25.6-4.8,48s24.2,37.2,35.2,33c11.1-4.1,13.2-25.6,4.8-48
												S182.9,218.2,171.8,222.3z"/>
											<path id="bezier5" class="st5" d="M195.6,296.3c-3.3,0-5.9-5-6.4-11.5c0,0.6-0.1,1.1-0.1,1.7c0,7.3,2.9,13.3,6.4,13.3
												s6.4-5.9,6.4-13.3c0-0.6,0-1.1-0.1-1.7C201.5,291.2,198.8,296.3,195.6,296.3L195.6,296.3z"/>
											<path id="bezier6" class="st6" d="M209.4,248.4l-19.6-27.8l-15.8,7.2l-1.4-4.6h-62.9l-1.1,4l-14.4-6.6l-19.6,27.8
												l25,11.5l-15.4,55.8H201l-17-55.6L209.4,248.4z"/>
											<path id="bezier7" class="st7" d="M142.1,252.7c10,0,18.2-8.1,18.2-18.2s-8.1-18.2-18.2-18.2c-10,0-18.2,8.1-18.2,18.2
												S132.1,252.7,142.1,252.7z"/>
											<path id="bezier8" class="st8" d="M142.1,249.4c8.3,0,14.9-6.2,14.9-13.9s-6.7-13.9-14.9-13.9s-14.9,6.2-14.9,13.9
												S133.8,249.4,142.1,249.4z"/>
											<path id="bezier9" class="st4" d="M46.4,168.3c8,0,14.4-6.5,14.4-14.4c0-8-6.5-14.4-14.4-14.4S32,145.9,32,153.9
												C32,161.8,38.5,168.3,46.4,168.3z"/>
											<path id="bezier10" class="st4" d="M234.6,168.3c8,0,14.4-6.5,14.4-14.4c0-8-6.5-14.4-14.4-14.4c-8,0-14.4,6.5-14.4,14.4
												C220.1,161.8,226.6,168.3,234.6,168.3z"/>
											<path id="bezier11" class="st4" d="M141.6,235.6c52.8,0,95.7-33.5,95.7-74.8S194.4,86,141.6,86s-95.7,33.5-95.7,74.8
												S88.7,235.6,141.6,235.6z"/>
											<path id="bezier12" class="st9" d="M97.2,163.8c0,9.3-7.4-12-16.6-12S64,173.1,64,163.8s7.4-16.9,16.6-16.9
												S97.2,154.5,97.2,163.8L97.2,163.8z"/>
											<path id="bezier13" class="st9" d="M224.4,163.8c0,9.3-7.4-12-16.6-12c-9.1,0-16.6,21.3-16.6,12s7.4-16.9,16.6-16.9
												C217,146.9,224.4,154.5,224.4,163.8L224.4,163.8z"/>
											<path id="bezier14" class="st5" d="M206.2,134.8c11.8,0,21.5,8.1,22.4,18.5c0-0.5,0.1-0.9,0.1-1.4
												c0-11-10.1-19.9-22.4-19.9c-12.4,0-22.5,8.9-22.5,19.9c0,0.5,0,1,0.1,1.4C184.7,143,194.4,134.8,206.2,134.8L206.2,134.8
												z"/>
											<path id="bezier15" class="st5" d="M80.1,134.8c11.9,0,21.6,8.1,22.4,18.5c0-0.5,0.1-0.9,0.1-1.4
												c0-11-10.1-19.9-22.5-19.9s-22.4,8.9-22.4,19.9c0,0.5,0,1,0.1,1.4C58.5,143,68.3,134.8,80.1,134.8L80.1,134.8z"/>
											<path id="bezier16" class="st10" d="M237.1,105.2c0.1-1,0.1-2.1,0.1-3.1c0-13.3-7.6-25.6-20.2-35.4
												c-1.5-1.2,5.2-15,3.5-16.1c-1.4-0.9-11.2,10.8-12.7,9.9c-0.7-0.4-1.5-0.8-2.2-1.2c-2.8-1.5,0.4-17.9-2.7-19.2
												c-2.7-1.1-11.5,12.8-14.4,11.8c-13.9-4.7-29.9-7.4-46.9-7.4c-51.9,0-94.1,24.8-95.7,55.8h191.2L237.1,105.2L237.1,105.2
												L237.1,105.2z"/>
											<path id="bezier17" class="st10" d="M237.2,98.8H46h-0.1v59.8c0,0,62.5-19.7,83.3-26.3c13-4.1,52.1-16.5,52.1-16.5
												l55.9,42.8v-54.9L237.2,98.8L237.2,98.8z"/>
											<path id="bezier18" class="st11" d="M141,317.8v13.9h1.1v-13.9H141z"/>
											<path id="bezier19" class="st5" d="M142.1,171.5c2.6,0,4.8,1.8,5.2,4.3c0.1-0.4,0.1-0.7,0.1-1.1c0-2.9-2.4-5.3-5.3-5.3
												c-3,0-5.3,2.4-5.3,5.3c0,0.4,0,0.7,0.1,1.1C137.4,173.3,139.5,171.5,142.1,171.5L142.1,171.5z"/>
											<path id="bezier20" class="st12" d="M203.6,196.1c2.1,0,3.7-1.7,3.7-3.7c0-2.1-1.7-3.7-3.7-3.7c-2.1,0-3.7,1.7-3.7,3.7
												C199.8,194.4,201.5,196.1,203.6,196.1z"/>
											<path id="bezier21" class="st12" d="M210,200.3c0.9,0,1.6-0.7,1.6-1.6c0-0.9-0.7-1.6-1.6-1.6c-0.9,0-1.6,0.7-1.6,1.6
												S209.1,200.3,210,200.3z"/>
											<path id="bezier22" class="st12" d="M195.6,200.3c1.2,0,2.1-1,2.1-2.1c0-1.2-1-2.1-2.1-2.1c-1.2,0-2.1,0.9-2.1,2.1
												C193.4,199.4,194.4,200.3,195.6,200.3z"/>
											<path id="bezier23" class="st12" d="M200.4,199.3c0.3,0,0.5-0.2,0.5-0.5s-0.2-0.5-0.5-0.5s-0.5,0.2-0.5,0.5
												C199.8,199,200.1,199.3,200.4,199.3z"/>
											<path id="bezier24" class="st12" d="M86,196.1c2.1,0,3.7-1.7,3.7-3.7c0-2.1-1.7-3.7-3.7-3.7c-2.1,0-3.7,1.7-3.7,3.7
												C82.2,194.4,83.9,196.1,86,196.1z"/>
											<path id="bezier25" class="st12" d="M92.4,200.3c0.9,0,1.6-0.7,1.6-1.6c0-0.9-0.7-1.6-1.6-1.6s-1.6,0.7-1.6,1.6
												S91.5,200.3,92.4,200.3z"/>
											<path id="bezier26" class="st12" d="M76.9,200.3c1.2,0,2.1-1,2.1-2.1c0-1.2-0.9-2.1-2.1-2.1s-2.1,0.9-2.1,2.1
												C74.8,199.4,75.7,200.3,76.9,200.3z"/>
											<path id="bezier27" class="st12" d="M81.7,199.3c0.3,0,0.5-0.2,0.5-0.5s-0.2-0.5-0.5-0.5s-0.5,0.2-0.5,0.5
												C81.2,199,81.4,199.3,81.7,199.3z"/>
											<path id="bezier28" class="st13" d="M75.6,182.2c-8.4,0-15.9,3.6-21.2,9.2c9.1,16,25.1,29,45,36.7
												c3.3-4.7,5.2-10.5,5.2-16.7C104.7,195.2,91.7,182.2,75.6,182.2L75.6,182.2z"/>
											<path id="bezier29" class="st13" d="M207.5,182.2c8.4,0,15.9,3.6,21.2,9.2c-9.1,16-25.1,29-45,36.7
												c-3.3-4.7-5.2-10.5-5.2-16.7C178.4,195.2,191.4,182.2,207.5,182.2L207.5,182.2z"/>
											<path id="bezier30" class="st11" d="M74.2,336c2.7,0,4.8-1.7,4.8-3.7c0-2.1-2.2-3.7-4.8-3.7c-2.7,0-4.8,1.7-4.8,3.7
												C69.4,334.3,71.6,336,74.2,336z"/>
											<path id="bezier31" class="st11" d="M81.7,336c2.7,0,4.8-1.7,4.8-3.7c0-2.1-2.2-3.7-4.8-3.7c-2.7,0-4.8,1.7-4.8,3.7
												C76.9,334.3,79.1,336,81.7,336z"/>
											<path id="bezier32" class="st11" d="M89.2,336c2.7,0,4.8-1.7,4.8-3.7c0-2.1-2.2-3.7-4.8-3.7c-2.7,0-4.8,1.7-4.8,3.7
												C84.4,334.3,86.5,336,89.2,336z"/>
											<path id="bezier33" class="st11" d="M97.7,336c2.7,0,4.8-1.7,4.8-3.7c0-2.1-2.2-3.7-4.8-3.7c-2.7,0-4.8,1.7-4.8,3.7
												C92.9,334.3,95.1,336,97.7,336z"/>
											<path id="bezier34" class="st11" d="M105.2,336c2.7,0,4.8-1.7,4.8-3.7c0-2.1-2.2-3.7-4.8-3.7c-2.7,0-4.8,1.7-4.8,3.7
												C100.4,334.3,102.6,336,105.2,336z"/>
											<path id="bezier35" class="st11" d="M112.7,336c2.7,0,4.8-1.7,4.8-3.7c0-2.1-2.2-3.7-4.8-3.7c-2.7,0-4.8,1.7-4.8,3.7
												C107.9,334.3,110.1,336,112.7,336z"/>
											<path id="bezier36" class="st11" d="M121.3,336c2.7,0,4.8-1.7,4.8-3.7c0-2.1-2.2-3.7-4.8-3.7c-2.7,0-4.8,1.7-4.8,3.7
												C116.4,334.3,118.6,336,121.3,336z"/>
											<path id="bezier37" class="st11" d="M128.7,336c2.7,0,4.8-1.7,4.8-3.7c0-2.1-2.2-3.7-4.8-3.7c-2.7,0-4.8,1.7-4.8,3.7
												C123.9,334.3,126.1,336,128.7,336z"/>
											<path id="bezier38" class="st11" d="M136.2,336c2.7,0,4.8-1.7,4.8-3.7c0-2.1-2.1-3.7-4.8-3.7c-2.6,0-4.8,1.7-4.8,3.7
												S133.6,336,136.2,336z"/>
											<path id="bezier39" class="st11" d="M146.9,336c2.7,0,4.8-1.7,4.8-3.7c0-2.1-2.1-3.7-4.8-3.7s-4.8,1.7-4.8,3.7
												C142.1,334.3,144.3,336,146.9,336z"/>
											<path id="bezier40" class="st11" d="M154.4,336c2.7,0,4.8-1.7,4.8-3.7c0-2.1-2.2-3.7-4.8-3.7c-2.7,0-4.8,1.7-4.8,3.7
												C149.6,334.3,151.7,336,154.4,336z"/>
											<path id="bezier41" class="st11" d="M161.9,336c2.7,0,4.8-1.7,4.8-3.7c0-2.1-2.2-3.7-4.8-3.7c-2.7,0-4.8,1.7-4.8,3.7
												C157.1,334.3,159.2,336,161.9,336z"/>
											<path id="bezier42" class="st11" d="M170.4,336c2.7,0,4.8-1.7,4.8-3.7c0-2.1-2.2-3.7-4.8-3.7c-2.7,0-4.8,1.7-4.8,3.7
												C165.6,334.3,167.8,336,170.4,336z"/>
											<path id="bezier43" class="st11" d="M177.9,336c2.7,0,4.8-1.7,4.8-3.7c0-2.1-2.1-3.7-4.8-3.7s-4.8,1.7-4.8,3.7
												C173.1,334.3,175.3,336,177.9,336z"/>
											<path id="bezier44" class="st11" d="M185.4,336c2.7,0,4.8-1.7,4.8-3.7c0-2.1-2.2-3.7-4.8-3.7c-2.7,0-4.8,1.7-4.8,3.7
												C180.6,334.3,182.7,336,185.4,336z"/>
											<path id="bezier45" class="st11" d="M193.9,336c2.7,0,4.8-1.7,4.8-3.7c0-2.1-2.2-3.7-4.8-3.7c-2.7,0-4.8,1.7-4.8,3.7
												C189.1,334.3,191.3,336,193.9,336z"/>
											<path id="bezier46" class="st11" d="M201.4,336c2.7,0,4.8-1.7,4.8-3.7c0-2.1-2.2-3.7-4.8-3.7c-2.7,0-4.8,1.7-4.8,3.7
												C196.6,334.3,198.8,336,201.4,336z"/>
											<path id="bezier47" class="st11" d="M208.9,336c2.7,0,4.8-1.7,4.8-3.7c0-2.1-2.1-3.7-4.8-3.7s-4.8,1.7-4.8,3.7
												C204.1,334.3,206.3,336,208.9,336z"/>
											<path id="bezier48" class="st14" d="M142.1,180c24.2,0,43.8-2.2,43.8-4.8c0-2.7-19.6-4.8-43.8-4.8s-43.8,2.1-43.8,4.8
												S117.9,180,142.1,180z"/>
											<path id="bezier49" class="st7" d="M105.8,317.8c-20.1,0-36.3,6.7-36.3,15h72.7C142.1,324.5,125.8,317.8,105.8,317.8
												L105.8,317.8z"/>
											<path id="bezier50" class="st7" d="M178.4,317.8c-20.1,0-36.3,6.7-36.3,15h72.7C214.8,324.5,198.5,317.8,178.4,317.8
												L178.4,317.8z"/>
											<path id="bezier51" class="st15" d="M69.9,269c-2.1-2.9-4.9-4.4-6.3-3.4c-1.5,1-0.9,4.2,1.1,7.1c2.1,2.9,4.9,4.4,6.3,3.4
												C72.4,275,71.9,271.9,69.9,269z"/>
										</g>
										<path id="bezier52" class="st16" d="M173.1,199.8c0,6.8-13.4,12.3-29.9,12.3s-29.9-5.5-29.9-12.3s13.4-12.3,29.9-12.3
											S173.1,193,173.1,199.8L173.1,199.8z"/>
										<path id="bezier53" class="st4" d="M110,184.3v15h65.2v-15H110z"/>
									</g>
								</g>
							</g>
						</g>
					</g>
				</g>
			</g>
		</g>
	</g>
</g>
<ellipse class="st17" cx="141.3" cy="141" rx="140.3" ry="141"/>
<g>
	<g>
		<defs>
			<ellipse id="SVGID_3_" cx="141.3" cy="141" rx="140.3" ry="141"/>
		</defs>
		<clipPath id="SVGID_4_">
			<use xlink:href="#SVGID_3_"  style="overflow:visible;"/>
		</clipPath>
		<g class="st18">
			<g>
				<g>
					<g>
						<g>
							<g>
								<g>
									<g>
										<g>
											<path class="st19" d="M357.4,278.3c-8.9-35.8-12.1-108.5-41.8-180c-17.7-42.7-31.6-59.7-39.8-66.7l0,0
												c0,0-30-34.6-84-34.6c-51.1,0.1-81,33-81,33l0,0c-7.8,5.6-22.5,21.7-42,68.4c-29.7,71.3-32.9,144-41.8,179.9
												s2.4,102,71.7,115c0,0-8.9-9.4-12.1-24.9c0,0,29,42.2,68.4,39.6h74.6c39.4,2.6,68.4-39.6,68.4-39.6
												c-3.2,15.5-12.1,24.9-12.1,24.9C355,380.5,366.3,314.3,357.4,278.3z"/>
											<path class="st19" d="M142.4,361.2"/>
											<g>
												<path class="st19" d="M302.8,109.5c0,61.4-47.4,111.1-106.1,111.1S90.5,170.8,90.5,109.5c0-61.4,47.5-103,106.2-103
													S302.8,48.1,302.8,109.5z"/>
											</g>
										</g>
										<g>
											<path class="st20" d="M344.6,361.6c0,0,72,19.3,128.5,199.7l-143.9,78l-30.4-104.8L344.6,361.6z"/>
											<path class="st20" d="M34.7,362.6c0,0-58.7,18.3-115.4,198.6l130.9,78l30.4-104.8L34.7,362.6z"/>
											<g>
												<path class="st20" d="M142.4,322.3L40.7,359.9c-19.1,7-29.9,27.5-24.7,47.3L90.5,703h200l68.9-309.7
													c3.1-13.8-4.3-27.6-17.2-32.9L243.6,321L142.4,322.3z"/>
												<line class="st21" x1="57.6" y1="572.2" x2="34" y2="479.2"/>
												<line class="st21" x1="315.4" y1="591.6" x2="339" y2="482.7"/>
											</g>
										</g>
									</g>
								</g>
							</g>
						</g>
						<g>
							<path class="st22" d="M243.8,359.9L231.5,252c0,0-12.6,13-29.5,16.2c-16.9,3.1-33.3-6.8-33.4-6.8
								c-0.2-0.2-13.8-11.4-13.8-11.4l-12.3,111.4c0,1.2,8.4-0.3,8.2,0.9C150.6,362.1,243.8,360.9,243.8,359.9z"/>
							<path class="st19" d="M146.8,253.6c0,0,25.8,50.2,56.7,43c32.1-7.5,31.9-49.8,31.9-49.8L146.8,253.6z"/>
							<path class="st22" d="M289.3,115.3c0,38.2-5.6,71.3-11.1,94.7c-5.5,22.9-20.8,38.9-42.5,51.9l-3.9,2.4
								c-23,13.7-52.7,14-75.9,0.9l0,0c-23.5-13.3-39.9-30.7-45.1-55.5c-9.2-44.7-10.2-94.4-10.2-94.4s-8.9-96.6,93-94.7
								S289.3,115.3,289.3,115.3z"/>
							<g>
								<path class="st22" d="M112.7,205.9c-17.1,14.8-52.9-43.7-36.3-59.6c16.6-15.7,28.2,9.9,28.2,9.9l3.4,18.4l4.9,24.9l1.4,5.6
									L112.7,205.9z"/>
								<g>
									<g>
										<path class="st23" d="M83.7,166.2c0,0,7-15.2,23.2,11.4"/>
									</g>
								</g>
							</g>
							<g>
								<path class="st22" d="M277,206.3c17.2,14.5,52-44.7,35.3-60.1c-16.7-15.5-28,10.4-28,10.4l-3.1,18.6l-4.6,24.9l-1.2,5.6
									L277,206.3z"/>
								<g>
									<g>
										<path class="st23" d="M305.4,166c0,0-7.2-15-23,11.8"/>
									</g>
								</g>
							</g>
							<path class="st19" d="M302.8,109.7l-27-80l-36-5.8l-52.3-17c-86.1,5.6-90.2,57.2-88.5,77c-1.1,3.6-2.1,7.4-3,11.5
								c-7.4,37.5,6.5,53.7,6.5,53.7s12.9-21.2,20-50.1c37.5,8.9,62.9-13.8,113.7-33.4c6.7,12.6,15.8,25,29.1,33.5
								c9.5,27.4,23.5,47.4,23.5,47.4s5.8-12,3.5-37.6C295.6,109.3,299.1,109.6,302.8,109.7z"/>
							<g>
								<g>
									<path class="st24" d="M178.6,125.1l-54.1,6.5c0,0,4.3-14.3,26.5-16.9C172.9,112.3,178.6,125.1,178.6,125.1z"/>
									<path class="st24" d="M209.6,125.1l53.9,6.5c0,0-4.3-14.3-26.5-16.9C215.3,112.3,209.6,125.1,209.6,125.1z"/>
									<g>
										<g>
											<path class="st25" d="M162.7,209.7l15.5-6.7c2.6-0.5,5.3-0.5,8,0.2l6.8,1.5l5.8-1.9c2.7-0.9,6.3-0.9,8.7-0.2l14.7,6.8
												L162.7,209.7z"/>
										</g>
										<path class="st25" d="M162.7,209.7c0,0,7.7,20.8,30.4,20.8s29.4-21,29.4-21L162.7,209.7z"/>
										<path class="st7" d="M167.5,210.7c0,0,3.4,9.2,25.6,9.2c20.3,0,25.8-9.6,25.8-9.6L167.5,210.7z"/>
										<ellipse class="st26" cx="180.6" cy="223.3" rx="2.6" ry="1.7"/>
									</g>
									<polyline class="st27" points="189.2,173 189.2,189.4 198.7,189.6 									"/>
								</g>
								<circle class="st24" cx="248.5" cy="151.1" r="6.9"/>
								<circle class="st24" cx="162.7" cy="151.8" r="6.9"/>
								<g>
									<path class="st28" d="M270,179h-54.4c-4.3,0-7.7-3.4-7.7-7.7v-28.7c0-4.3,3.4-7.7,7.7-7.7H270c4.3,0,7.7,3.4,7.7,7.7v28.7
										C277.6,175.6,274.2,179,270,179z"/>
									<g>
										<path class="st29" d="M264.2,182.4h-41c-9.9,0-17.7-8-17.7-17.9v-15c0-9.9,8-17.9,17.7-17.9h41c9.9,0,17.7,8,17.7,17.9v15
											C281.9,174.2,273.9,182.4,264.2,182.4z M223.2,138.1c-6.1,0-11.3,5.1-11.3,11.3v15c0,6.3,5.1,11.3,11.3,11.3h41
											c6.1,0,11.3-5.1,11.3-11.3v-15c0-6.3-5.1-11.3-11.3-11.3H223.2z"/>
									</g>
									<path class="st28" d="M172.4,179H118c-4.3,0-7.7-3.4-7.7-7.7v-28.7c0-4.3,3.4-7.7,7.7-7.7h54.4c4.3,0,7.7,3.4,7.7,7.7v28.7
										C180,175.6,176.6,179,172.4,179z"/>
									<g>
										<path class="st29" d="M164.3,182.4h-41c-9.9,0-17.7-8-17.7-17.9v-15c0-9.9,8-17.9,17.7-17.9h41c9.9,0,17.7,8,17.7,17.9v15
											C182.3,174.2,174.2,182.4,164.3,182.4z M123.4,138.1c-6.1,0-11.3,5.1-11.3,11.3v15c0,6.3,5.1,11.3,11.3,11.3h41
											c6.1,0,11.3-5.1,11.3-11.3v-15c0-6.3-5.1-11.3-11.3-11.3H123.4z"/>
									</g>
									<g>
										<g>
											<path class="st29" d="M206.8,160.2c-4.8-5.3-9.4-7.8-13.7-7.5c-6.5,0.5-10.9,7.2-11.1,7.2l-5.5-3.6
												c0.2-0.3,6.3-9.4,16-10.2c6.5-0.5,13,2.7,19.1,9.7L206.8,160.2z"/>
										</g>
									</g>
								</g>
							</g>
						</g>
						<polygon class="st22" points="142.4,322.3 97.9,338.7 194.8,400.5 284.6,337.3 243.8,321 						"/>
						<path class="st19" d="M160,400.3c-59.7-75.6-59.6-123.9-60.4-158h-66c-2,13.7-4.1,25.6-6.3,35c-8.9,35.8,2.4,102,71.7,115
							c0,0-8.9-9.4-12.1-24.9c0,0,29,42.2,68.4,39.6h10.6C163.9,404.7,161.9,402.5,160,400.3z"/>
					</g>
				</g>
			</g>
		</g>
	</g>
</g>
</svg>
