<?xml version="1.0" encoding="utf-8"?>
<!-- Generator: Adobe Illustrator 22.0.0, SVG Export Plug-In . SVG Version: 6.00 Build 0)  -->
<svg version="1.1" xmlns="http://www.w3.org/2000/svg" xmlns:xlink="http://www.w3.org/1999/xlink" x="0px" y="0px"
	 viewBox="0 0 284 284" style="enable-background:new 0 0 284 284;" xml:space="preserve">
<style type="text/css">
	.st0{display:none;}
	.st1{display:inline;}
	.st2{clip-path:url(#SVGID_2_);}
	.st3{fill:#F3C5AD;}
	.st4{fill:#1A1718;fill-opacity:0.3;}
	.st5{fill:#3AA488;}
	.st6{fill:#FFFFFF;}
	.st7{fill:#D5A691;}
	.st8{fill:#1A1718;fill-opacity:0.38;}
	.st9{fill:#ECA042;}
	.st10{fill:#2C2723;}
	.st11{fill:#F6AC2C;fill-opacity:0.5;}
	.st12{fill:#070706;fill-opacity:5.000000e-02;}
	.st13{fill:#1A1718;fill-opacity:5.000000e-02;}
	.st14{fill:#F1B89C;}
	.st15{fill:none;stroke:#A48677;stroke-width:3;}
	.st16{fill:#F3F2F1;}
	.st17{clip-path:url(#SVGID_4_);fill:#030930;}
	.st18{clip-path:url(#SVGID_4_);fill:none;}
	.st19{clip-path:url(#SVGID_4_);}
	.st20{clip-path:url(#SVGID_6_);fill:#E69560;}
	.st21{clip-path:url(#SVGID_8_);fill:#030930;}
	.st22{clip-path:url(#SVGID_10_);fill:#E69560;}
	.st23{clip-path:url(#SVGID_12_);fill:#E69560;}
	
		.st24{clip-path:url(#SVGID_14_);fill:none;stroke:#121C36;stroke-width:1.4232;stroke-linecap:round;stroke-linejoin:round;stroke-miterlimit:10;}
	.st25{clip-path:url(#SVGID_16_);fill:#030930;}
	.st26{clip-path:url(#SVGID_18_);fill:#030930;}
	.st27{fill:#121C36;}
	.st28{fill:none;stroke:#121C36;stroke-width:2.178;stroke-linecap:round;stroke-linejoin:round;stroke-miterlimit:10;}
	.st29{fill:none;stroke:#121C36;stroke-width:2.2139;stroke-linecap:round;stroke-linejoin:round;stroke-miterlimit:10;}
	.st30{opacity:0.22;fill:#FFFFFF;stroke:#292929;stroke-width:1.5556;stroke-miterlimit:10;enable-background:new    ;}
	.st31{fill:#003C82;}
	.st32{fill:none;}
	.st33{clip-path:url(#SVGID_4_);fill:#F6939D;}
	.st34{clip-path:url(#SVGID_4_);fill:#3AA488;}
	.st35{clip-path:url(#SVGID_4_);fill:#51BFA6;}
	.st36{clip-path:url(#SVGID_4_);fill:#F4C5AE;}
	.st37{clip-path:url(#SVGID_4_);fill:#F4D0BD;}
	.st38{clip-path:url(#SVGID_4_);fill:#ECA043;}
	.st39{clip-path:url(#SVGID_4_);fill:#F6AE60;}
	.st40{clip-path:url(#SVGID_4_);fill:#EA8181;}
	.st41{clip-path:url(#SVGID_4_);fill:#EC5569;}
	.st42{clip-path:url(#SVGID_4_);fill:#FFF5F5;}
	.st43{clip-path:url(#SVGID_4_);fill:#FB577F;}
</style>
<g id="Capa_2" class="st0">
	<g class="st1">
		<defs>
			<circle id="SVGID_1_" cx="141" cy="141" r="141"/>
		</defs>
		<clipPath id="SVGID_2_">
			<use xlink:href="#SVGID_1_"  style="overflow:visible;"/>
		</clipPath>
		<g id="group" class="st2">
			<g id="page1">
				<g id="layer_1">
					<g id="layer_1_1_">
						<path id="bezier2" class="st3" d="M106.2,234.3c11.1,4.1,13.2,25.6,4.8,48s-24.1,37.2-35.2,33c-11.1-4.1-13.2-25.6-4.8-48
							S95.1,230.2,106.2,234.3z"/>
						<path id="bezier" d="M85.4,313.6v17.1h113.3v-17.1H85.4z"/>
						<path id="bezier3" class="st4" d="M69.5,287.4c-1.7-1.1-1.7-5.5-0.2-10.2c-0.2,0.4-0.3,0.8-0.5,1.2c-1.9,5.1-2,10.2-0.2,11.4
							c1.8,1.2,4.9-1.9,6.8-7c0.1-0.4,0.3-0.8,0.4-1.2C73.9,286,71.2,288.5,69.5,287.4L69.5,287.4z"/>
						<path id="bezier4" class="st3" d="M171.8,222.3c-11.1,4.1-13.2,25.6-4.8,48s24.2,37.2,35.2,33c11.1-4.1,13.2-25.6,4.8-48
							S182.9,218.2,171.8,222.3z"/>
						<path id="bezier5" class="st4" d="M195.6,296.3c-3.3,0-5.9-5-6.4-11.5c0,0.6-0.1,1.1-0.1,1.7c0,7.3,2.9,13.3,6.4,13.3
							s6.4-5.9,6.4-13.3c0-0.6,0-1.1-0.1-1.7C201.5,291.2,198.8,296.3,195.6,296.3L195.6,296.3z"/>
						<path id="bezier6" class="st5" d="M209.4,248.4l-19.6-27.8l-15.8,7.2l-1.4-4.6h-62.9l-1.1,4l-14.4-6.6l-19.6,27.8l25,11.5
							l-15.4,55.8H201l-17-55.6L209.4,248.4z"/>
						<path id="bezier7" class="st6" d="M142.1,252.7c10,0,18.2-8.1,18.2-18.2s-8.1-18.2-18.2-18.2c-10,0-18.2,8.1-18.2,18.2
							S132.1,252.7,142.1,252.7z"/>
						<path id="bezier8" class="st7" d="M142.1,249.4c8.3,0,14.9-6.2,14.9-13.9s-6.7-13.9-14.9-13.9s-14.9,6.2-14.9,13.9
							S133.8,249.4,142.1,249.4z"/>
						<path id="bezier9" class="st3" d="M46.4,168.3c8,0,14.4-6.5,14.4-14.4c0-8-6.5-14.4-14.4-14.4S32,145.9,32,153.9
							C32,161.8,38.5,168.3,46.4,168.3z"/>
						<path id="bezier10" class="st3" d="M234.6,168.3c8,0,14.4-6.5,14.4-14.4c0-8-6.5-14.4-14.4-14.4c-8,0-14.4,6.5-14.4,14.4
							C220.1,161.8,226.6,168.3,234.6,168.3z"/>
						<path id="bezier11" class="st3" d="M141.6,235.6c52.8,0,95.7-33.5,95.7-74.8S194.4,86,141.6,86s-95.7,33.5-95.7,74.8
							S88.7,235.6,141.6,235.6z"/>
						<path id="bezier12" class="st8" d="M97.2,163.8c0,9.3-7.4-12-16.6-12S64,173.1,64,163.8s7.4-16.9,16.6-16.9
							S97.2,154.5,97.2,163.8L97.2,163.8z"/>
						<path id="bezier13" class="st8" d="M224.4,163.8c0,9.3-7.4-12-16.6-12c-9.1,0-16.6,21.3-16.6,12s7.4-16.9,16.6-16.9
							C217,146.9,224.4,154.5,224.4,163.8L224.4,163.8z"/>
						<path id="bezier14" class="st4" d="M206.2,134.8c11.8,0,21.5,8.1,22.4,18.5c0-0.5,0.1-0.9,0.1-1.4c0-11-10.1-19.9-22.4-19.9
							c-12.4,0-22.5,8.9-22.5,19.9c0,0.5,0,1,0.1,1.4C184.7,143,194.4,134.8,206.2,134.8L206.2,134.8z"/>
						<path id="bezier15" class="st4" d="M80.1,134.8c11.9,0,21.6,8.1,22.4,18.5c0-0.5,0.1-0.9,0.1-1.4c0-11-10.1-19.9-22.5-19.9
							s-22.4,8.9-22.4,19.9c0,0.5,0,1,0.1,1.4C58.5,143,68.3,134.8,80.1,134.8L80.1,134.8z"/>
						<path id="bezier16" class="st9" d="M237.1,105.2c0.1-1,0.1-2.1,0.1-3.1c0-13.3-7.6-25.6-20.2-35.4c-1.5-1.2,5.2-15,3.5-16.1
							c-1.4-0.9-11.2,10.8-12.7,9.9c-0.7-0.4-1.5-0.8-2.2-1.2c-2.8-1.5,0.4-17.9-2.7-19.2c-2.7-1.1-11.5,12.8-14.4,11.8
							c-13.9-4.7-29.9-7.4-46.9-7.4c-51.9,0-94.1,24.8-95.7,55.8h191.2L237.1,105.2L237.1,105.2L237.1,105.2z"/>
						<path id="bezier17" class="st9" d="M237.2,98.8H46h-0.1v59.8c0,0,62.5-19.7,83.3-26.3c13-4.1,52.1-16.5,52.1-16.5l55.9,42.8
							v-54.9L237.2,98.8L237.2,98.8z"/>
						<path id="bezier18" class="st10" d="M141,317.8v13.9h1.1v-13.9H141z"/>
						<path id="bezier19" class="st4" d="M142.1,171.5c2.6,0,4.8,1.8,5.2,4.3c0.1-0.4,0.1-0.7,0.1-1.1c0-2.9-2.4-5.3-5.3-5.3
							c-3,0-5.3,2.4-5.3,5.3c0,0.4,0,0.7,0.1,1.1C137.4,173.3,139.5,171.5,142.1,171.5L142.1,171.5z"/>
						<path id="bezier20" class="st11" d="M203.6,196.1c2.1,0,3.7-1.7,3.7-3.7c0-2.1-1.7-3.7-3.7-3.7c-2.1,0-3.7,1.7-3.7,3.7
							C199.8,194.4,201.5,196.1,203.6,196.1z"/>
						<path id="bezier21" class="st11" d="M210,200.3c0.9,0,1.6-0.7,1.6-1.6c0-0.9-0.7-1.6-1.6-1.6c-0.9,0-1.6,0.7-1.6,1.6
							S209.1,200.3,210,200.3z"/>
						<path id="bezier22" class="st11" d="M195.6,200.3c1.2,0,2.1-1,2.1-2.1c0-1.2-1-2.1-2.1-2.1c-1.2,0-2.1,0.9-2.1,2.1
							C193.4,199.4,194.4,200.3,195.6,200.3z"/>
						<path id="bezier23" class="st11" d="M200.4,199.3c0.3,0,0.5-0.2,0.5-0.5s-0.2-0.5-0.5-0.5s-0.5,0.2-0.5,0.5
							C199.8,199,200.1,199.3,200.4,199.3z"/>
						<path id="bezier24" class="st11" d="M86,196.1c2.1,0,3.7-1.7,3.7-3.7c0-2.1-1.7-3.7-3.7-3.7c-2.1,0-3.7,1.7-3.7,3.7
							C82.2,194.4,83.9,196.1,86,196.1z"/>
						<path id="bezier25" class="st11" d="M92.4,200.3c0.9,0,1.6-0.7,1.6-1.6c0-0.9-0.7-1.6-1.6-1.6s-1.6,0.7-1.6,1.6
							S91.5,200.3,92.4,200.3z"/>
						<path id="bezier26" class="st11" d="M76.9,200.3c1.2,0,2.1-1,2.1-2.1c0-1.2-0.9-2.1-2.1-2.1s-2.1,0.9-2.1,2.1
							C74.8,199.4,75.7,200.3,76.9,200.3z"/>
						<path id="bezier27" class="st11" d="M81.7,199.3c0.3,0,0.5-0.2,0.5-0.5s-0.2-0.5-0.5-0.5s-0.5,0.2-0.5,0.5
							C81.2,199,81.4,199.3,81.7,199.3z"/>
						<path id="bezier28" class="st12" d="M75.6,182.2c-8.4,0-15.9,3.6-21.2,9.2c9.1,16,25.1,29,45,36.7c3.3-4.7,5.2-10.5,5.2-16.7
							C104.7,195.2,91.7,182.2,75.6,182.2L75.6,182.2z"/>
						<path id="bezier29" class="st12" d="M207.5,182.2c8.4,0,15.9,3.6,21.2,9.2c-9.1,16-25.1,29-45,36.7
							c-3.3-4.7-5.2-10.5-5.2-16.7C178.4,195.2,191.4,182.2,207.5,182.2L207.5,182.2z"/>
						<path id="bezier30" class="st10" d="M74.2,336c2.7,0,4.8-1.7,4.8-3.7c0-2.1-2.2-3.7-4.8-3.7c-2.7,0-4.8,1.7-4.8,3.7
							C69.4,334.3,71.6,336,74.2,336z"/>
						<path id="bezier31" class="st10" d="M81.7,336c2.7,0,4.8-1.7,4.8-3.7c0-2.1-2.2-3.7-4.8-3.7c-2.7,0-4.8,1.7-4.8,3.7
							C76.9,334.3,79.1,336,81.7,336z"/>
						<path id="bezier32" class="st10" d="M89.2,336c2.7,0,4.8-1.7,4.8-3.7c0-2.1-2.2-3.7-4.8-3.7c-2.7,0-4.8,1.7-4.8,3.7
							C84.4,334.3,86.5,336,89.2,336z"/>
						<path id="bezier33" class="st10" d="M97.7,336c2.7,0,4.8-1.7,4.8-3.7c0-2.1-2.2-3.7-4.8-3.7c-2.7,0-4.8,1.7-4.8,3.7
							C92.9,334.3,95.1,336,97.7,336z"/>
						<path id="bezier34" class="st10" d="M105.2,336c2.7,0,4.8-1.7,4.8-3.7c0-2.1-2.2-3.7-4.8-3.7c-2.7,0-4.8,1.7-4.8,3.7
							C100.4,334.3,102.6,336,105.2,336z"/>
						<path id="bezier35" class="st10" d="M112.7,336c2.7,0,4.8-1.7,4.8-3.7c0-2.1-2.2-3.7-4.8-3.7c-2.7,0-4.8,1.7-4.8,3.7
							C107.9,334.3,110.1,336,112.7,336z"/>
						<path id="bezier36" class="st10" d="M121.3,336c2.7,0,4.8-1.7,4.8-3.7c0-2.1-2.2-3.7-4.8-3.7c-2.7,0-4.8,1.7-4.8,3.7
							C116.4,334.3,118.6,336,121.3,336z"/>
						<path id="bezier37" class="st10" d="M128.7,336c2.7,0,4.8-1.7,4.8-3.7c0-2.1-2.2-3.7-4.8-3.7c-2.7,0-4.8,1.7-4.8,3.7
							C123.9,334.3,126.1,336,128.7,336z"/>
						<path id="bezier38" class="st10" d="M136.2,336c2.7,0,4.8-1.7,4.8-3.7c0-2.1-2.1-3.7-4.8-3.7c-2.6,0-4.8,1.7-4.8,3.7
							S133.6,336,136.2,336z"/>
						<path id="bezier39" class="st10" d="M146.9,336c2.7,0,4.8-1.7,4.8-3.7c0-2.1-2.1-3.7-4.8-3.7s-4.8,1.7-4.8,3.7
							C142.1,334.3,144.3,336,146.9,336z"/>
						<path id="bezier40" class="st10" d="M154.4,336c2.7,0,4.8-1.7,4.8-3.7c0-2.1-2.2-3.7-4.8-3.7c-2.7,0-4.8,1.7-4.8,3.7
							C149.6,334.3,151.7,336,154.4,336z"/>
						<path id="bezier41" class="st10" d="M161.9,336c2.7,0,4.8-1.7,4.8-3.7c0-2.1-2.2-3.7-4.8-3.7c-2.7,0-4.8,1.7-4.8,3.7
							C157.1,334.3,159.2,336,161.9,336z"/>
						<path id="bezier42" class="st10" d="M170.4,336c2.7,0,4.8-1.7,4.8-3.7c0-2.1-2.2-3.7-4.8-3.7c-2.7,0-4.8,1.7-4.8,3.7
							C165.6,334.3,167.8,336,170.4,336z"/>
						<path id="bezier43" class="st10" d="M177.9,336c2.7,0,4.8-1.7,4.8-3.7c0-2.1-2.1-3.7-4.8-3.7s-4.8,1.7-4.8,3.7
							C173.1,334.3,175.3,336,177.9,336z"/>
						<path id="bezier44" class="st10" d="M185.4,336c2.7,0,4.8-1.7,4.8-3.7c0-2.1-2.2-3.7-4.8-3.7c-2.7,0-4.8,1.7-4.8,3.7
							C180.6,334.3,182.7,336,185.4,336z"/>
						<path id="bezier45" class="st10" d="M193.9,336c2.7,0,4.8-1.7,4.8-3.7c0-2.1-2.2-3.7-4.8-3.7c-2.7,0-4.8,1.7-4.8,3.7
							C189.1,334.3,191.3,336,193.9,336z"/>
						<path id="bezier46" class="st10" d="M201.4,336c2.7,0,4.8-1.7,4.8-3.7c0-2.1-2.2-3.7-4.8-3.7c-2.7,0-4.8,1.7-4.8,3.7
							C196.6,334.3,198.8,336,201.4,336z"/>
						<path id="bezier47" class="st10" d="M208.9,336c2.7,0,4.8-1.7,4.8-3.7c0-2.1-2.1-3.7-4.8-3.7s-4.8,1.7-4.8,3.7
							C204.1,334.3,206.3,336,208.9,336z"/>
						<path id="bezier48" class="st13" d="M142.1,180c24.2,0,43.8-2.2,43.8-4.8c0-2.7-19.6-4.8-43.8-4.8s-43.8,2.1-43.8,4.8
							S117.9,180,142.1,180z"/>
						<path id="bezier49" class="st6" d="M105.8,317.8c-20.1,0-36.3,6.7-36.3,15h72.7C142.1,324.5,125.8,317.8,105.8,317.8
							L105.8,317.8z"/>
						<path id="bezier50" class="st6" d="M178.4,317.8c-20.1,0-36.3,6.7-36.3,15h72.7C214.8,324.5,198.5,317.8,178.4,317.8
							L178.4,317.8z"/>
						<path id="bezier51" class="st14" d="M69.9,269c-2.1-2.9-4.9-4.4-6.3-3.4c-1.5,1-0.9,4.2,1.1,7.1c2.1,2.9,4.9,4.4,6.3,3.4
							C72.4,275,71.9,271.9,69.9,269z"/>
					</g>
					<path id="bezier52" class="st15" d="M173.1,199.8c0,6.8-13.4,12.3-29.9,12.3s-29.9-5.5-29.9-12.3s13.4-12.3,29.9-12.3
						S173.1,193,173.1,199.8L173.1,199.8z"/>
					<path id="bezier53" class="st3" d="M110,184.3v15h65.2v-15H110z"/>
				</g>
			</g>
		</g>
	</g>
</g>
<g id="Capa_4">
	<circle class="st16" cx="142" cy="142" r="140.4"/>
</g>
<g id="Capa_1">
	<g>
		<defs>
			<path id="SVGID_3_" d="M142,1c77.5,0,140.3,63.1,140.3,141S219.5,283,142,283S1.7,219.9,1.7,142S64.5,1,142,1"/>
		</defs>
		<clipPath id="SVGID_4_">
			<use xlink:href="#SVGID_3_"  style="overflow:visible;"/>
		</clipPath>
		<path class="st17" d="M422.5,253c-8.1-32.9-11.1-99.6-38.4-165.2c-16.3-39.1-29-54.8-36.5-61.2c0,0-27.6-31.8-77-31.8
			c-47,0.2-74.4,30.4-74.4,30.4c-7.2,5.2-20.7,19.9-38.5,62.8c-27.2,65.5-30.2,132.2-38.4,165.1c-8.1,32.9,2.2,93.6,65.8,105.5
			c0,0-8.1-8.6-11.1-22.9c0,0,26.6,38.7,62.8,36.3h68.4c36.2,2.3,62.8-36.3,62.8-36.3c-3,14.3-11.1,22.9-11.1,22.9
			C420.3,346.8,430.6,286.1,422.5,253"/>
		<path class="st17" d="M372.4,98.2c0,56.4-43.5,101.9-97.4,101.9s-97.4-45.7-97.4-101.9c0-56.4,43.5-94.6,97.4-94.6
			C328.8,3.6,372.4,41.8,372.4,98.2"/>
		<path class="st18" d="M142,1c77.5,0,140.3,63.1,140.3,141S219.5,283,142,283S1.7,219.9,1.7,142S64.5,1,142,1"/>
		<g class="st19">
			<defs>
				<path id="SVGID_5_" d="M142,1c77.5,0,140.3,63.1,140.3,141S219.5,283,142,283S1.7,219.9,1.7,142S64.5,1,142,1"/>
			</defs>
			<clipPath id="SVGID_6_">
				<use xlink:href="#SVGID_5_"  style="overflow:visible;"/>
			</clipPath>
			<path class="st20" d="M318.2,327.9l-11.3-99c0,0-11.6,11.9-27.1,14.9c-15.5,2.8-30.5-6.3-30.7-6.3c-0.2-0.2-12.7-10.5-12.7-10.5
				l-11.3,102.3c0,1.1,7.7-0.3,7.5,0.8C232.7,329.9,318.2,328.8,318.2,327.9z"/>
		</g>
		<g class="st19">
			<defs>
				<path id="SVGID_7_" d="M142,1c77.5,0,140.3,63.1,140.3,141S219.5,283,142,283S1.7,219.9,1.7,142S64.5,1,142,1"/>
			</defs>
			<clipPath id="SVGID_8_">
				<use xlink:href="#SVGID_7_"  style="overflow:visible;"/>
			</clipPath>
			<path class="st21" d="M229.2,230.3c0,0,23.6,46,52,39.5c29.4-6.9,29.3-45.7,29.3-45.7L229.2,230.3z"/>
		</g>
		<g class="st19">
			<defs>
				<path id="SVGID_9_" d="M142,1c77.5,0,140.3,63.1,140.3,141S219.5,283,142,283S1.7,219.9,1.7,142S64.5,1,142,1"/>
			</defs>
			<clipPath id="SVGID_10_">
				<use xlink:href="#SVGID_9_"  style="overflow:visible;"/>
			</clipPath>
			<path class="st22" d="M360,103.5c0,35.1-5.2,65.5-10.2,86.9c-5,21-19.1,35.7-39,47.6l-3.6,2.2c-21.1,12.5-48.4,12.8-69.7,0.8
				c-21.6-12.2-36.6-28.2-41.3-50.9c-8.5-41-9.4-86.6-9.4-86.6s-8.1-88.6,85.3-86.9C365.6,18.3,360,103.5,360,103.5"/>
		</g>
		<g class="st19">
			<g>
				<g>
					<defs>
						<path id="SVGID_11_" d="M142,1c77.5,0,140.3,63.1,140.3,141S219.5,283,142,283S1.7,219.9,1.7,142S64.5,1,142,1"/>
					</defs>
					<clipPath id="SVGID_12_">
						<use xlink:href="#SVGID_11_"  style="overflow:visible;"/>
					</clipPath>
					<path class="st23" d="M197.9,186.6c-15.7,13.6-48.5-40.1-33.4-54.7c15.2-14.4,25.8,9.1,25.8,9.1l3.1,16.9l4.5,22.9l1.3,5.2
						L197.9,186.6z"/>
				</g>
				<g>
					<g>
						<g>
							<g>
								<defs>
									<path id="SVGID_13_" d="M142,1c77.5,0,140.3,63.1,140.3,141S219.5,283,142,283S1.7,219.9,1.7,142S64.5,1,142,1"/>
								</defs>
								<clipPath id="SVGID_14_">
									<use xlink:href="#SVGID_13_"  style="overflow:visible;"/>
								</clipPath>
								<path class="st24" d="M171.3,150.2c0,0,6.4-13.9,21.3,10.5"/>
							</g>
							<g>
								<g>
									<g>
										<g>
											<defs>
												<path id="SVGID_15_" d="M142,1c77.5,0,140.3,63.1,140.3,141S219.5,283,142,283S1.7,219.9,1.7,142S64.5,1,142,1"/>
											</defs>
											<clipPath id="SVGID_16_">
												<use xlink:href="#SVGID_15_"  style="overflow:visible;"/>
											</clipPath>
											<path class="st25" d="M342.6,28.6c0,0-74.5,89.6-156.3,53.1c0,0-18-71.4,80.2-77.8L342.6,28.6z"/>
										</g>
										<g>
											<g>
												<g>
													<g>
														<defs>
															<path id="SVGID_17_" d="M142,1c77.5,0,140.3,63.1,140.3,141S219.5,283,142,283S1.7,219.9,1.7,142S64.5,1,142,1"/>
														</defs>
														<clipPath id="SVGID_18_">
															<use xlink:href="#SVGID_17_"  style="overflow:visible;"/>
														</clipPath>
														<path class="st26" d="M188.5,134.5c0,0,29.4-48.2,21.1-96.9c0,0-20.2,13.3-27.1,47.6
															C175.8,119.6,188.5,134.5,188.5,134.5z"/>
													</g>
													<g>
														<g>
															<g>
																<g>
																	<path class="st27" d="M258.4,112.4l-49.6,6c0,0,3.9-13.2,24.3-15.5C253.2,100.7,258.4,112.4,258.4,112.4z"/>
																</g>
															</g>
														</g>
													</g>
												</g>
											</g>
										</g>
									</g>
								</g>
							</g>
						</g>
					</g>
				</g>
				<g>
					<g>
						<path class="st27" d="M258.1,113.1l-49.3,5.9c0,0,3.9-13.1,24.1-15.4C253,101.4,258.1,113.1,258.1,113.1z"/>
						<path class="st27" d="M286.4,113.1l49.2,5.9c0,0-3.9-13.1-24.1-15.4C291.5,101.4,286.4,113.1,286.4,113.1z"/>
						<polyline class="st28" points="267.7,156.8 267.7,171.7 276.4,171.9 						"/>
						<path class="st29" d="M222.5,136.8c10.9,8.2,22.6,0,22.6,0"/>
						<path class="st29" d="M322.3,136.8c-10.9,8.2-22.6,0-22.6,0"/>
					</g>
				</g>
				<g>
					<path class="st30" d="M341.8,165.2h-49.6c-3.9,0-7-3.1-7-7v-26.1c0-3.9,3.1-7,7-7h49.6c3.9,0,7,3.1,7,7v26.1
						C348.8,162.1,345.7,165.2,341.8,165.2z"/>
					<g>
						<path class="st31" d="M336.5,168.3h-37.3c-9,0-16.2-7.3-16.2-16.3v-13.7c0-9,7.3-16.3,16.2-16.3h37.3c9,0,16.2,7.3,16.2,16.3
							V152C352.7,160.8,345.4,168.3,336.5,168.3z M299.2,127.9c-5.6,0-10.3,4.7-10.3,10.3v13.7c0,5.8,4.7,10.3,10.3,10.3h37.3
							c5.6,0,10.3-4.7,10.3-10.3v-13.7c0-5.8-4.7-10.3-10.3-10.3C336.5,127.9,299.2,127.9,299.2,127.9z"/>
					</g>
					<path class="st30" d="M252.8,165.2h-49.6c-3.9,0-7-3.1-7-7v-26.1c0-3.9,3.1-7,7-7h49.6c3.9,0,7,3.1,7,7v26.1
						C259.8,162.1,256.7,165.2,252.8,165.2z"/>
					<g>
						<path class="st31" d="M245.5,168.3h-37.3c-9,0-16.2-7.3-16.2-16.3v-13.7c0-9,7.3-16.3,16.2-16.3h37.3c9,0,16.2,7.3,16.2,16.3
							V152C261.8,160.8,254.5,168.3,245.5,168.3z M208.2,127.9c-5.6,0-10.3,4.7-10.3,10.3v13.7c0,5.8,4.7,10.3,10.3,10.3h37.3
							c5.6,0,10.3-4.7,10.3-10.3v-13.7c0-5.8-4.7-10.3-10.3-10.3C245.5,127.9,208.2,127.9,208.2,127.9z"/>
					</g>
					<g>
						<g>
							<path class="st31" d="M284.2,148.1c-4.4-4.8-8.6-7.2-12.4-6.8c-5.9,0.5-10,6.5-10.1,6.5l-5-3.3c0.2-0.3,5.8-8.6,14.6-9.3
								c5.9-0.5,11.8,2.5,17.4,8.9L284.2,148.1z"/>
						</g>
					</g>
				</g>
				<path class="st32" d="M142,1c77.5,0,140.3,63.1,140.3,141S219.5,283,142,283S1.7,219.9,1.7,142S64.5,1,142,1"/>
				<path class="st32" d="M142,1c77.5,0,140.3,63.1,140.3,141S219.5,283,142,283S1.7,219.9,1.7,142S64.5,1,142,1"/>
				<path class="st32" d="M142,1c77.5,0,140.3,63.1,140.3,141S219.5,283,142,283S1.7,219.9,1.7,142S64.5,1,142,1"/>
				<path class="st32" d="M142,1c77.5,0,140.3,63.1,140.3,141S219.5,283,142,283S1.7,219.9,1.7,142S64.5,1,142,1"/>
			</g>
		</g>
		<ellipse class="st33" cx="256.2" cy="195.2" rx="2.3" ry="1.6"/>
		<path class="st18" d="M142,1c77.5,0,140.3,63.1,140.3,141S219.5,283,142,283S1.7,219.9,1.7,142S64.5,1,142,1"/>
		<polygon id="polygon5_1_" class="st34" points="93.5,228.6 93.8,186.1 72.7,186 		"/>
		<polygon id="polygon6_1_" class="st35" points="93.5,228.6 93.8,186.1 114.9,186.3 		"/>
		<polygon id="polygon_1_" class="st36" points="101,213.6 114.9,186.3 72.7,186 86.1,213.4 		"/>
		<polygon id="polygon4_1_" class="st37" points="101.1,213.5 114.9,186.3 93.8,186.1 93.6,213.4 		"/>
		<path id="rectangle_1_" class="st38" d="M94.5,103.7L94.5,103.7l-0.7,82.5L72.7,186l0.5-61.4C73.4,113,82.9,103.6,94.5,103.7z"/>
		<path id="rectangle2_1_" class="st39" d="M94.5,103.7L94.5,103.7c11.6,0.1,21,9.6,20.9,21.2l-0.5,61.4l-21.1-0.2L94.5,103.7z"/>
		<polygon id="polygon2_1_" class="st36" points="83.7,174.3 94.2,186.2 73.1,186.1 		"/>
		<polygon id="polygon3_1_" class="st37" points="104.1,174.5 114.6,186.4 93.5,186.2 		"/>
		<path class="st40" d="M51.9,59.9v15.8c0,6.4,5.1,11.5,11.5,11.5h10.8c0.1,0,0.2,0,0.3,0.1L85,98.4c0.8,0.9,2.3,0.3,2.3-0.9v-7.8
			c0-1.4,1.2-2.6,2.6-2.6l0,0c6.4,0,11.5-5.1,11.5-11.5V59.9c0-6.4-5.1-11.5-11.5-11.5H63.4C57,48.4,51.9,53.6,51.9,59.9z"/>
		<path class="st41" d="M66.1,69l9.9,9.9c0.3,0.3,0.8,0.3,1.2,0l9.9-9.9c2.4-2.4,2.4-6.2,0-8.5l0,0c-2.4-2.4-6.2-2.4-8.5,0l-1.3,1.3
			c-0.3,0.3-0.8,0.3-1.2,0l-1.4-1.3c-2.4-2.4-6.2-2.4-8.5,0l0,0C63.8,62.8,63.8,66.7,66.1,69z"/>
		<path class="st42" d="M64.5,69l11.4,11.4c0.4,0.4,1,0.4,1.3,0L88.6,69c2.7-2.7,2.7-7.1,0-9.9l0,0c-2.7-2.7-7.1-2.7-9.9,0l-1.5,1.5
			c-0.4,0.4-1,0.4-1.3,0l-1.5-1.5c-2.7-2.7-7.1-2.7-9.9,0l0,0C61.8,61.9,61.8,66.3,64.5,69z"/>
		<path class="st43" d="M249.1,188.5l11.9-5.1c2-0.4,4.1-0.4,6.2,0.1l5.2,1.2l4.5-1.4c2.1-0.7,4.9-0.7,6.7-0.1l11.3,5.2L249.1,188.5
			z"/>
		<path class="st43" d="M249.1,188.5c0,0,5.9,16,23.4,16c17.5,0,22.6-16.1,22.6-16.1L249.1,188.5z"/>
		<ellipse class="st33" cx="262.9" cy="199" rx="2" ry="1.3"/>
	</g>
	<path class="st32" d="M142,1c77.5,0,140.3,63.1,140.3,141S219.5,283,142,283S1.7,219.9,1.7,142S64.5,1,142,1"/>
</g>
<g id="Capa_3">
</g>
</svg>
