<svg id="Capa_1" data-name="Capa 1" xmlns="http://www.w3.org/2000/svg" viewBox="0 0 801 539"><defs><style>.cls-1{fill:#030930;}.cls-2{fill:#e69560;}.cls-3{fill:#4ab19a;}.cls-4{fill:#fb577f;}</style></defs><title>les_loader_nav_2</title><rect class="cls-1" x="376.78" y="221" width="46.67" height="50.56"/><rect class="cls-2" x="382.22" y="226.44" width="35.78" height="31.89"/><polygon class="cls-1" points="406.33 233.44 382.22 233.44 382.22 221 407.11 221 406.33 233.44"/><polygon class="cls-1" points="423.44 233.44 408.67 233.44 407.11 221 423.44 221 423.44 233.44"/><rect class="cls-3" x="376.78" y="266.11" width="46.67" height="24.89"/><rect class="cls-2" x="369.78" y="275.44" width="11.67" height="15.56"/><rect class="cls-2" x="419.56" y="275.44" width="11.67" height="15.56"/><rect class="cls-3" x="416.44" y="266.11" width="14.78" height="15.56"/><rect class="cls-4" x="394.86" y="250.56" width="10.89" height="3.11"/><circle class="cls-1" cx="393.11" cy="242.78" r="2.33"/><circle class="cls-1" cx="407.11" cy="242.78" r="2.33"/><rect class="cls-3" x="369.78" y="266.11" width="14.78" height="15.56"/><rect class="cls-2" x="392.72" y="258.33" width="15.17" height="12.44"/></svg>